%TF.GenerationSoftware,KiCad,Pcbnew,10.0.1*%
%TF.CreationDate,2026-06-07T15:52:36-04:00*%
%TF.ProjectId,HV Pi Hat,48562050-6920-4486-9174-2e6b69636164,rev?*%
%TF.SameCoordinates,Original*%
%TF.FileFunction,Paste,Top*%
%TF.FilePolarity,Positive*%
%FSLAX46Y46*%
G04 Gerber Fmt 4.6, Leading zero omitted, Abs format (unit mm)*
G04 Created by KiCad (PCBNEW 10.0.1) date 2026-06-07 15:52:36*
%MOMM*%
%LPD*%
G01*
G04 APERTURE LIST*
G04 Aperture macros list*
%AMRoundRect*
0 Rectangle with rounded corners*
0 $1 Rounding radius*
0 $2 $3 $4 $5 $6 $7 $8 $9 X,Y pos of 4 corners*
0 Add a 4 corners polygon primitive as box body*
4,1,4,$2,$3,$4,$5,$6,$7,$8,$9,$2,$3,0*
0 Add four circle primitives for the rounded corners*
1,1,$1+$1,$2,$3*
1,1,$1+$1,$4,$5*
1,1,$1+$1,$6,$7*
1,1,$1+$1,$8,$9*
0 Add four rect primitives between the rounded corners*
20,1,$1+$1,$2,$3,$4,$5,0*
20,1,$1+$1,$4,$5,$6,$7,0*
20,1,$1+$1,$6,$7,$8,$9,0*
20,1,$1+$1,$8,$9,$2,$3,0*%
G04 Aperture macros list end*
%ADD10RoundRect,0.218750X0.256250X-0.218750X0.256250X0.218750X-0.256250X0.218750X-0.256250X-0.218750X0*%
%ADD11RoundRect,0.225000X-0.225000X-0.250000X0.225000X-0.250000X0.225000X0.250000X-0.225000X0.250000X0*%
%ADD12RoundRect,0.200000X0.275000X-0.200000X0.275000X0.200000X-0.275000X0.200000X-0.275000X-0.200000X0*%
%ADD13RoundRect,0.225000X0.250000X-0.225000X0.250000X0.225000X-0.250000X0.225000X-0.250000X-0.225000X0*%
%ADD14RoundRect,0.250000X-0.325000X-0.650000X0.325000X-0.650000X0.325000X0.650000X-0.325000X0.650000X0*%
%ADD15RoundRect,0.150000X-0.512500X-0.150000X0.512500X-0.150000X0.512500X0.150000X-0.512500X0.150000X0*%
%ADD16RoundRect,0.218750X0.381250X-0.218750X0.381250X0.218750X-0.381250X0.218750X-0.381250X-0.218750X0*%
G04 APERTURE END LIST*
D10*
%TO.C,D2*%
X149000000Y-108787500D03*
X149000000Y-107212500D03*
%TD*%
D11*
%TO.C,C4*%
X129225000Y-116000000D03*
X130775000Y-116000000D03*
%TD*%
D12*
%TO.C,R8*%
X122000000Y-131825000D03*
X122000000Y-130175000D03*
%TD*%
D13*
%TO.C,C5*%
X131000000Y-131775000D03*
X131000000Y-130225000D03*
%TD*%
D12*
%TO.C,R10*%
X127000000Y-135825000D03*
X127000000Y-134175000D03*
%TD*%
%TO.C,R14*%
X145000000Y-107825000D03*
X145000000Y-106175000D03*
%TD*%
%TO.C,R6*%
X145000000Y-97825000D03*
X145000000Y-96175000D03*
%TD*%
%TO.C,R17*%
X133000000Y-98825000D03*
X133000000Y-97175000D03*
%TD*%
%TO.C,R21*%
X145000000Y-117825000D03*
X145000000Y-116175000D03*
%TD*%
%TO.C,R11*%
X145000000Y-100825000D03*
X145000000Y-99175000D03*
%TD*%
D14*
%TO.C,C2*%
X119525000Y-120000000D03*
X122475000Y-120000000D03*
%TD*%
D12*
%TO.C,R20*%
X133000000Y-111825000D03*
X133000000Y-110175000D03*
%TD*%
D10*
%TO.C,D1*%
X149000000Y-98787500D03*
X149000000Y-97212500D03*
%TD*%
D15*
%TO.C,U2*%
X125862500Y-130050000D03*
X125862500Y-131000000D03*
X125862500Y-131950000D03*
X128137500Y-131950000D03*
X128137500Y-130050000D03*
%TD*%
D12*
%TO.C,R18*%
X133000000Y-108825000D03*
X133000000Y-107175000D03*
%TD*%
%TO.C,R19*%
X133000000Y-101825000D03*
X133000000Y-100175000D03*
%TD*%
%TO.C,R24*%
X133000000Y-131825000D03*
X133000000Y-130175000D03*
%TD*%
%TO.C,R23*%
X133000000Y-128825000D03*
X133000000Y-127175000D03*
%TD*%
%TO.C,R13*%
X133000000Y-121825000D03*
X133000000Y-120175000D03*
%TD*%
D13*
%TO.C,C1*%
X131000000Y-127775000D03*
X131000000Y-126225000D03*
%TD*%
D12*
%TO.C,R9*%
X122000000Y-133825000D03*
X122000000Y-132175000D03*
%TD*%
D16*
%TO.C,FB1*%
X126000000Y-117062500D03*
X126000000Y-114937500D03*
%TD*%
D12*
%TO.C,R22*%
X145000000Y-127825000D03*
X145000000Y-126175000D03*
%TD*%
%TO.C,R16*%
X133000000Y-118825000D03*
X133000000Y-117175000D03*
%TD*%
D11*
%TO.C,C3*%
X125225000Y-120000000D03*
X126775000Y-120000000D03*
%TD*%
D12*
%TO.C,R15*%
X145000000Y-110825000D03*
X145000000Y-109175000D03*
%TD*%
%TO.C,R7*%
X122000000Y-127825000D03*
X122000000Y-126175000D03*
%TD*%
M02*
