%TF.GenerationSoftware,KiCad,Pcbnew,10.0.1*%
%TF.CreationDate,2026-06-07T15:52:36-04:00*%
%TF.ProjectId,HV Pi Hat,48562050-6920-4486-9174-2e6b69636164,rev?*%
%TF.SameCoordinates,Original*%
%TF.FileFunction,Profile,NP*%
%FSLAX46Y46*%
G04 Gerber Fmt 4.6, Leading zero omitted, Abs format (unit mm)*
G04 Created by KiCad (PCBNEW 10.0.1) date 2026-06-07 15:52:36*
%MOMM*%
%LPD*%
G01*
G04 APERTURE LIST*
%TA.AperFunction,Profile*%
%ADD10C,0.050000*%
%TD*%
%TA.AperFunction,Profile*%
%ADD11C,0.150000*%
%TD*%
G04 APERTURE END LIST*
D10*
X117500000Y-89500000D02*
G75*
G02*
X121000000Y-86000000I3500000J0D01*
G01*
X117500000Y-138500000D02*
X117500000Y-89500000D01*
X121000000Y-86000000D02*
X199000000Y-86000000D01*
X121000000Y-142000000D02*
G75*
G02*
X117500000Y-138500000I0J3500000D01*
G01*
D11*
X168546674Y-98228805D02*
X168808604Y-97688997D01*
X168808604Y-97688997D02*
X172407325Y-99435194D01*
X172145395Y-99975002D02*
X168546674Y-98228805D01*
X172407325Y-99435194D02*
X172145395Y-99975002D01*
X192152414Y-117233493D02*
X192366256Y-116672893D01*
X192304298Y-95791864D02*
X192641029Y-95295263D01*
X192366256Y-116672893D02*
X196103585Y-118098506D01*
X192528826Y-111024000D02*
X195293566Y-108133288D01*
X192641029Y-95295263D02*
X195951701Y-97540135D01*
X192962433Y-111438711D02*
X192528826Y-111024000D01*
X193000000Y-112700000D02*
X197000000Y-112700000D01*
X193000000Y-113300000D02*
X193000000Y-112700000D01*
X193132473Y-132046376D02*
X194563221Y-128311010D01*
X193692778Y-132260989D02*
X193132473Y-132046376D01*
X194563221Y-128311010D02*
X195123526Y-128525623D01*
X195123526Y-128525623D02*
X193692778Y-132260989D01*
X195293566Y-108133288D02*
X195727173Y-108547999D01*
X195614970Y-98036736D02*
X192304298Y-95791864D01*
X195727173Y-108547999D02*
X192962433Y-111438711D01*
X195889743Y-118659106D02*
X192152414Y-117233493D01*
X195951701Y-97540135D02*
X195614970Y-98036736D01*
X196103585Y-118098506D02*
X195889743Y-118659106D01*
X196200000Y-93380000D02*
X196800000Y-93380000D01*
X196200000Y-97380000D02*
X196200000Y-93380000D01*
X196200000Y-113380000D02*
X196800000Y-113380000D01*
X196200000Y-117380000D02*
X196200000Y-113380000D01*
X196800000Y-93380000D02*
X196800000Y-97380000D01*
X196800000Y-97380000D02*
X196200000Y-97380000D01*
X196800000Y-113380000D02*
X196800000Y-117380000D01*
X196800000Y-117380000D02*
X196200000Y-117380000D01*
X197000000Y-112700000D02*
X197000000Y-113300000D01*
X197000000Y-113300000D02*
X193000000Y-113300000D01*
D10*
X199000000Y-86000000D02*
G75*
G02*
X202500000Y-89500000I0J-3500000D01*
G01*
X199000000Y-142000000D02*
X121000000Y-142000000D01*
X202500000Y-89500000D02*
X202500000Y-138500000D01*
X202500000Y-138500000D02*
G75*
G02*
X199000000Y-142000000I-3500000J0D01*
G01*
M02*
