%TF.GenerationSoftware,KiCad,Pcbnew,10.0.1*%
%TF.CreationDate,2026-06-07T15:52:36-04:00*%
%TF.ProjectId,HV Pi Hat,48562050-6920-4486-9174-2e6b69636164,rev?*%
%TF.SameCoordinates,Original*%
%TF.FileFunction,Copper,L2,Inr*%
%TF.FilePolarity,Positive*%
%FSLAX46Y46*%
G04 Gerber Fmt 4.6, Leading zero omitted, Abs format (unit mm)*
G04 Created by KiCad (PCBNEW 10.0.1) date 2026-06-07 15:52:36*
%MOMM*%
%LPD*%
G01*
G04 APERTURE LIST*
G04 Aperture macros list*
%AMRoundRect*
0 Rectangle with rounded corners*
0 $1 Rounding radius*
0 $2 $3 $4 $5 $6 $7 $8 $9 X,Y pos of 4 corners*
0 Add a 4 corners polygon primitive as box body*
4,1,4,$2,$3,$4,$5,$6,$7,$8,$9,$2,$3,0*
0 Add four circle primitives for the rounded corners*
1,1,$1+$1,$2,$3*
1,1,$1+$1,$4,$5*
1,1,$1+$1,$6,$7*
1,1,$1+$1,$8,$9*
0 Add four rect primitives between the rounded corners*
20,1,$1+$1,$2,$3,$4,$5,0*
20,1,$1+$1,$4,$5,$6,$7,0*
20,1,$1+$1,$6,$7,$8,$9,0*
20,1,$1+$1,$8,$9,$2,$3,0*%
G04 Aperture macros list end*
%TA.AperFunction,ComponentPad*%
%ADD10R,1.700000X1.700000*%
%TD*%
%TA.AperFunction,ComponentPad*%
%ADD11C,1.700000*%
%TD*%
%TA.AperFunction,ComponentPad*%
%ADD12C,1.320800*%
%TD*%
%TA.AperFunction,ComponentPad*%
%ADD13C,3.100000*%
%TD*%
%TA.AperFunction,ComponentPad*%
%ADD14C,1.208000*%
%TD*%
%TA.AperFunction,ComponentPad*%
%ADD15C,1.524000*%
%TD*%
%TA.AperFunction,ComponentPad*%
%ADD16C,1.651000*%
%TD*%
%TA.AperFunction,ComponentPad*%
%ADD17RoundRect,0.250000X-1.000000X-1.000000X1.000000X-1.000000X1.000000X1.000000X-1.000000X1.000000X0*%
%TD*%
%TA.AperFunction,ComponentPad*%
%ADD18C,2.500000*%
%TD*%
%TA.AperFunction,ViaPad*%
%ADD19C,0.700000*%
%TD*%
%TA.AperFunction,ViaPad*%
%ADD20C,0.600000*%
%TD*%
%TA.AperFunction,Conductor*%
%ADD21C,0.600000*%
%TD*%
%TA.AperFunction,Conductor*%
%ADD22C,0.254000*%
%TD*%
%TA.AperFunction,Conductor*%
%ADD23C,0.200000*%
%TD*%
G04 APERTURE END LIST*
D10*
%TO.N,unconnected-(GPIO1-3.3V-Pad1)*%
%TO.C,GPIO1*%
X125875000Y-90775000D03*
D11*
%TO.N,+5V*%
X125875000Y-88235000D03*
%TO.N,unconnected-(GPIO1-GPIO_2-Pad3)*%
X128415000Y-90775000D03*
%TO.N,unconnected-(GPIO1-5V-Pad4)*%
X128415000Y-88235000D03*
%TO.N,unconnected-(GPIO1-GPIO_3-Pad5)*%
X130955000Y-90775000D03*
%TO.N,GND*%
X130955000Y-88235000D03*
%TO.N,unconnected-(GPIO1-GPIO_4-Pad7)*%
X133495000Y-90775000D03*
%TO.N,unconnected-(GPIO1-GPIO_14-Pad8)*%
X133495000Y-88235000D03*
%TO.N,unconnected-(GPIO1-GND-Pad9)*%
X136035000Y-90775000D03*
%TO.N,unconnected-(GPIO1-GPIO_15-Pad10)*%
X136035000Y-88235000D03*
%TO.N,unconnected-(GPIO1-GPIO_17-Pad11)*%
X138575000Y-90775000D03*
%TO.N,unconnected-(GPIO1-GPIO_18-Pad12)*%
X138575000Y-88235000D03*
%TO.N,unconnected-(GPIO1-GPIO_27-Pad13)*%
X141115000Y-90775000D03*
%TO.N,unconnected-(GPIO1-GND-Pad14)*%
X141115000Y-88235000D03*
%TO.N,unconnected-(GPIO1-GPIO_22-Pad15)*%
X143655000Y-90775000D03*
%TO.N,unconnected-(GPIO1-GPIO_23-Pad16)*%
X143655000Y-88235000D03*
%TO.N,unconnected-(GPIO1-3.3V-Pad17)*%
X146195000Y-90775000D03*
%TO.N,unconnected-(GPIO1-GPIO_24-Pad18)*%
X146195000Y-88235000D03*
%TO.N,unconnected-(GPIO1-GPIO_10-Pad19)*%
X148735000Y-90775000D03*
%TO.N,unconnected-(GPIO1-GND-Pad20)*%
X148735000Y-88235000D03*
%TO.N,unconnected-(GPIO1-GPIO_9-Pad21)*%
X151275000Y-90775000D03*
%TO.N,unconnected-(GPIO1-GPIO_25-Pad22)*%
X151275000Y-88235000D03*
%TO.N,unconnected-(GPIO1-GPIO_11-Pad23)*%
X153815000Y-90775000D03*
%TO.N,unconnected-(GPIO1-GPIO_8-Pad24)*%
X153815000Y-88235000D03*
%TO.N,unconnected-(GPIO1-GND-Pad25)*%
X156355000Y-90775000D03*
%TO.N,unconnected-(GPIO1-GPIO_7-Pad26)*%
X156355000Y-88235000D03*
%TO.N,unconnected-(GPIO1-GPIO_0-Pad27)*%
X158895000Y-90775000D03*
%TO.N,unconnected-(GPIO1-GPIO_1-Pad28)*%
X158895000Y-88235000D03*
%TO.N,/GPIO_5*%
X161435000Y-90775000D03*
%TO.N,unconnected-(GPIO1-GND-Pad30)*%
X161435000Y-88235000D03*
%TO.N,/GPIO_6*%
X163975000Y-90775000D03*
%TO.N,/GPIO_12*%
X163975000Y-88235000D03*
%TO.N,unconnected-(GPIO1-GPIO_13-Pad33)*%
X166515000Y-90775000D03*
%TO.N,unconnected-(GPIO1-GND-Pad34)*%
X166515000Y-88235000D03*
%TO.N,unconnected-(GPIO1-GPIO_19-Pad35)*%
X169055000Y-90775000D03*
%TO.N,/GPIO_16*%
X169055000Y-88235000D03*
%TO.N,/GPIO_26*%
X171595000Y-90775000D03*
%TO.N,unconnected-(GPIO1-GPIO_20-Pad38)*%
X171595000Y-88235000D03*
%TO.N,unconnected-(GPIO1-GND-Pad39)*%
X174135000Y-90775000D03*
%TO.N,unconnected-(GPIO1-GPIO_21-Pad40)*%
X174135000Y-88235000D03*
%TD*%
D12*
%TO.N,GND*%
%TO.C,Q1*%
X139000000Y-109000000D03*
%TO.N,/CH2_CHG_GATE*%
X140270000Y-107730000D03*
%TO.N,/CH2_CHG_DRN*%
X141540000Y-109000000D03*
%TD*%
D13*
%TO.N,N/C*%
%TO.C,H1*%
X179000000Y-89500000D03*
%TD*%
D14*
%TO.N,/HV_CH2*%
%TO.C,R26*%
X198000000Y-130620000D03*
%TO.N,GND*%
X198000000Y-115380000D03*
%TD*%
D13*
%TO.N,N/C*%
%TO.C,H2*%
X121000000Y-89500000D03*
%TD*%
D15*
%TO.N,/CH1_DIS_DRN*%
%TO.C,OR3*%
X186525000Y-108952000D03*
%TO.N,/CH1_DIS_LED*%
X177635000Y-108952000D03*
%TO.N,/HV_CH1_DIS*%
X170904000Y-108952000D03*
%TO.N,GND*%
X193256000Y-108952000D03*
%TD*%
D16*
%TO.N,Net-(U1-VIN)*%
%TO.C,U1*%
X153540000Y-99712000D03*
%TO.N,GND*%
X153540000Y-102252000D03*
%TO.N,/GPIO_12_Boost*%
X153540000Y-104792000D03*
%TO.N,unconnected-(U1-Free-Pad4)*%
X153540000Y-107332000D03*
%TO.N,unconnected-(U1-VMON-Pad5)*%
X153540000Y-109872000D03*
%TO.N,unconnected-(U1-IMON-Pad6)*%
X153540000Y-112412000D03*
%TO.N,+5V*%
X153540000Y-114952000D03*
%TO.N,/HV_RAIL*%
X170050000Y-114952000D03*
%TO.N,GND*%
X170050000Y-99712000D03*
%TD*%
D13*
%TO.N,N/C*%
%TO.C,H3*%
X121000000Y-138500000D03*
%TD*%
D15*
%TO.N,/CH2_DIS_DRN*%
%TO.C,OR4*%
X186525000Y-129952000D03*
%TO.N,/CH2_DIS_LED*%
X177635000Y-129952000D03*
%TO.N,/HV_CH2_DIS*%
X170904000Y-129952000D03*
%TO.N,GND*%
X193256000Y-129952000D03*
%TD*%
D14*
%TO.N,/HV_CH1*%
%TO.C,R1*%
X195000000Y-110620000D03*
%TO.N,/HV_CH1_DIS*%
X195000000Y-95380000D03*
%TD*%
%TO.N,/HV_CH1*%
%TO.C,R25*%
X198000000Y-110620000D03*
%TO.N,GND*%
X198000000Y-95380000D03*
%TD*%
D15*
%TO.N,/CH2_CHG_DRN*%
%TO.C,OR2*%
X186525000Y-119952000D03*
%TO.N,/CH2_CHG_LED*%
X177635000Y-119952000D03*
%TO.N,/HV_RAIL*%
X170904000Y-119952000D03*
%TO.N,/HV_CH2*%
X193256000Y-119952000D03*
%TD*%
D12*
%TO.N,GND*%
%TO.C,Q2*%
X139000000Y-119000000D03*
%TO.N,/CH1_DIS_GATE*%
X140270000Y-117730000D03*
%TO.N,/CH1_DIS_DRN*%
X141540000Y-119000000D03*
%TD*%
D17*
%TO.N,GND*%
%TO.C,J3*%
X160000000Y-138000000D03*
D18*
%TO.N,/HV_CH1*%
X170160000Y-138000000D03*
%TD*%
D14*
%TO.N,/HV_CH2*%
%TO.C,R2*%
X195000000Y-130620000D03*
%TO.N,/HV_CH2_DIS*%
X195000000Y-115380000D03*
%TD*%
D15*
%TO.N,/CH1_CHG_DRN*%
%TO.C,OR1*%
X186525000Y-97952000D03*
%TO.N,Net-(OR1-LED+)*%
X177635000Y-97952000D03*
%TO.N,/HV_RAIL*%
X170904000Y-97952000D03*
%TO.N,/HV_CH1*%
X193256000Y-97952000D03*
%TD*%
D12*
%TO.N,GND*%
%TO.C,Q4*%
X139000000Y-129000000D03*
%TO.N,/CH2_DIS_GATE*%
X140270000Y-127730000D03*
%TO.N,/CH2_DIS_DRN*%
X141540000Y-129000000D03*
%TD*%
D17*
%TO.N,GND*%
%TO.C,J4*%
X186000000Y-138000000D03*
D18*
%TO.N,/HV_CH2*%
X196160000Y-138000000D03*
%TD*%
D12*
%TO.N,GND*%
%TO.C,Q3*%
X139000000Y-99000000D03*
%TO.N,/CH1_CHG_GATE*%
X140270000Y-97730000D03*
%TO.N,/CH1_CHG_DRN*%
X141540000Y-99000000D03*
%TD*%
D13*
%TO.N,N/C*%
%TO.C,H4*%
X179000000Y-138500000D03*
%TD*%
D19*
%TO.N,+5V*%
X151971500Y-102906100D03*
X129838100Y-131951100D03*
X130621000Y-114566900D03*
X151745900Y-105725800D03*
D20*
%TO.N,/GPIO_5*%
X130621000Y-99210400D03*
%TO.N,/GPIO_6*%
X134251900Y-116957800D03*
X157063000Y-116957800D03*
%TO.N,/GPIO_12*%
X121807000Y-125063400D03*
X162939000Y-122873600D03*
%TO.N,/GPIO_16*%
X162939000Y-125659600D03*
X131733300Y-129049600D03*
%TO.N,/GPIO_26*%
X134485400Y-108704300D03*
X134461000Y-96485400D03*
%TO.N,/CH1_DIS_DRN*%
X142860500Y-107942000D03*
%TO.N,/CH1_DIS_LED*%
X146127900Y-116008500D03*
X148249000Y-110231100D03*
%TO.N,Net-(U1-VIN)*%
X127029000Y-113554900D03*
X151187000Y-113016100D03*
%TO.N,/GPIO_12_Boost*%
X127683000Y-105126200D03*
X124745000Y-128529900D03*
%TO.N,/CH2_CHG_LED*%
X174691000Y-105073400D03*
%TO.N,Net-(OR1-LED+)*%
X146127900Y-96070400D03*
%TD*%
%TO.N,+5V*%
D21*
X124423300Y-89615600D02*
X124423300Y-96149600D01*
X151971500Y-105500200D02*
X151971500Y-102906100D01*
X124423300Y-96149600D02*
X130621000Y-102347300D01*
X130621000Y-131168200D02*
X130621000Y-114566900D01*
X129838100Y-131951100D02*
X130621000Y-131168200D01*
X125875000Y-88235000D02*
X125803900Y-88235000D01*
X151745900Y-105725800D02*
X151971500Y-105500200D01*
X130621000Y-102347300D02*
X130621000Y-114566900D01*
X152100700Y-113512700D02*
X153540000Y-114952000D01*
X152100700Y-106080600D02*
X152100700Y-113512700D01*
X151745900Y-105725800D02*
X152100700Y-106080600D01*
X125803900Y-88235000D02*
X124423300Y-89615600D01*
%TO.N,/GPIO_6*%
D22*
X163975000Y-90775000D02*
X163975000Y-110045800D01*
X163975000Y-110045800D02*
X157063000Y-116957800D01*
%TO.N,/GPIO_16*%
X165647600Y-114312500D02*
X167785000Y-112175100D01*
X165647600Y-122951000D02*
X165647600Y-114312500D01*
X162939000Y-125659600D02*
X165647600Y-122951000D01*
X167785000Y-112175100D02*
X167785000Y-89505000D01*
X167785000Y-89505000D02*
X169055000Y-88235000D01*
%TO.N,/GPIO_26*%
X134461000Y-108679900D02*
X134461000Y-96485400D01*
X134485400Y-108704300D02*
X134461000Y-108679900D01*
%TO.N,/CH1_DIS_DRN*%
D23*
X142860500Y-107942000D02*
X142860500Y-117679500D01*
X142860500Y-117679500D02*
X141540000Y-119000000D01*
%TO.N,/CH1_DIS_LED*%
X148249000Y-113887400D02*
X146127900Y-116008500D01*
X148249000Y-110231100D02*
X148249000Y-113887400D01*
%TO.N,Net-(U1-VIN)*%
X153540000Y-99712000D02*
X150994200Y-102257800D01*
X150994200Y-102257800D02*
X150994200Y-112823300D01*
X150994200Y-112823300D02*
X151187000Y-113016100D01*
%TO.N,/GPIO_12_Boost*%
D22*
X127707700Y-105150900D02*
X127683000Y-105126200D01*
X127707700Y-125567200D02*
X127707700Y-105150900D01*
X124745000Y-128529900D02*
X127707700Y-125567200D01*
%TO.N,/CH2_CHG_LED*%
D23*
X174691000Y-105126200D02*
X174691000Y-105073400D01*
X174691000Y-117008000D02*
X177635000Y-119952000D01*
X174691000Y-105126200D02*
X174691000Y-117008000D01*
%TD*%
M02*
