%TF.GenerationSoftware,KiCad,Pcbnew,10.0.1*%
%TF.CreationDate,2026-06-07T15:52:36-04:00*%
%TF.ProjectId,HV Pi Hat,48562050-6920-4486-9174-2e6b69636164,rev?*%
%TF.SameCoordinates,Original*%
%TF.FileFunction,Legend,Top*%
%TF.FilePolarity,Positive*%
%FSLAX46Y46*%
G04 Gerber Fmt 4.6, Leading zero omitted, Abs format (unit mm)*
G04 Created by KiCad (PCBNEW 10.0.1) date 2026-06-07 15:52:36*
%MOMM*%
%LPD*%
G01*
G04 APERTURE LIST*
%ADD10C,0.150000*%
%ADD11C,0.100000*%
%ADD12C,0.120000*%
%ADD13C,0.152400*%
%ADD14C,0.127000*%
G04 APERTURE END LIST*
D10*
X122997438Y-90981190D02*
X122949819Y-91076428D01*
X122949819Y-91076428D02*
X122949819Y-91219285D01*
X122949819Y-91219285D02*
X122997438Y-91362142D01*
X122997438Y-91362142D02*
X123092676Y-91457380D01*
X123092676Y-91457380D02*
X123187914Y-91504999D01*
X123187914Y-91504999D02*
X123378390Y-91552618D01*
X123378390Y-91552618D02*
X123521247Y-91552618D01*
X123521247Y-91552618D02*
X123711723Y-91504999D01*
X123711723Y-91504999D02*
X123806961Y-91457380D01*
X123806961Y-91457380D02*
X123902200Y-91362142D01*
X123902200Y-91362142D02*
X123949819Y-91219285D01*
X123949819Y-91219285D02*
X123949819Y-91124047D01*
X123949819Y-91124047D02*
X123902200Y-90981190D01*
X123902200Y-90981190D02*
X123854580Y-90933571D01*
X123854580Y-90933571D02*
X123521247Y-90933571D01*
X123521247Y-90933571D02*
X123521247Y-91124047D01*
X123949819Y-90504999D02*
X122949819Y-90504999D01*
X122949819Y-90504999D02*
X122949819Y-90124047D01*
X122949819Y-90124047D02*
X122997438Y-90028809D01*
X122997438Y-90028809D02*
X123045057Y-89981190D01*
X123045057Y-89981190D02*
X123140295Y-89933571D01*
X123140295Y-89933571D02*
X123283152Y-89933571D01*
X123283152Y-89933571D02*
X123378390Y-89981190D01*
X123378390Y-89981190D02*
X123426009Y-90028809D01*
X123426009Y-90028809D02*
X123473628Y-90124047D01*
X123473628Y-90124047D02*
X123473628Y-90504999D01*
X123949819Y-89504999D02*
X122949819Y-89504999D01*
X122949819Y-88838333D02*
X122949819Y-88647857D01*
X122949819Y-88647857D02*
X122997438Y-88552619D01*
X122997438Y-88552619D02*
X123092676Y-88457381D01*
X123092676Y-88457381D02*
X123283152Y-88409762D01*
X123283152Y-88409762D02*
X123616485Y-88409762D01*
X123616485Y-88409762D02*
X123806961Y-88457381D01*
X123806961Y-88457381D02*
X123902200Y-88552619D01*
X123902200Y-88552619D02*
X123949819Y-88647857D01*
X123949819Y-88647857D02*
X123949819Y-88838333D01*
X123949819Y-88838333D02*
X123902200Y-88933571D01*
X123902200Y-88933571D02*
X123806961Y-89028809D01*
X123806961Y-89028809D02*
X123616485Y-89076428D01*
X123616485Y-89076428D02*
X123283152Y-89076428D01*
X123283152Y-89076428D02*
X123092676Y-89028809D01*
X123092676Y-89028809D02*
X122997438Y-88933571D01*
X122997438Y-88933571D02*
X122949819Y-88838333D01*
X123949819Y-87457381D02*
X123949819Y-88028809D01*
X123949819Y-87743095D02*
X122949819Y-87743095D01*
X122949819Y-87743095D02*
X123092676Y-87838333D01*
X123092676Y-87838333D02*
X123187914Y-87933571D01*
X123187914Y-87933571D02*
X123235533Y-88028809D01*
X148024819Y-108738094D02*
X147024819Y-108738094D01*
X147024819Y-108738094D02*
X147024819Y-108499999D01*
X147024819Y-108499999D02*
X147072438Y-108357142D01*
X147072438Y-108357142D02*
X147167676Y-108261904D01*
X147167676Y-108261904D02*
X147262914Y-108214285D01*
X147262914Y-108214285D02*
X147453390Y-108166666D01*
X147453390Y-108166666D02*
X147596247Y-108166666D01*
X147596247Y-108166666D02*
X147786723Y-108214285D01*
X147786723Y-108214285D02*
X147881961Y-108261904D01*
X147881961Y-108261904D02*
X147977200Y-108357142D01*
X147977200Y-108357142D02*
X148024819Y-108499999D01*
X148024819Y-108499999D02*
X148024819Y-108738094D01*
X147120057Y-107785713D02*
X147072438Y-107738094D01*
X147072438Y-107738094D02*
X147024819Y-107642856D01*
X147024819Y-107642856D02*
X147024819Y-107404761D01*
X147024819Y-107404761D02*
X147072438Y-107309523D01*
X147072438Y-107309523D02*
X147120057Y-107261904D01*
X147120057Y-107261904D02*
X147215295Y-107214285D01*
X147215295Y-107214285D02*
X147310533Y-107214285D01*
X147310533Y-107214285D02*
X147453390Y-107261904D01*
X147453390Y-107261904D02*
X148024819Y-107833332D01*
X148024819Y-107833332D02*
X148024819Y-107214285D01*
X137944761Y-111907057D02*
X137849523Y-111859438D01*
X137849523Y-111859438D02*
X137754285Y-111764200D01*
X137754285Y-111764200D02*
X137611428Y-111621342D01*
X137611428Y-111621342D02*
X137516190Y-111573723D01*
X137516190Y-111573723D02*
X137420952Y-111573723D01*
X137468571Y-111811819D02*
X137373333Y-111764200D01*
X137373333Y-111764200D02*
X137278095Y-111668961D01*
X137278095Y-111668961D02*
X137230476Y-111478485D01*
X137230476Y-111478485D02*
X137230476Y-111145152D01*
X137230476Y-111145152D02*
X137278095Y-110954676D01*
X137278095Y-110954676D02*
X137373333Y-110859438D01*
X137373333Y-110859438D02*
X137468571Y-110811819D01*
X137468571Y-110811819D02*
X137659047Y-110811819D01*
X137659047Y-110811819D02*
X137754285Y-110859438D01*
X137754285Y-110859438D02*
X137849523Y-110954676D01*
X137849523Y-110954676D02*
X137897142Y-111145152D01*
X137897142Y-111145152D02*
X137897142Y-111478485D01*
X137897142Y-111478485D02*
X137849523Y-111668961D01*
X137849523Y-111668961D02*
X137754285Y-111764200D01*
X137754285Y-111764200D02*
X137659047Y-111811819D01*
X137659047Y-111811819D02*
X137468571Y-111811819D01*
X138849523Y-111811819D02*
X138278095Y-111811819D01*
X138563809Y-111811819D02*
X138563809Y-110811819D01*
X138563809Y-110811819D02*
X138468571Y-110954676D01*
X138468571Y-110954676D02*
X138373333Y-111049914D01*
X138373333Y-111049914D02*
X138278095Y-111097533D01*
X129833333Y-114929580D02*
X129785714Y-114977200D01*
X129785714Y-114977200D02*
X129642857Y-115024819D01*
X129642857Y-115024819D02*
X129547619Y-115024819D01*
X129547619Y-115024819D02*
X129404762Y-114977200D01*
X129404762Y-114977200D02*
X129309524Y-114881961D01*
X129309524Y-114881961D02*
X129261905Y-114786723D01*
X129261905Y-114786723D02*
X129214286Y-114596247D01*
X129214286Y-114596247D02*
X129214286Y-114453390D01*
X129214286Y-114453390D02*
X129261905Y-114262914D01*
X129261905Y-114262914D02*
X129309524Y-114167676D01*
X129309524Y-114167676D02*
X129404762Y-114072438D01*
X129404762Y-114072438D02*
X129547619Y-114024819D01*
X129547619Y-114024819D02*
X129642857Y-114024819D01*
X129642857Y-114024819D02*
X129785714Y-114072438D01*
X129785714Y-114072438D02*
X129833333Y-114120057D01*
X130690476Y-114358152D02*
X130690476Y-115024819D01*
X130452381Y-113977200D02*
X130214286Y-114691485D01*
X130214286Y-114691485D02*
X130833333Y-114691485D01*
X200954819Y-131642857D02*
X200478628Y-131976190D01*
X200954819Y-132214285D02*
X199954819Y-132214285D01*
X199954819Y-132214285D02*
X199954819Y-131833333D01*
X199954819Y-131833333D02*
X200002438Y-131738095D01*
X200002438Y-131738095D02*
X200050057Y-131690476D01*
X200050057Y-131690476D02*
X200145295Y-131642857D01*
X200145295Y-131642857D02*
X200288152Y-131642857D01*
X200288152Y-131642857D02*
X200383390Y-131690476D01*
X200383390Y-131690476D02*
X200431009Y-131738095D01*
X200431009Y-131738095D02*
X200478628Y-131833333D01*
X200478628Y-131833333D02*
X200478628Y-132214285D01*
X200050057Y-131261904D02*
X200002438Y-131214285D01*
X200002438Y-131214285D02*
X199954819Y-131119047D01*
X199954819Y-131119047D02*
X199954819Y-130880952D01*
X199954819Y-130880952D02*
X200002438Y-130785714D01*
X200002438Y-130785714D02*
X200050057Y-130738095D01*
X200050057Y-130738095D02*
X200145295Y-130690476D01*
X200145295Y-130690476D02*
X200240533Y-130690476D01*
X200240533Y-130690476D02*
X200383390Y-130738095D01*
X200383390Y-130738095D02*
X200954819Y-131309523D01*
X200954819Y-131309523D02*
X200954819Y-130690476D01*
X199954819Y-129833333D02*
X199954819Y-130023809D01*
X199954819Y-130023809D02*
X200002438Y-130119047D01*
X200002438Y-130119047D02*
X200050057Y-130166666D01*
X200050057Y-130166666D02*
X200192914Y-130261904D01*
X200192914Y-130261904D02*
X200383390Y-130309523D01*
X200383390Y-130309523D02*
X200764342Y-130309523D01*
X200764342Y-130309523D02*
X200859580Y-130261904D01*
X200859580Y-130261904D02*
X200907200Y-130214285D01*
X200907200Y-130214285D02*
X200954819Y-130119047D01*
X200954819Y-130119047D02*
X200954819Y-129928571D01*
X200954819Y-129928571D02*
X200907200Y-129833333D01*
X200907200Y-129833333D02*
X200859580Y-129785714D01*
X200859580Y-129785714D02*
X200764342Y-129738095D01*
X200764342Y-129738095D02*
X200526247Y-129738095D01*
X200526247Y-129738095D02*
X200431009Y-129785714D01*
X200431009Y-129785714D02*
X200383390Y-129833333D01*
X200383390Y-129833333D02*
X200335771Y-129928571D01*
X200335771Y-129928571D02*
X200335771Y-130119047D01*
X200335771Y-130119047D02*
X200383390Y-130214285D01*
X200383390Y-130214285D02*
X200431009Y-130261904D01*
X200431009Y-130261904D02*
X200526247Y-130309523D01*
D11*
X179008571Y-112444038D02*
X179199047Y-112444038D01*
X179199047Y-112444038D02*
X179294285Y-112491657D01*
X179294285Y-112491657D02*
X179389523Y-112586895D01*
X179389523Y-112586895D02*
X179437142Y-112777371D01*
X179437142Y-112777371D02*
X179437142Y-113110704D01*
X179437142Y-113110704D02*
X179389523Y-113301180D01*
X179389523Y-113301180D02*
X179294285Y-113396419D01*
X179294285Y-113396419D02*
X179199047Y-113444038D01*
X179199047Y-113444038D02*
X179008571Y-113444038D01*
X179008571Y-113444038D02*
X178913333Y-113396419D01*
X178913333Y-113396419D02*
X178818095Y-113301180D01*
X178818095Y-113301180D02*
X178770476Y-113110704D01*
X178770476Y-113110704D02*
X178770476Y-112777371D01*
X178770476Y-112777371D02*
X178818095Y-112586895D01*
X178818095Y-112586895D02*
X178913333Y-112491657D01*
X178913333Y-112491657D02*
X179008571Y-112444038D01*
X180437142Y-113444038D02*
X180103809Y-112967847D01*
X179865714Y-113444038D02*
X179865714Y-112444038D01*
X179865714Y-112444038D02*
X180246666Y-112444038D01*
X180246666Y-112444038D02*
X180341904Y-112491657D01*
X180341904Y-112491657D02*
X180389523Y-112539276D01*
X180389523Y-112539276D02*
X180437142Y-112634514D01*
X180437142Y-112634514D02*
X180437142Y-112777371D01*
X180437142Y-112777371D02*
X180389523Y-112872609D01*
X180389523Y-112872609D02*
X180341904Y-112920228D01*
X180341904Y-112920228D02*
X180246666Y-112967847D01*
X180246666Y-112967847D02*
X179865714Y-112967847D01*
X180770476Y-112444038D02*
X181389523Y-112444038D01*
X181389523Y-112444038D02*
X181056190Y-112824990D01*
X181056190Y-112824990D02*
X181199047Y-112824990D01*
X181199047Y-112824990D02*
X181294285Y-112872609D01*
X181294285Y-112872609D02*
X181341904Y-112920228D01*
X181341904Y-112920228D02*
X181389523Y-113015466D01*
X181389523Y-113015466D02*
X181389523Y-113253561D01*
X181389523Y-113253561D02*
X181341904Y-113348799D01*
X181341904Y-113348799D02*
X181294285Y-113396419D01*
X181294285Y-113396419D02*
X181199047Y-113444038D01*
X181199047Y-113444038D02*
X180913333Y-113444038D01*
X180913333Y-113444038D02*
X180818095Y-113396419D01*
X180818095Y-113396419D02*
X180770476Y-113348799D01*
X151788095Y-118909419D02*
X151788095Y-119718942D01*
X151788095Y-119718942D02*
X151835714Y-119814180D01*
X151835714Y-119814180D02*
X151883333Y-119861800D01*
X151883333Y-119861800D02*
X151978571Y-119909419D01*
X151978571Y-119909419D02*
X152169047Y-119909419D01*
X152169047Y-119909419D02*
X152264285Y-119861800D01*
X152264285Y-119861800D02*
X152311904Y-119814180D01*
X152311904Y-119814180D02*
X152359523Y-119718942D01*
X152359523Y-119718942D02*
X152359523Y-118909419D01*
X153359523Y-119909419D02*
X152788095Y-119909419D01*
X153073809Y-119909419D02*
X153073809Y-118909419D01*
X153073809Y-118909419D02*
X152978571Y-119052276D01*
X152978571Y-119052276D02*
X152883333Y-119147514D01*
X152883333Y-119147514D02*
X152788095Y-119195133D01*
D10*
X121024819Y-131166666D02*
X120548628Y-131499999D01*
X121024819Y-131738094D02*
X120024819Y-131738094D01*
X120024819Y-131738094D02*
X120024819Y-131357142D01*
X120024819Y-131357142D02*
X120072438Y-131261904D01*
X120072438Y-131261904D02*
X120120057Y-131214285D01*
X120120057Y-131214285D02*
X120215295Y-131166666D01*
X120215295Y-131166666D02*
X120358152Y-131166666D01*
X120358152Y-131166666D02*
X120453390Y-131214285D01*
X120453390Y-131214285D02*
X120501009Y-131261904D01*
X120501009Y-131261904D02*
X120548628Y-131357142D01*
X120548628Y-131357142D02*
X120548628Y-131738094D01*
X120453390Y-130595237D02*
X120405771Y-130690475D01*
X120405771Y-130690475D02*
X120358152Y-130738094D01*
X120358152Y-130738094D02*
X120262914Y-130785713D01*
X120262914Y-130785713D02*
X120215295Y-130785713D01*
X120215295Y-130785713D02*
X120120057Y-130738094D01*
X120120057Y-130738094D02*
X120072438Y-130690475D01*
X120072438Y-130690475D02*
X120024819Y-130595237D01*
X120024819Y-130595237D02*
X120024819Y-130404761D01*
X120024819Y-130404761D02*
X120072438Y-130309523D01*
X120072438Y-130309523D02*
X120120057Y-130261904D01*
X120120057Y-130261904D02*
X120215295Y-130214285D01*
X120215295Y-130214285D02*
X120262914Y-130214285D01*
X120262914Y-130214285D02*
X120358152Y-130261904D01*
X120358152Y-130261904D02*
X120405771Y-130309523D01*
X120405771Y-130309523D02*
X120453390Y-130404761D01*
X120453390Y-130404761D02*
X120453390Y-130595237D01*
X120453390Y-130595237D02*
X120501009Y-130690475D01*
X120501009Y-130690475D02*
X120548628Y-130738094D01*
X120548628Y-130738094D02*
X120643866Y-130785713D01*
X120643866Y-130785713D02*
X120834342Y-130785713D01*
X120834342Y-130785713D02*
X120929580Y-130738094D01*
X120929580Y-130738094D02*
X120977200Y-130690475D01*
X120977200Y-130690475D02*
X121024819Y-130595237D01*
X121024819Y-130595237D02*
X121024819Y-130404761D01*
X121024819Y-130404761D02*
X120977200Y-130309523D01*
X120977200Y-130309523D02*
X120929580Y-130261904D01*
X120929580Y-130261904D02*
X120834342Y-130214285D01*
X120834342Y-130214285D02*
X120643866Y-130214285D01*
X120643866Y-130214285D02*
X120548628Y-130261904D01*
X120548628Y-130261904D02*
X120501009Y-130309523D01*
X120501009Y-130309523D02*
X120453390Y-130404761D01*
X129929580Y-131166666D02*
X129977200Y-131214285D01*
X129977200Y-131214285D02*
X130024819Y-131357142D01*
X130024819Y-131357142D02*
X130024819Y-131452380D01*
X130024819Y-131452380D02*
X129977200Y-131595237D01*
X129977200Y-131595237D02*
X129881961Y-131690475D01*
X129881961Y-131690475D02*
X129786723Y-131738094D01*
X129786723Y-131738094D02*
X129596247Y-131785713D01*
X129596247Y-131785713D02*
X129453390Y-131785713D01*
X129453390Y-131785713D02*
X129262914Y-131738094D01*
X129262914Y-131738094D02*
X129167676Y-131690475D01*
X129167676Y-131690475D02*
X129072438Y-131595237D01*
X129072438Y-131595237D02*
X129024819Y-131452380D01*
X129024819Y-131452380D02*
X129024819Y-131357142D01*
X129024819Y-131357142D02*
X129072438Y-131214285D01*
X129072438Y-131214285D02*
X129120057Y-131166666D01*
X129024819Y-130261904D02*
X129024819Y-130738094D01*
X129024819Y-130738094D02*
X129501009Y-130785713D01*
X129501009Y-130785713D02*
X129453390Y-130738094D01*
X129453390Y-130738094D02*
X129405771Y-130642856D01*
X129405771Y-130642856D02*
X129405771Y-130404761D01*
X129405771Y-130404761D02*
X129453390Y-130309523D01*
X129453390Y-130309523D02*
X129501009Y-130261904D01*
X129501009Y-130261904D02*
X129596247Y-130214285D01*
X129596247Y-130214285D02*
X129834342Y-130214285D01*
X129834342Y-130214285D02*
X129929580Y-130261904D01*
X129929580Y-130261904D02*
X129977200Y-130309523D01*
X129977200Y-130309523D02*
X130024819Y-130404761D01*
X130024819Y-130404761D02*
X130024819Y-130642856D01*
X130024819Y-130642856D02*
X129977200Y-130738094D01*
X129977200Y-130738094D02*
X129929580Y-130785713D01*
D11*
X179008571Y-133444038D02*
X179199047Y-133444038D01*
X179199047Y-133444038D02*
X179294285Y-133491657D01*
X179294285Y-133491657D02*
X179389523Y-133586895D01*
X179389523Y-133586895D02*
X179437142Y-133777371D01*
X179437142Y-133777371D02*
X179437142Y-134110704D01*
X179437142Y-134110704D02*
X179389523Y-134301180D01*
X179389523Y-134301180D02*
X179294285Y-134396419D01*
X179294285Y-134396419D02*
X179199047Y-134444038D01*
X179199047Y-134444038D02*
X179008571Y-134444038D01*
X179008571Y-134444038D02*
X178913333Y-134396419D01*
X178913333Y-134396419D02*
X178818095Y-134301180D01*
X178818095Y-134301180D02*
X178770476Y-134110704D01*
X178770476Y-134110704D02*
X178770476Y-133777371D01*
X178770476Y-133777371D02*
X178818095Y-133586895D01*
X178818095Y-133586895D02*
X178913333Y-133491657D01*
X178913333Y-133491657D02*
X179008571Y-133444038D01*
X180437142Y-134444038D02*
X180103809Y-133967847D01*
X179865714Y-134444038D02*
X179865714Y-133444038D01*
X179865714Y-133444038D02*
X180246666Y-133444038D01*
X180246666Y-133444038D02*
X180341904Y-133491657D01*
X180341904Y-133491657D02*
X180389523Y-133539276D01*
X180389523Y-133539276D02*
X180437142Y-133634514D01*
X180437142Y-133634514D02*
X180437142Y-133777371D01*
X180437142Y-133777371D02*
X180389523Y-133872609D01*
X180389523Y-133872609D02*
X180341904Y-133920228D01*
X180341904Y-133920228D02*
X180246666Y-133967847D01*
X180246666Y-133967847D02*
X179865714Y-133967847D01*
X181294285Y-133777371D02*
X181294285Y-134444038D01*
X181056190Y-133396419D02*
X180818095Y-134110704D01*
X180818095Y-134110704D02*
X181437142Y-134110704D01*
D10*
X126024819Y-135642857D02*
X125548628Y-135976190D01*
X126024819Y-136214285D02*
X125024819Y-136214285D01*
X125024819Y-136214285D02*
X125024819Y-135833333D01*
X125024819Y-135833333D02*
X125072438Y-135738095D01*
X125072438Y-135738095D02*
X125120057Y-135690476D01*
X125120057Y-135690476D02*
X125215295Y-135642857D01*
X125215295Y-135642857D02*
X125358152Y-135642857D01*
X125358152Y-135642857D02*
X125453390Y-135690476D01*
X125453390Y-135690476D02*
X125501009Y-135738095D01*
X125501009Y-135738095D02*
X125548628Y-135833333D01*
X125548628Y-135833333D02*
X125548628Y-136214285D01*
X126024819Y-134690476D02*
X126024819Y-135261904D01*
X126024819Y-134976190D02*
X125024819Y-134976190D01*
X125024819Y-134976190D02*
X125167676Y-135071428D01*
X125167676Y-135071428D02*
X125262914Y-135166666D01*
X125262914Y-135166666D02*
X125310533Y-135261904D01*
X125024819Y-134071428D02*
X125024819Y-133976190D01*
X125024819Y-133976190D02*
X125072438Y-133880952D01*
X125072438Y-133880952D02*
X125120057Y-133833333D01*
X125120057Y-133833333D02*
X125215295Y-133785714D01*
X125215295Y-133785714D02*
X125405771Y-133738095D01*
X125405771Y-133738095D02*
X125643866Y-133738095D01*
X125643866Y-133738095D02*
X125834342Y-133785714D01*
X125834342Y-133785714D02*
X125929580Y-133833333D01*
X125929580Y-133833333D02*
X125977200Y-133880952D01*
X125977200Y-133880952D02*
X126024819Y-133976190D01*
X126024819Y-133976190D02*
X126024819Y-134071428D01*
X126024819Y-134071428D02*
X125977200Y-134166666D01*
X125977200Y-134166666D02*
X125929580Y-134214285D01*
X125929580Y-134214285D02*
X125834342Y-134261904D01*
X125834342Y-134261904D02*
X125643866Y-134309523D01*
X125643866Y-134309523D02*
X125405771Y-134309523D01*
X125405771Y-134309523D02*
X125215295Y-134261904D01*
X125215295Y-134261904D02*
X125120057Y-134214285D01*
X125120057Y-134214285D02*
X125072438Y-134166666D01*
X125072438Y-134166666D02*
X125024819Y-134071428D01*
X144024819Y-107642857D02*
X143548628Y-107976190D01*
X144024819Y-108214285D02*
X143024819Y-108214285D01*
X143024819Y-108214285D02*
X143024819Y-107833333D01*
X143024819Y-107833333D02*
X143072438Y-107738095D01*
X143072438Y-107738095D02*
X143120057Y-107690476D01*
X143120057Y-107690476D02*
X143215295Y-107642857D01*
X143215295Y-107642857D02*
X143358152Y-107642857D01*
X143358152Y-107642857D02*
X143453390Y-107690476D01*
X143453390Y-107690476D02*
X143501009Y-107738095D01*
X143501009Y-107738095D02*
X143548628Y-107833333D01*
X143548628Y-107833333D02*
X143548628Y-108214285D01*
X144024819Y-106690476D02*
X144024819Y-107261904D01*
X144024819Y-106976190D02*
X143024819Y-106976190D01*
X143024819Y-106976190D02*
X143167676Y-107071428D01*
X143167676Y-107071428D02*
X143262914Y-107166666D01*
X143262914Y-107166666D02*
X143310533Y-107261904D01*
X143358152Y-105833333D02*
X144024819Y-105833333D01*
X142977200Y-106071428D02*
X143691485Y-106309523D01*
X143691485Y-106309523D02*
X143691485Y-105690476D01*
X197954819Y-111166666D02*
X197478628Y-111499999D01*
X197954819Y-111738094D02*
X196954819Y-111738094D01*
X196954819Y-111738094D02*
X196954819Y-111357142D01*
X196954819Y-111357142D02*
X197002438Y-111261904D01*
X197002438Y-111261904D02*
X197050057Y-111214285D01*
X197050057Y-111214285D02*
X197145295Y-111166666D01*
X197145295Y-111166666D02*
X197288152Y-111166666D01*
X197288152Y-111166666D02*
X197383390Y-111214285D01*
X197383390Y-111214285D02*
X197431009Y-111261904D01*
X197431009Y-111261904D02*
X197478628Y-111357142D01*
X197478628Y-111357142D02*
X197478628Y-111738094D01*
X197954819Y-110214285D02*
X197954819Y-110785713D01*
X197954819Y-110499999D02*
X196954819Y-110499999D01*
X196954819Y-110499999D02*
X197097676Y-110595237D01*
X197097676Y-110595237D02*
X197192914Y-110690475D01*
X197192914Y-110690475D02*
X197240533Y-110785713D01*
X200954819Y-111642857D02*
X200478628Y-111976190D01*
X200954819Y-112214285D02*
X199954819Y-112214285D01*
X199954819Y-112214285D02*
X199954819Y-111833333D01*
X199954819Y-111833333D02*
X200002438Y-111738095D01*
X200002438Y-111738095D02*
X200050057Y-111690476D01*
X200050057Y-111690476D02*
X200145295Y-111642857D01*
X200145295Y-111642857D02*
X200288152Y-111642857D01*
X200288152Y-111642857D02*
X200383390Y-111690476D01*
X200383390Y-111690476D02*
X200431009Y-111738095D01*
X200431009Y-111738095D02*
X200478628Y-111833333D01*
X200478628Y-111833333D02*
X200478628Y-112214285D01*
X200050057Y-111261904D02*
X200002438Y-111214285D01*
X200002438Y-111214285D02*
X199954819Y-111119047D01*
X199954819Y-111119047D02*
X199954819Y-110880952D01*
X199954819Y-110880952D02*
X200002438Y-110785714D01*
X200002438Y-110785714D02*
X200050057Y-110738095D01*
X200050057Y-110738095D02*
X200145295Y-110690476D01*
X200145295Y-110690476D02*
X200240533Y-110690476D01*
X200240533Y-110690476D02*
X200383390Y-110738095D01*
X200383390Y-110738095D02*
X200954819Y-111309523D01*
X200954819Y-111309523D02*
X200954819Y-110690476D01*
X199954819Y-109785714D02*
X199954819Y-110261904D01*
X199954819Y-110261904D02*
X200431009Y-110309523D01*
X200431009Y-110309523D02*
X200383390Y-110261904D01*
X200383390Y-110261904D02*
X200335771Y-110166666D01*
X200335771Y-110166666D02*
X200335771Y-109928571D01*
X200335771Y-109928571D02*
X200383390Y-109833333D01*
X200383390Y-109833333D02*
X200431009Y-109785714D01*
X200431009Y-109785714D02*
X200526247Y-109738095D01*
X200526247Y-109738095D02*
X200764342Y-109738095D01*
X200764342Y-109738095D02*
X200859580Y-109785714D01*
X200859580Y-109785714D02*
X200907200Y-109833333D01*
X200907200Y-109833333D02*
X200954819Y-109928571D01*
X200954819Y-109928571D02*
X200954819Y-110166666D01*
X200954819Y-110166666D02*
X200907200Y-110261904D01*
X200907200Y-110261904D02*
X200859580Y-110309523D01*
X144024819Y-97166666D02*
X143548628Y-97499999D01*
X144024819Y-97738094D02*
X143024819Y-97738094D01*
X143024819Y-97738094D02*
X143024819Y-97357142D01*
X143024819Y-97357142D02*
X143072438Y-97261904D01*
X143072438Y-97261904D02*
X143120057Y-97214285D01*
X143120057Y-97214285D02*
X143215295Y-97166666D01*
X143215295Y-97166666D02*
X143358152Y-97166666D01*
X143358152Y-97166666D02*
X143453390Y-97214285D01*
X143453390Y-97214285D02*
X143501009Y-97261904D01*
X143501009Y-97261904D02*
X143548628Y-97357142D01*
X143548628Y-97357142D02*
X143548628Y-97738094D01*
X143024819Y-96309523D02*
X143024819Y-96499999D01*
X143024819Y-96499999D02*
X143072438Y-96595237D01*
X143072438Y-96595237D02*
X143120057Y-96642856D01*
X143120057Y-96642856D02*
X143262914Y-96738094D01*
X143262914Y-96738094D02*
X143453390Y-96785713D01*
X143453390Y-96785713D02*
X143834342Y-96785713D01*
X143834342Y-96785713D02*
X143929580Y-96738094D01*
X143929580Y-96738094D02*
X143977200Y-96690475D01*
X143977200Y-96690475D02*
X144024819Y-96595237D01*
X144024819Y-96595237D02*
X144024819Y-96404761D01*
X144024819Y-96404761D02*
X143977200Y-96309523D01*
X143977200Y-96309523D02*
X143929580Y-96261904D01*
X143929580Y-96261904D02*
X143834342Y-96214285D01*
X143834342Y-96214285D02*
X143596247Y-96214285D01*
X143596247Y-96214285D02*
X143501009Y-96261904D01*
X143501009Y-96261904D02*
X143453390Y-96309523D01*
X143453390Y-96309523D02*
X143405771Y-96404761D01*
X143405771Y-96404761D02*
X143405771Y-96595237D01*
X143405771Y-96595237D02*
X143453390Y-96690475D01*
X143453390Y-96690475D02*
X143501009Y-96738094D01*
X143501009Y-96738094D02*
X143596247Y-96785713D01*
X132024819Y-98642857D02*
X131548628Y-98976190D01*
X132024819Y-99214285D02*
X131024819Y-99214285D01*
X131024819Y-99214285D02*
X131024819Y-98833333D01*
X131024819Y-98833333D02*
X131072438Y-98738095D01*
X131072438Y-98738095D02*
X131120057Y-98690476D01*
X131120057Y-98690476D02*
X131215295Y-98642857D01*
X131215295Y-98642857D02*
X131358152Y-98642857D01*
X131358152Y-98642857D02*
X131453390Y-98690476D01*
X131453390Y-98690476D02*
X131501009Y-98738095D01*
X131501009Y-98738095D02*
X131548628Y-98833333D01*
X131548628Y-98833333D02*
X131548628Y-99214285D01*
X132024819Y-97690476D02*
X132024819Y-98261904D01*
X132024819Y-97976190D02*
X131024819Y-97976190D01*
X131024819Y-97976190D02*
X131167676Y-98071428D01*
X131167676Y-98071428D02*
X131262914Y-98166666D01*
X131262914Y-98166666D02*
X131310533Y-98261904D01*
X131024819Y-97357142D02*
X131024819Y-96690476D01*
X131024819Y-96690476D02*
X132024819Y-97119047D01*
X144024819Y-117642857D02*
X143548628Y-117976190D01*
X144024819Y-118214285D02*
X143024819Y-118214285D01*
X143024819Y-118214285D02*
X143024819Y-117833333D01*
X143024819Y-117833333D02*
X143072438Y-117738095D01*
X143072438Y-117738095D02*
X143120057Y-117690476D01*
X143120057Y-117690476D02*
X143215295Y-117642857D01*
X143215295Y-117642857D02*
X143358152Y-117642857D01*
X143358152Y-117642857D02*
X143453390Y-117690476D01*
X143453390Y-117690476D02*
X143501009Y-117738095D01*
X143501009Y-117738095D02*
X143548628Y-117833333D01*
X143548628Y-117833333D02*
X143548628Y-118214285D01*
X143120057Y-117261904D02*
X143072438Y-117214285D01*
X143072438Y-117214285D02*
X143024819Y-117119047D01*
X143024819Y-117119047D02*
X143024819Y-116880952D01*
X143024819Y-116880952D02*
X143072438Y-116785714D01*
X143072438Y-116785714D02*
X143120057Y-116738095D01*
X143120057Y-116738095D02*
X143215295Y-116690476D01*
X143215295Y-116690476D02*
X143310533Y-116690476D01*
X143310533Y-116690476D02*
X143453390Y-116738095D01*
X143453390Y-116738095D02*
X144024819Y-117309523D01*
X144024819Y-117309523D02*
X144024819Y-116690476D01*
X144024819Y-115738095D02*
X144024819Y-116309523D01*
X144024819Y-116023809D02*
X143024819Y-116023809D01*
X143024819Y-116023809D02*
X143167676Y-116119047D01*
X143167676Y-116119047D02*
X143262914Y-116214285D01*
X143262914Y-116214285D02*
X143310533Y-116309523D01*
D11*
X179008571Y-123444038D02*
X179199047Y-123444038D01*
X179199047Y-123444038D02*
X179294285Y-123491657D01*
X179294285Y-123491657D02*
X179389523Y-123586895D01*
X179389523Y-123586895D02*
X179437142Y-123777371D01*
X179437142Y-123777371D02*
X179437142Y-124110704D01*
X179437142Y-124110704D02*
X179389523Y-124301180D01*
X179389523Y-124301180D02*
X179294285Y-124396419D01*
X179294285Y-124396419D02*
X179199047Y-124444038D01*
X179199047Y-124444038D02*
X179008571Y-124444038D01*
X179008571Y-124444038D02*
X178913333Y-124396419D01*
X178913333Y-124396419D02*
X178818095Y-124301180D01*
X178818095Y-124301180D02*
X178770476Y-124110704D01*
X178770476Y-124110704D02*
X178770476Y-123777371D01*
X178770476Y-123777371D02*
X178818095Y-123586895D01*
X178818095Y-123586895D02*
X178913333Y-123491657D01*
X178913333Y-123491657D02*
X179008571Y-123444038D01*
X180437142Y-124444038D02*
X180103809Y-123967847D01*
X179865714Y-124444038D02*
X179865714Y-123444038D01*
X179865714Y-123444038D02*
X180246666Y-123444038D01*
X180246666Y-123444038D02*
X180341904Y-123491657D01*
X180341904Y-123491657D02*
X180389523Y-123539276D01*
X180389523Y-123539276D02*
X180437142Y-123634514D01*
X180437142Y-123634514D02*
X180437142Y-123777371D01*
X180437142Y-123777371D02*
X180389523Y-123872609D01*
X180389523Y-123872609D02*
X180341904Y-123920228D01*
X180341904Y-123920228D02*
X180246666Y-123967847D01*
X180246666Y-123967847D02*
X179865714Y-123967847D01*
X180818095Y-123539276D02*
X180865714Y-123491657D01*
X180865714Y-123491657D02*
X180960952Y-123444038D01*
X180960952Y-123444038D02*
X181199047Y-123444038D01*
X181199047Y-123444038D02*
X181294285Y-123491657D01*
X181294285Y-123491657D02*
X181341904Y-123539276D01*
X181341904Y-123539276D02*
X181389523Y-123634514D01*
X181389523Y-123634514D02*
X181389523Y-123729752D01*
X181389523Y-123729752D02*
X181341904Y-123872609D01*
X181341904Y-123872609D02*
X180770476Y-124444038D01*
X180770476Y-124444038D02*
X181389523Y-124444038D01*
D10*
X137944761Y-121907057D02*
X137849523Y-121859438D01*
X137849523Y-121859438D02*
X137754285Y-121764200D01*
X137754285Y-121764200D02*
X137611428Y-121621342D01*
X137611428Y-121621342D02*
X137516190Y-121573723D01*
X137516190Y-121573723D02*
X137420952Y-121573723D01*
X137468571Y-121811819D02*
X137373333Y-121764200D01*
X137373333Y-121764200D02*
X137278095Y-121668961D01*
X137278095Y-121668961D02*
X137230476Y-121478485D01*
X137230476Y-121478485D02*
X137230476Y-121145152D01*
X137230476Y-121145152D02*
X137278095Y-120954676D01*
X137278095Y-120954676D02*
X137373333Y-120859438D01*
X137373333Y-120859438D02*
X137468571Y-120811819D01*
X137468571Y-120811819D02*
X137659047Y-120811819D01*
X137659047Y-120811819D02*
X137754285Y-120859438D01*
X137754285Y-120859438D02*
X137849523Y-120954676D01*
X137849523Y-120954676D02*
X137897142Y-121145152D01*
X137897142Y-121145152D02*
X137897142Y-121478485D01*
X137897142Y-121478485D02*
X137849523Y-121668961D01*
X137849523Y-121668961D02*
X137754285Y-121764200D01*
X137754285Y-121764200D02*
X137659047Y-121811819D01*
X137659047Y-121811819D02*
X137468571Y-121811819D01*
X138278095Y-120907057D02*
X138325714Y-120859438D01*
X138325714Y-120859438D02*
X138420952Y-120811819D01*
X138420952Y-120811819D02*
X138659047Y-120811819D01*
X138659047Y-120811819D02*
X138754285Y-120859438D01*
X138754285Y-120859438D02*
X138801904Y-120907057D01*
X138801904Y-120907057D02*
X138849523Y-121002295D01*
X138849523Y-121002295D02*
X138849523Y-121097533D01*
X138849523Y-121097533D02*
X138801904Y-121240390D01*
X138801904Y-121240390D02*
X138230476Y-121811819D01*
X138230476Y-121811819D02*
X138849523Y-121811819D01*
X144024819Y-100642857D02*
X143548628Y-100976190D01*
X144024819Y-101214285D02*
X143024819Y-101214285D01*
X143024819Y-101214285D02*
X143024819Y-100833333D01*
X143024819Y-100833333D02*
X143072438Y-100738095D01*
X143072438Y-100738095D02*
X143120057Y-100690476D01*
X143120057Y-100690476D02*
X143215295Y-100642857D01*
X143215295Y-100642857D02*
X143358152Y-100642857D01*
X143358152Y-100642857D02*
X143453390Y-100690476D01*
X143453390Y-100690476D02*
X143501009Y-100738095D01*
X143501009Y-100738095D02*
X143548628Y-100833333D01*
X143548628Y-100833333D02*
X143548628Y-101214285D01*
X144024819Y-99690476D02*
X144024819Y-100261904D01*
X144024819Y-99976190D02*
X143024819Y-99976190D01*
X143024819Y-99976190D02*
X143167676Y-100071428D01*
X143167676Y-100071428D02*
X143262914Y-100166666D01*
X143262914Y-100166666D02*
X143310533Y-100261904D01*
X144024819Y-98738095D02*
X144024819Y-99309523D01*
X144024819Y-99023809D02*
X143024819Y-99023809D01*
X143024819Y-99023809D02*
X143167676Y-99119047D01*
X143167676Y-99119047D02*
X143262914Y-99214285D01*
X143262914Y-99214285D02*
X143310533Y-99309523D01*
X120833333Y-118509580D02*
X120785714Y-118557200D01*
X120785714Y-118557200D02*
X120642857Y-118604819D01*
X120642857Y-118604819D02*
X120547619Y-118604819D01*
X120547619Y-118604819D02*
X120404762Y-118557200D01*
X120404762Y-118557200D02*
X120309524Y-118461961D01*
X120309524Y-118461961D02*
X120261905Y-118366723D01*
X120261905Y-118366723D02*
X120214286Y-118176247D01*
X120214286Y-118176247D02*
X120214286Y-118033390D01*
X120214286Y-118033390D02*
X120261905Y-117842914D01*
X120261905Y-117842914D02*
X120309524Y-117747676D01*
X120309524Y-117747676D02*
X120404762Y-117652438D01*
X120404762Y-117652438D02*
X120547619Y-117604819D01*
X120547619Y-117604819D02*
X120642857Y-117604819D01*
X120642857Y-117604819D02*
X120785714Y-117652438D01*
X120785714Y-117652438D02*
X120833333Y-117700057D01*
X121214286Y-117700057D02*
X121261905Y-117652438D01*
X121261905Y-117652438D02*
X121357143Y-117604819D01*
X121357143Y-117604819D02*
X121595238Y-117604819D01*
X121595238Y-117604819D02*
X121690476Y-117652438D01*
X121690476Y-117652438D02*
X121738095Y-117700057D01*
X121738095Y-117700057D02*
X121785714Y-117795295D01*
X121785714Y-117795295D02*
X121785714Y-117890533D01*
X121785714Y-117890533D02*
X121738095Y-118033390D01*
X121738095Y-118033390D02*
X121166667Y-118604819D01*
X121166667Y-118604819D02*
X121785714Y-118604819D01*
X164746666Y-132584819D02*
X164746666Y-133299104D01*
X164746666Y-133299104D02*
X164699047Y-133441961D01*
X164699047Y-133441961D02*
X164603809Y-133537200D01*
X164603809Y-133537200D02*
X164460952Y-133584819D01*
X164460952Y-133584819D02*
X164365714Y-133584819D01*
X165127619Y-132584819D02*
X165746666Y-132584819D01*
X165746666Y-132584819D02*
X165413333Y-132965771D01*
X165413333Y-132965771D02*
X165556190Y-132965771D01*
X165556190Y-132965771D02*
X165651428Y-133013390D01*
X165651428Y-133013390D02*
X165699047Y-133061009D01*
X165699047Y-133061009D02*
X165746666Y-133156247D01*
X165746666Y-133156247D02*
X165746666Y-133394342D01*
X165746666Y-133394342D02*
X165699047Y-133489580D01*
X165699047Y-133489580D02*
X165651428Y-133537200D01*
X165651428Y-133537200D02*
X165556190Y-133584819D01*
X165556190Y-133584819D02*
X165270476Y-133584819D01*
X165270476Y-133584819D02*
X165175238Y-133537200D01*
X165175238Y-133537200D02*
X165127619Y-133489580D01*
X197954819Y-131166666D02*
X197478628Y-131499999D01*
X197954819Y-131738094D02*
X196954819Y-131738094D01*
X196954819Y-131738094D02*
X196954819Y-131357142D01*
X196954819Y-131357142D02*
X197002438Y-131261904D01*
X197002438Y-131261904D02*
X197050057Y-131214285D01*
X197050057Y-131214285D02*
X197145295Y-131166666D01*
X197145295Y-131166666D02*
X197288152Y-131166666D01*
X197288152Y-131166666D02*
X197383390Y-131214285D01*
X197383390Y-131214285D02*
X197431009Y-131261904D01*
X197431009Y-131261904D02*
X197478628Y-131357142D01*
X197478628Y-131357142D02*
X197478628Y-131738094D01*
X197050057Y-130785713D02*
X197002438Y-130738094D01*
X197002438Y-130738094D02*
X196954819Y-130642856D01*
X196954819Y-130642856D02*
X196954819Y-130404761D01*
X196954819Y-130404761D02*
X197002438Y-130309523D01*
X197002438Y-130309523D02*
X197050057Y-130261904D01*
X197050057Y-130261904D02*
X197145295Y-130214285D01*
X197145295Y-130214285D02*
X197240533Y-130214285D01*
X197240533Y-130214285D02*
X197383390Y-130261904D01*
X197383390Y-130261904D02*
X197954819Y-130833332D01*
X197954819Y-130833332D02*
X197954819Y-130214285D01*
X132024819Y-111642857D02*
X131548628Y-111976190D01*
X132024819Y-112214285D02*
X131024819Y-112214285D01*
X131024819Y-112214285D02*
X131024819Y-111833333D01*
X131024819Y-111833333D02*
X131072438Y-111738095D01*
X131072438Y-111738095D02*
X131120057Y-111690476D01*
X131120057Y-111690476D02*
X131215295Y-111642857D01*
X131215295Y-111642857D02*
X131358152Y-111642857D01*
X131358152Y-111642857D02*
X131453390Y-111690476D01*
X131453390Y-111690476D02*
X131501009Y-111738095D01*
X131501009Y-111738095D02*
X131548628Y-111833333D01*
X131548628Y-111833333D02*
X131548628Y-112214285D01*
X131120057Y-111261904D02*
X131072438Y-111214285D01*
X131072438Y-111214285D02*
X131024819Y-111119047D01*
X131024819Y-111119047D02*
X131024819Y-110880952D01*
X131024819Y-110880952D02*
X131072438Y-110785714D01*
X131072438Y-110785714D02*
X131120057Y-110738095D01*
X131120057Y-110738095D02*
X131215295Y-110690476D01*
X131215295Y-110690476D02*
X131310533Y-110690476D01*
X131310533Y-110690476D02*
X131453390Y-110738095D01*
X131453390Y-110738095D02*
X132024819Y-111309523D01*
X132024819Y-111309523D02*
X132024819Y-110690476D01*
X131024819Y-110071428D02*
X131024819Y-109976190D01*
X131024819Y-109976190D02*
X131072438Y-109880952D01*
X131072438Y-109880952D02*
X131120057Y-109833333D01*
X131120057Y-109833333D02*
X131215295Y-109785714D01*
X131215295Y-109785714D02*
X131405771Y-109738095D01*
X131405771Y-109738095D02*
X131643866Y-109738095D01*
X131643866Y-109738095D02*
X131834342Y-109785714D01*
X131834342Y-109785714D02*
X131929580Y-109833333D01*
X131929580Y-109833333D02*
X131977200Y-109880952D01*
X131977200Y-109880952D02*
X132024819Y-109976190D01*
X132024819Y-109976190D02*
X132024819Y-110071428D01*
X132024819Y-110071428D02*
X131977200Y-110166666D01*
X131977200Y-110166666D02*
X131929580Y-110214285D01*
X131929580Y-110214285D02*
X131834342Y-110261904D01*
X131834342Y-110261904D02*
X131643866Y-110309523D01*
X131643866Y-110309523D02*
X131405771Y-110309523D01*
X131405771Y-110309523D02*
X131215295Y-110261904D01*
X131215295Y-110261904D02*
X131120057Y-110214285D01*
X131120057Y-110214285D02*
X131072438Y-110166666D01*
X131072438Y-110166666D02*
X131024819Y-110071428D01*
D11*
X179008571Y-101444038D02*
X179199047Y-101444038D01*
X179199047Y-101444038D02*
X179294285Y-101491657D01*
X179294285Y-101491657D02*
X179389523Y-101586895D01*
X179389523Y-101586895D02*
X179437142Y-101777371D01*
X179437142Y-101777371D02*
X179437142Y-102110704D01*
X179437142Y-102110704D02*
X179389523Y-102301180D01*
X179389523Y-102301180D02*
X179294285Y-102396419D01*
X179294285Y-102396419D02*
X179199047Y-102444038D01*
X179199047Y-102444038D02*
X179008571Y-102444038D01*
X179008571Y-102444038D02*
X178913333Y-102396419D01*
X178913333Y-102396419D02*
X178818095Y-102301180D01*
X178818095Y-102301180D02*
X178770476Y-102110704D01*
X178770476Y-102110704D02*
X178770476Y-101777371D01*
X178770476Y-101777371D02*
X178818095Y-101586895D01*
X178818095Y-101586895D02*
X178913333Y-101491657D01*
X178913333Y-101491657D02*
X179008571Y-101444038D01*
X180437142Y-102444038D02*
X180103809Y-101967847D01*
X179865714Y-102444038D02*
X179865714Y-101444038D01*
X179865714Y-101444038D02*
X180246666Y-101444038D01*
X180246666Y-101444038D02*
X180341904Y-101491657D01*
X180341904Y-101491657D02*
X180389523Y-101539276D01*
X180389523Y-101539276D02*
X180437142Y-101634514D01*
X180437142Y-101634514D02*
X180437142Y-101777371D01*
X180437142Y-101777371D02*
X180389523Y-101872609D01*
X180389523Y-101872609D02*
X180341904Y-101920228D01*
X180341904Y-101920228D02*
X180246666Y-101967847D01*
X180246666Y-101967847D02*
X179865714Y-101967847D01*
X181389523Y-102444038D02*
X180818095Y-102444038D01*
X181103809Y-102444038D02*
X181103809Y-101444038D01*
X181103809Y-101444038D02*
X181008571Y-101586895D01*
X181008571Y-101586895D02*
X180913333Y-101682133D01*
X180913333Y-101682133D02*
X180818095Y-101729752D01*
D10*
X148024819Y-98738094D02*
X147024819Y-98738094D01*
X147024819Y-98738094D02*
X147024819Y-98499999D01*
X147024819Y-98499999D02*
X147072438Y-98357142D01*
X147072438Y-98357142D02*
X147167676Y-98261904D01*
X147167676Y-98261904D02*
X147262914Y-98214285D01*
X147262914Y-98214285D02*
X147453390Y-98166666D01*
X147453390Y-98166666D02*
X147596247Y-98166666D01*
X147596247Y-98166666D02*
X147786723Y-98214285D01*
X147786723Y-98214285D02*
X147881961Y-98261904D01*
X147881961Y-98261904D02*
X147977200Y-98357142D01*
X147977200Y-98357142D02*
X148024819Y-98499999D01*
X148024819Y-98499999D02*
X148024819Y-98738094D01*
X148024819Y-97214285D02*
X148024819Y-97785713D01*
X148024819Y-97499999D02*
X147024819Y-97499999D01*
X147024819Y-97499999D02*
X147167676Y-97595237D01*
X147167676Y-97595237D02*
X147262914Y-97690475D01*
X147262914Y-97690475D02*
X147310533Y-97785713D01*
X126238095Y-128054819D02*
X126238095Y-128864342D01*
X126238095Y-128864342D02*
X126285714Y-128959580D01*
X126285714Y-128959580D02*
X126333333Y-129007200D01*
X126333333Y-129007200D02*
X126428571Y-129054819D01*
X126428571Y-129054819D02*
X126619047Y-129054819D01*
X126619047Y-129054819D02*
X126714285Y-129007200D01*
X126714285Y-129007200D02*
X126761904Y-128959580D01*
X126761904Y-128959580D02*
X126809523Y-128864342D01*
X126809523Y-128864342D02*
X126809523Y-128054819D01*
X127238095Y-128150057D02*
X127285714Y-128102438D01*
X127285714Y-128102438D02*
X127380952Y-128054819D01*
X127380952Y-128054819D02*
X127619047Y-128054819D01*
X127619047Y-128054819D02*
X127714285Y-128102438D01*
X127714285Y-128102438D02*
X127761904Y-128150057D01*
X127761904Y-128150057D02*
X127809523Y-128245295D01*
X127809523Y-128245295D02*
X127809523Y-128340533D01*
X127809523Y-128340533D02*
X127761904Y-128483390D01*
X127761904Y-128483390D02*
X127190476Y-129054819D01*
X127190476Y-129054819D02*
X127809523Y-129054819D01*
X137944761Y-131907057D02*
X137849523Y-131859438D01*
X137849523Y-131859438D02*
X137754285Y-131764200D01*
X137754285Y-131764200D02*
X137611428Y-131621342D01*
X137611428Y-131621342D02*
X137516190Y-131573723D01*
X137516190Y-131573723D02*
X137420952Y-131573723D01*
X137468571Y-131811819D02*
X137373333Y-131764200D01*
X137373333Y-131764200D02*
X137278095Y-131668961D01*
X137278095Y-131668961D02*
X137230476Y-131478485D01*
X137230476Y-131478485D02*
X137230476Y-131145152D01*
X137230476Y-131145152D02*
X137278095Y-130954676D01*
X137278095Y-130954676D02*
X137373333Y-130859438D01*
X137373333Y-130859438D02*
X137468571Y-130811819D01*
X137468571Y-130811819D02*
X137659047Y-130811819D01*
X137659047Y-130811819D02*
X137754285Y-130859438D01*
X137754285Y-130859438D02*
X137849523Y-130954676D01*
X137849523Y-130954676D02*
X137897142Y-131145152D01*
X137897142Y-131145152D02*
X137897142Y-131478485D01*
X137897142Y-131478485D02*
X137849523Y-131668961D01*
X137849523Y-131668961D02*
X137754285Y-131764200D01*
X137754285Y-131764200D02*
X137659047Y-131811819D01*
X137659047Y-131811819D02*
X137468571Y-131811819D01*
X138754285Y-131145152D02*
X138754285Y-131811819D01*
X138516190Y-130764200D02*
X138278095Y-131478485D01*
X138278095Y-131478485D02*
X138897142Y-131478485D01*
X190746666Y-132584819D02*
X190746666Y-133299104D01*
X190746666Y-133299104D02*
X190699047Y-133441961D01*
X190699047Y-133441961D02*
X190603809Y-133537200D01*
X190603809Y-133537200D02*
X190460952Y-133584819D01*
X190460952Y-133584819D02*
X190365714Y-133584819D01*
X191651428Y-132918152D02*
X191651428Y-133584819D01*
X191413333Y-132537200D02*
X191175238Y-133251485D01*
X191175238Y-133251485D02*
X191794285Y-133251485D01*
X132024819Y-108642857D02*
X131548628Y-108976190D01*
X132024819Y-109214285D02*
X131024819Y-109214285D01*
X131024819Y-109214285D02*
X131024819Y-108833333D01*
X131024819Y-108833333D02*
X131072438Y-108738095D01*
X131072438Y-108738095D02*
X131120057Y-108690476D01*
X131120057Y-108690476D02*
X131215295Y-108642857D01*
X131215295Y-108642857D02*
X131358152Y-108642857D01*
X131358152Y-108642857D02*
X131453390Y-108690476D01*
X131453390Y-108690476D02*
X131501009Y-108738095D01*
X131501009Y-108738095D02*
X131548628Y-108833333D01*
X131548628Y-108833333D02*
X131548628Y-109214285D01*
X132024819Y-107690476D02*
X132024819Y-108261904D01*
X132024819Y-107976190D02*
X131024819Y-107976190D01*
X131024819Y-107976190D02*
X131167676Y-108071428D01*
X131167676Y-108071428D02*
X131262914Y-108166666D01*
X131262914Y-108166666D02*
X131310533Y-108261904D01*
X131453390Y-107119047D02*
X131405771Y-107214285D01*
X131405771Y-107214285D02*
X131358152Y-107261904D01*
X131358152Y-107261904D02*
X131262914Y-107309523D01*
X131262914Y-107309523D02*
X131215295Y-107309523D01*
X131215295Y-107309523D02*
X131120057Y-107261904D01*
X131120057Y-107261904D02*
X131072438Y-107214285D01*
X131072438Y-107214285D02*
X131024819Y-107119047D01*
X131024819Y-107119047D02*
X131024819Y-106928571D01*
X131024819Y-106928571D02*
X131072438Y-106833333D01*
X131072438Y-106833333D02*
X131120057Y-106785714D01*
X131120057Y-106785714D02*
X131215295Y-106738095D01*
X131215295Y-106738095D02*
X131262914Y-106738095D01*
X131262914Y-106738095D02*
X131358152Y-106785714D01*
X131358152Y-106785714D02*
X131405771Y-106833333D01*
X131405771Y-106833333D02*
X131453390Y-106928571D01*
X131453390Y-106928571D02*
X131453390Y-107119047D01*
X131453390Y-107119047D02*
X131501009Y-107214285D01*
X131501009Y-107214285D02*
X131548628Y-107261904D01*
X131548628Y-107261904D02*
X131643866Y-107309523D01*
X131643866Y-107309523D02*
X131834342Y-107309523D01*
X131834342Y-107309523D02*
X131929580Y-107261904D01*
X131929580Y-107261904D02*
X131977200Y-107214285D01*
X131977200Y-107214285D02*
X132024819Y-107119047D01*
X132024819Y-107119047D02*
X132024819Y-106928571D01*
X132024819Y-106928571D02*
X131977200Y-106833333D01*
X131977200Y-106833333D02*
X131929580Y-106785714D01*
X131929580Y-106785714D02*
X131834342Y-106738095D01*
X131834342Y-106738095D02*
X131643866Y-106738095D01*
X131643866Y-106738095D02*
X131548628Y-106785714D01*
X131548628Y-106785714D02*
X131501009Y-106833333D01*
X131501009Y-106833333D02*
X131453390Y-106928571D01*
X132024819Y-101642857D02*
X131548628Y-101976190D01*
X132024819Y-102214285D02*
X131024819Y-102214285D01*
X131024819Y-102214285D02*
X131024819Y-101833333D01*
X131024819Y-101833333D02*
X131072438Y-101738095D01*
X131072438Y-101738095D02*
X131120057Y-101690476D01*
X131120057Y-101690476D02*
X131215295Y-101642857D01*
X131215295Y-101642857D02*
X131358152Y-101642857D01*
X131358152Y-101642857D02*
X131453390Y-101690476D01*
X131453390Y-101690476D02*
X131501009Y-101738095D01*
X131501009Y-101738095D02*
X131548628Y-101833333D01*
X131548628Y-101833333D02*
X131548628Y-102214285D01*
X132024819Y-100690476D02*
X132024819Y-101261904D01*
X132024819Y-100976190D02*
X131024819Y-100976190D01*
X131024819Y-100976190D02*
X131167676Y-101071428D01*
X131167676Y-101071428D02*
X131262914Y-101166666D01*
X131262914Y-101166666D02*
X131310533Y-101261904D01*
X132024819Y-100214285D02*
X132024819Y-100023809D01*
X132024819Y-100023809D02*
X131977200Y-99928571D01*
X131977200Y-99928571D02*
X131929580Y-99880952D01*
X131929580Y-99880952D02*
X131786723Y-99785714D01*
X131786723Y-99785714D02*
X131596247Y-99738095D01*
X131596247Y-99738095D02*
X131215295Y-99738095D01*
X131215295Y-99738095D02*
X131120057Y-99785714D01*
X131120057Y-99785714D02*
X131072438Y-99833333D01*
X131072438Y-99833333D02*
X131024819Y-99928571D01*
X131024819Y-99928571D02*
X131024819Y-100119047D01*
X131024819Y-100119047D02*
X131072438Y-100214285D01*
X131072438Y-100214285D02*
X131120057Y-100261904D01*
X131120057Y-100261904D02*
X131215295Y-100309523D01*
X131215295Y-100309523D02*
X131453390Y-100309523D01*
X131453390Y-100309523D02*
X131548628Y-100261904D01*
X131548628Y-100261904D02*
X131596247Y-100214285D01*
X131596247Y-100214285D02*
X131643866Y-100119047D01*
X131643866Y-100119047D02*
X131643866Y-99928571D01*
X131643866Y-99928571D02*
X131596247Y-99833333D01*
X131596247Y-99833333D02*
X131548628Y-99785714D01*
X131548628Y-99785714D02*
X131453390Y-99738095D01*
X137944761Y-101907057D02*
X137849523Y-101859438D01*
X137849523Y-101859438D02*
X137754285Y-101764200D01*
X137754285Y-101764200D02*
X137611428Y-101621342D01*
X137611428Y-101621342D02*
X137516190Y-101573723D01*
X137516190Y-101573723D02*
X137420952Y-101573723D01*
X137468571Y-101811819D02*
X137373333Y-101764200D01*
X137373333Y-101764200D02*
X137278095Y-101668961D01*
X137278095Y-101668961D02*
X137230476Y-101478485D01*
X137230476Y-101478485D02*
X137230476Y-101145152D01*
X137230476Y-101145152D02*
X137278095Y-100954676D01*
X137278095Y-100954676D02*
X137373333Y-100859438D01*
X137373333Y-100859438D02*
X137468571Y-100811819D01*
X137468571Y-100811819D02*
X137659047Y-100811819D01*
X137659047Y-100811819D02*
X137754285Y-100859438D01*
X137754285Y-100859438D02*
X137849523Y-100954676D01*
X137849523Y-100954676D02*
X137897142Y-101145152D01*
X137897142Y-101145152D02*
X137897142Y-101478485D01*
X137897142Y-101478485D02*
X137849523Y-101668961D01*
X137849523Y-101668961D02*
X137754285Y-101764200D01*
X137754285Y-101764200D02*
X137659047Y-101811819D01*
X137659047Y-101811819D02*
X137468571Y-101811819D01*
X138230476Y-100811819D02*
X138849523Y-100811819D01*
X138849523Y-100811819D02*
X138516190Y-101192771D01*
X138516190Y-101192771D02*
X138659047Y-101192771D01*
X138659047Y-101192771D02*
X138754285Y-101240390D01*
X138754285Y-101240390D02*
X138801904Y-101288009D01*
X138801904Y-101288009D02*
X138849523Y-101383247D01*
X138849523Y-101383247D02*
X138849523Y-101621342D01*
X138849523Y-101621342D02*
X138801904Y-101716580D01*
X138801904Y-101716580D02*
X138754285Y-101764200D01*
X138754285Y-101764200D02*
X138659047Y-101811819D01*
X138659047Y-101811819D02*
X138373333Y-101811819D01*
X138373333Y-101811819D02*
X138278095Y-101764200D01*
X138278095Y-101764200D02*
X138230476Y-101716580D01*
X132024819Y-131642857D02*
X131548628Y-131976190D01*
X132024819Y-132214285D02*
X131024819Y-132214285D01*
X131024819Y-132214285D02*
X131024819Y-131833333D01*
X131024819Y-131833333D02*
X131072438Y-131738095D01*
X131072438Y-131738095D02*
X131120057Y-131690476D01*
X131120057Y-131690476D02*
X131215295Y-131642857D01*
X131215295Y-131642857D02*
X131358152Y-131642857D01*
X131358152Y-131642857D02*
X131453390Y-131690476D01*
X131453390Y-131690476D02*
X131501009Y-131738095D01*
X131501009Y-131738095D02*
X131548628Y-131833333D01*
X131548628Y-131833333D02*
X131548628Y-132214285D01*
X131120057Y-131261904D02*
X131072438Y-131214285D01*
X131072438Y-131214285D02*
X131024819Y-131119047D01*
X131024819Y-131119047D02*
X131024819Y-130880952D01*
X131024819Y-130880952D02*
X131072438Y-130785714D01*
X131072438Y-130785714D02*
X131120057Y-130738095D01*
X131120057Y-130738095D02*
X131215295Y-130690476D01*
X131215295Y-130690476D02*
X131310533Y-130690476D01*
X131310533Y-130690476D02*
X131453390Y-130738095D01*
X131453390Y-130738095D02*
X132024819Y-131309523D01*
X132024819Y-131309523D02*
X132024819Y-130690476D01*
X131358152Y-129833333D02*
X132024819Y-129833333D01*
X130977200Y-130071428D02*
X131691485Y-130309523D01*
X131691485Y-130309523D02*
X131691485Y-129690476D01*
X132024819Y-128642857D02*
X131548628Y-128976190D01*
X132024819Y-129214285D02*
X131024819Y-129214285D01*
X131024819Y-129214285D02*
X131024819Y-128833333D01*
X131024819Y-128833333D02*
X131072438Y-128738095D01*
X131072438Y-128738095D02*
X131120057Y-128690476D01*
X131120057Y-128690476D02*
X131215295Y-128642857D01*
X131215295Y-128642857D02*
X131358152Y-128642857D01*
X131358152Y-128642857D02*
X131453390Y-128690476D01*
X131453390Y-128690476D02*
X131501009Y-128738095D01*
X131501009Y-128738095D02*
X131548628Y-128833333D01*
X131548628Y-128833333D02*
X131548628Y-129214285D01*
X131120057Y-128261904D02*
X131072438Y-128214285D01*
X131072438Y-128214285D02*
X131024819Y-128119047D01*
X131024819Y-128119047D02*
X131024819Y-127880952D01*
X131024819Y-127880952D02*
X131072438Y-127785714D01*
X131072438Y-127785714D02*
X131120057Y-127738095D01*
X131120057Y-127738095D02*
X131215295Y-127690476D01*
X131215295Y-127690476D02*
X131310533Y-127690476D01*
X131310533Y-127690476D02*
X131453390Y-127738095D01*
X131453390Y-127738095D02*
X132024819Y-128309523D01*
X132024819Y-128309523D02*
X132024819Y-127690476D01*
X131024819Y-127357142D02*
X131024819Y-126738095D01*
X131024819Y-126738095D02*
X131405771Y-127071428D01*
X131405771Y-127071428D02*
X131405771Y-126928571D01*
X131405771Y-126928571D02*
X131453390Y-126833333D01*
X131453390Y-126833333D02*
X131501009Y-126785714D01*
X131501009Y-126785714D02*
X131596247Y-126738095D01*
X131596247Y-126738095D02*
X131834342Y-126738095D01*
X131834342Y-126738095D02*
X131929580Y-126785714D01*
X131929580Y-126785714D02*
X131977200Y-126833333D01*
X131977200Y-126833333D02*
X132024819Y-126928571D01*
X132024819Y-126928571D02*
X132024819Y-127214285D01*
X132024819Y-127214285D02*
X131977200Y-127309523D01*
X131977200Y-127309523D02*
X131929580Y-127357142D01*
X132024819Y-121642857D02*
X131548628Y-121976190D01*
X132024819Y-122214285D02*
X131024819Y-122214285D01*
X131024819Y-122214285D02*
X131024819Y-121833333D01*
X131024819Y-121833333D02*
X131072438Y-121738095D01*
X131072438Y-121738095D02*
X131120057Y-121690476D01*
X131120057Y-121690476D02*
X131215295Y-121642857D01*
X131215295Y-121642857D02*
X131358152Y-121642857D01*
X131358152Y-121642857D02*
X131453390Y-121690476D01*
X131453390Y-121690476D02*
X131501009Y-121738095D01*
X131501009Y-121738095D02*
X131548628Y-121833333D01*
X131548628Y-121833333D02*
X131548628Y-122214285D01*
X132024819Y-120690476D02*
X132024819Y-121261904D01*
X132024819Y-120976190D02*
X131024819Y-120976190D01*
X131024819Y-120976190D02*
X131167676Y-121071428D01*
X131167676Y-121071428D02*
X131262914Y-121166666D01*
X131262914Y-121166666D02*
X131310533Y-121261904D01*
X131024819Y-120357142D02*
X131024819Y-119738095D01*
X131024819Y-119738095D02*
X131405771Y-120071428D01*
X131405771Y-120071428D02*
X131405771Y-119928571D01*
X131405771Y-119928571D02*
X131453390Y-119833333D01*
X131453390Y-119833333D02*
X131501009Y-119785714D01*
X131501009Y-119785714D02*
X131596247Y-119738095D01*
X131596247Y-119738095D02*
X131834342Y-119738095D01*
X131834342Y-119738095D02*
X131929580Y-119785714D01*
X131929580Y-119785714D02*
X131977200Y-119833333D01*
X131977200Y-119833333D02*
X132024819Y-119928571D01*
X132024819Y-119928571D02*
X132024819Y-120214285D01*
X132024819Y-120214285D02*
X131977200Y-120309523D01*
X131977200Y-120309523D02*
X131929580Y-120357142D01*
X129929580Y-127166666D02*
X129977200Y-127214285D01*
X129977200Y-127214285D02*
X130024819Y-127357142D01*
X130024819Y-127357142D02*
X130024819Y-127452380D01*
X130024819Y-127452380D02*
X129977200Y-127595237D01*
X129977200Y-127595237D02*
X129881961Y-127690475D01*
X129881961Y-127690475D02*
X129786723Y-127738094D01*
X129786723Y-127738094D02*
X129596247Y-127785713D01*
X129596247Y-127785713D02*
X129453390Y-127785713D01*
X129453390Y-127785713D02*
X129262914Y-127738094D01*
X129262914Y-127738094D02*
X129167676Y-127690475D01*
X129167676Y-127690475D02*
X129072438Y-127595237D01*
X129072438Y-127595237D02*
X129024819Y-127452380D01*
X129024819Y-127452380D02*
X129024819Y-127357142D01*
X129024819Y-127357142D02*
X129072438Y-127214285D01*
X129072438Y-127214285D02*
X129120057Y-127166666D01*
X130024819Y-126214285D02*
X130024819Y-126785713D01*
X130024819Y-126499999D02*
X129024819Y-126499999D01*
X129024819Y-126499999D02*
X129167676Y-126595237D01*
X129167676Y-126595237D02*
X129262914Y-126690475D01*
X129262914Y-126690475D02*
X129310533Y-126785713D01*
X121024819Y-133166666D02*
X120548628Y-133499999D01*
X121024819Y-133738094D02*
X120024819Y-133738094D01*
X120024819Y-133738094D02*
X120024819Y-133357142D01*
X120024819Y-133357142D02*
X120072438Y-133261904D01*
X120072438Y-133261904D02*
X120120057Y-133214285D01*
X120120057Y-133214285D02*
X120215295Y-133166666D01*
X120215295Y-133166666D02*
X120358152Y-133166666D01*
X120358152Y-133166666D02*
X120453390Y-133214285D01*
X120453390Y-133214285D02*
X120501009Y-133261904D01*
X120501009Y-133261904D02*
X120548628Y-133357142D01*
X120548628Y-133357142D02*
X120548628Y-133738094D01*
X121024819Y-132690475D02*
X121024819Y-132499999D01*
X121024819Y-132499999D02*
X120977200Y-132404761D01*
X120977200Y-132404761D02*
X120929580Y-132357142D01*
X120929580Y-132357142D02*
X120786723Y-132261904D01*
X120786723Y-132261904D02*
X120596247Y-132214285D01*
X120596247Y-132214285D02*
X120215295Y-132214285D01*
X120215295Y-132214285D02*
X120120057Y-132261904D01*
X120120057Y-132261904D02*
X120072438Y-132309523D01*
X120072438Y-132309523D02*
X120024819Y-132404761D01*
X120024819Y-132404761D02*
X120024819Y-132595237D01*
X120024819Y-132595237D02*
X120072438Y-132690475D01*
X120072438Y-132690475D02*
X120120057Y-132738094D01*
X120120057Y-132738094D02*
X120215295Y-132785713D01*
X120215295Y-132785713D02*
X120453390Y-132785713D01*
X120453390Y-132785713D02*
X120548628Y-132738094D01*
X120548628Y-132738094D02*
X120596247Y-132690475D01*
X120596247Y-132690475D02*
X120643866Y-132595237D01*
X120643866Y-132595237D02*
X120643866Y-132404761D01*
X120643866Y-132404761D02*
X120596247Y-132309523D01*
X120596247Y-132309523D02*
X120548628Y-132261904D01*
X120548628Y-132261904D02*
X120453390Y-132214285D01*
X124381009Y-116833333D02*
X124381009Y-117166666D01*
X124904819Y-117166666D02*
X123904819Y-117166666D01*
X123904819Y-117166666D02*
X123904819Y-116690476D01*
X124381009Y-115976190D02*
X124428628Y-115833333D01*
X124428628Y-115833333D02*
X124476247Y-115785714D01*
X124476247Y-115785714D02*
X124571485Y-115738095D01*
X124571485Y-115738095D02*
X124714342Y-115738095D01*
X124714342Y-115738095D02*
X124809580Y-115785714D01*
X124809580Y-115785714D02*
X124857200Y-115833333D01*
X124857200Y-115833333D02*
X124904819Y-115928571D01*
X124904819Y-115928571D02*
X124904819Y-116309523D01*
X124904819Y-116309523D02*
X123904819Y-116309523D01*
X123904819Y-116309523D02*
X123904819Y-115976190D01*
X123904819Y-115976190D02*
X123952438Y-115880952D01*
X123952438Y-115880952D02*
X124000057Y-115833333D01*
X124000057Y-115833333D02*
X124095295Y-115785714D01*
X124095295Y-115785714D02*
X124190533Y-115785714D01*
X124190533Y-115785714D02*
X124285771Y-115833333D01*
X124285771Y-115833333D02*
X124333390Y-115880952D01*
X124333390Y-115880952D02*
X124381009Y-115976190D01*
X124381009Y-115976190D02*
X124381009Y-116309523D01*
X124904819Y-114785714D02*
X124904819Y-115357142D01*
X124904819Y-115071428D02*
X123904819Y-115071428D01*
X123904819Y-115071428D02*
X124047676Y-115166666D01*
X124047676Y-115166666D02*
X124142914Y-115261904D01*
X124142914Y-115261904D02*
X124190533Y-115357142D01*
X144024819Y-127642857D02*
X143548628Y-127976190D01*
X144024819Y-128214285D02*
X143024819Y-128214285D01*
X143024819Y-128214285D02*
X143024819Y-127833333D01*
X143024819Y-127833333D02*
X143072438Y-127738095D01*
X143072438Y-127738095D02*
X143120057Y-127690476D01*
X143120057Y-127690476D02*
X143215295Y-127642857D01*
X143215295Y-127642857D02*
X143358152Y-127642857D01*
X143358152Y-127642857D02*
X143453390Y-127690476D01*
X143453390Y-127690476D02*
X143501009Y-127738095D01*
X143501009Y-127738095D02*
X143548628Y-127833333D01*
X143548628Y-127833333D02*
X143548628Y-128214285D01*
X143120057Y-127261904D02*
X143072438Y-127214285D01*
X143072438Y-127214285D02*
X143024819Y-127119047D01*
X143024819Y-127119047D02*
X143024819Y-126880952D01*
X143024819Y-126880952D02*
X143072438Y-126785714D01*
X143072438Y-126785714D02*
X143120057Y-126738095D01*
X143120057Y-126738095D02*
X143215295Y-126690476D01*
X143215295Y-126690476D02*
X143310533Y-126690476D01*
X143310533Y-126690476D02*
X143453390Y-126738095D01*
X143453390Y-126738095D02*
X144024819Y-127309523D01*
X144024819Y-127309523D02*
X144024819Y-126690476D01*
X143120057Y-126309523D02*
X143072438Y-126261904D01*
X143072438Y-126261904D02*
X143024819Y-126166666D01*
X143024819Y-126166666D02*
X143024819Y-125928571D01*
X143024819Y-125928571D02*
X143072438Y-125833333D01*
X143072438Y-125833333D02*
X143120057Y-125785714D01*
X143120057Y-125785714D02*
X143215295Y-125738095D01*
X143215295Y-125738095D02*
X143310533Y-125738095D01*
X143310533Y-125738095D02*
X143453390Y-125785714D01*
X143453390Y-125785714D02*
X144024819Y-126357142D01*
X144024819Y-126357142D02*
X144024819Y-125738095D01*
X132024819Y-118642857D02*
X131548628Y-118976190D01*
X132024819Y-119214285D02*
X131024819Y-119214285D01*
X131024819Y-119214285D02*
X131024819Y-118833333D01*
X131024819Y-118833333D02*
X131072438Y-118738095D01*
X131072438Y-118738095D02*
X131120057Y-118690476D01*
X131120057Y-118690476D02*
X131215295Y-118642857D01*
X131215295Y-118642857D02*
X131358152Y-118642857D01*
X131358152Y-118642857D02*
X131453390Y-118690476D01*
X131453390Y-118690476D02*
X131501009Y-118738095D01*
X131501009Y-118738095D02*
X131548628Y-118833333D01*
X131548628Y-118833333D02*
X131548628Y-119214285D01*
X132024819Y-117690476D02*
X132024819Y-118261904D01*
X132024819Y-117976190D02*
X131024819Y-117976190D01*
X131024819Y-117976190D02*
X131167676Y-118071428D01*
X131167676Y-118071428D02*
X131262914Y-118166666D01*
X131262914Y-118166666D02*
X131310533Y-118261904D01*
X131024819Y-116833333D02*
X131024819Y-117023809D01*
X131024819Y-117023809D02*
X131072438Y-117119047D01*
X131072438Y-117119047D02*
X131120057Y-117166666D01*
X131120057Y-117166666D02*
X131262914Y-117261904D01*
X131262914Y-117261904D02*
X131453390Y-117309523D01*
X131453390Y-117309523D02*
X131834342Y-117309523D01*
X131834342Y-117309523D02*
X131929580Y-117261904D01*
X131929580Y-117261904D02*
X131977200Y-117214285D01*
X131977200Y-117214285D02*
X132024819Y-117119047D01*
X132024819Y-117119047D02*
X132024819Y-116928571D01*
X132024819Y-116928571D02*
X131977200Y-116833333D01*
X131977200Y-116833333D02*
X131929580Y-116785714D01*
X131929580Y-116785714D02*
X131834342Y-116738095D01*
X131834342Y-116738095D02*
X131596247Y-116738095D01*
X131596247Y-116738095D02*
X131501009Y-116785714D01*
X131501009Y-116785714D02*
X131453390Y-116833333D01*
X131453390Y-116833333D02*
X131405771Y-116928571D01*
X131405771Y-116928571D02*
X131405771Y-117119047D01*
X131405771Y-117119047D02*
X131453390Y-117214285D01*
X131453390Y-117214285D02*
X131501009Y-117261904D01*
X131501009Y-117261904D02*
X131596247Y-117309523D01*
X125833333Y-118929580D02*
X125785714Y-118977200D01*
X125785714Y-118977200D02*
X125642857Y-119024819D01*
X125642857Y-119024819D02*
X125547619Y-119024819D01*
X125547619Y-119024819D02*
X125404762Y-118977200D01*
X125404762Y-118977200D02*
X125309524Y-118881961D01*
X125309524Y-118881961D02*
X125261905Y-118786723D01*
X125261905Y-118786723D02*
X125214286Y-118596247D01*
X125214286Y-118596247D02*
X125214286Y-118453390D01*
X125214286Y-118453390D02*
X125261905Y-118262914D01*
X125261905Y-118262914D02*
X125309524Y-118167676D01*
X125309524Y-118167676D02*
X125404762Y-118072438D01*
X125404762Y-118072438D02*
X125547619Y-118024819D01*
X125547619Y-118024819D02*
X125642857Y-118024819D01*
X125642857Y-118024819D02*
X125785714Y-118072438D01*
X125785714Y-118072438D02*
X125833333Y-118120057D01*
X126166667Y-118024819D02*
X126785714Y-118024819D01*
X126785714Y-118024819D02*
X126452381Y-118405771D01*
X126452381Y-118405771D02*
X126595238Y-118405771D01*
X126595238Y-118405771D02*
X126690476Y-118453390D01*
X126690476Y-118453390D02*
X126738095Y-118501009D01*
X126738095Y-118501009D02*
X126785714Y-118596247D01*
X126785714Y-118596247D02*
X126785714Y-118834342D01*
X126785714Y-118834342D02*
X126738095Y-118929580D01*
X126738095Y-118929580D02*
X126690476Y-118977200D01*
X126690476Y-118977200D02*
X126595238Y-119024819D01*
X126595238Y-119024819D02*
X126309524Y-119024819D01*
X126309524Y-119024819D02*
X126214286Y-118977200D01*
X126214286Y-118977200D02*
X126166667Y-118929580D01*
X144024819Y-110642857D02*
X143548628Y-110976190D01*
X144024819Y-111214285D02*
X143024819Y-111214285D01*
X143024819Y-111214285D02*
X143024819Y-110833333D01*
X143024819Y-110833333D02*
X143072438Y-110738095D01*
X143072438Y-110738095D02*
X143120057Y-110690476D01*
X143120057Y-110690476D02*
X143215295Y-110642857D01*
X143215295Y-110642857D02*
X143358152Y-110642857D01*
X143358152Y-110642857D02*
X143453390Y-110690476D01*
X143453390Y-110690476D02*
X143501009Y-110738095D01*
X143501009Y-110738095D02*
X143548628Y-110833333D01*
X143548628Y-110833333D02*
X143548628Y-111214285D01*
X144024819Y-109690476D02*
X144024819Y-110261904D01*
X144024819Y-109976190D02*
X143024819Y-109976190D01*
X143024819Y-109976190D02*
X143167676Y-110071428D01*
X143167676Y-110071428D02*
X143262914Y-110166666D01*
X143262914Y-110166666D02*
X143310533Y-110261904D01*
X143024819Y-108785714D02*
X143024819Y-109261904D01*
X143024819Y-109261904D02*
X143501009Y-109309523D01*
X143501009Y-109309523D02*
X143453390Y-109261904D01*
X143453390Y-109261904D02*
X143405771Y-109166666D01*
X143405771Y-109166666D02*
X143405771Y-108928571D01*
X143405771Y-108928571D02*
X143453390Y-108833333D01*
X143453390Y-108833333D02*
X143501009Y-108785714D01*
X143501009Y-108785714D02*
X143596247Y-108738095D01*
X143596247Y-108738095D02*
X143834342Y-108738095D01*
X143834342Y-108738095D02*
X143929580Y-108785714D01*
X143929580Y-108785714D02*
X143977200Y-108833333D01*
X143977200Y-108833333D02*
X144024819Y-108928571D01*
X144024819Y-108928571D02*
X144024819Y-109166666D01*
X144024819Y-109166666D02*
X143977200Y-109261904D01*
X143977200Y-109261904D02*
X143929580Y-109309523D01*
X121024819Y-127166666D02*
X120548628Y-127499999D01*
X121024819Y-127738094D02*
X120024819Y-127738094D01*
X120024819Y-127738094D02*
X120024819Y-127357142D01*
X120024819Y-127357142D02*
X120072438Y-127261904D01*
X120072438Y-127261904D02*
X120120057Y-127214285D01*
X120120057Y-127214285D02*
X120215295Y-127166666D01*
X120215295Y-127166666D02*
X120358152Y-127166666D01*
X120358152Y-127166666D02*
X120453390Y-127214285D01*
X120453390Y-127214285D02*
X120501009Y-127261904D01*
X120501009Y-127261904D02*
X120548628Y-127357142D01*
X120548628Y-127357142D02*
X120548628Y-127738094D01*
X120024819Y-126833332D02*
X120024819Y-126166666D01*
X120024819Y-126166666D02*
X121024819Y-126595237D01*
%TO.C,GPIO1*%
D12*
X124495000Y-86855000D02*
X175515000Y-86855000D01*
X124495000Y-89505000D02*
X124495000Y-86855000D01*
X124495000Y-92155000D02*
X124495000Y-90775000D01*
X125875000Y-92155000D02*
X124495000Y-92155000D01*
X127145000Y-89505000D02*
X124495000Y-89505000D01*
X127145000Y-92155000D02*
X127145000Y-89505000D01*
X127145000Y-92155000D02*
X175515000Y-92155000D01*
X175515000Y-92155000D02*
X175515000Y-86855000D01*
%TO.C,D2*%
X148265000Y-107200000D02*
X148265000Y-109485000D01*
X148265000Y-109485000D02*
X149735000Y-109485000D01*
X149735000Y-109485000D02*
X149735000Y-107200000D01*
%TO.C,Q1*%
D13*
X138206494Y-110079500D02*
X142333506Y-110079500D01*
X138105833Y-110029936D02*
G75*
G02*
X143000500Y-108365000I2164167J1664936D01*
G01*
X143000500Y-108365001D02*
G75*
G02*
X142434164Y-110029940I-2730500J1D01*
G01*
X135888500Y-109000000D02*
G75*
G02*
X135634500Y-109000000I-127000J0D01*
G01*
X135634500Y-109000000D02*
G75*
G02*
X135888500Y-109000000I127000J0D01*
G01*
%TO.C,C4*%
D12*
X129859420Y-115490000D02*
X130140580Y-115490000D01*
X129859420Y-116510000D02*
X130140580Y-116510000D01*
%TO.C,R26*%
D14*
X196750000Y-114200000D02*
X196750000Y-131800000D01*
X196750000Y-131800000D02*
X199250000Y-131800000D01*
X199250000Y-114200000D02*
X196750000Y-114200000D01*
X199250000Y-131800000D02*
X199250000Y-114200000D01*
%TO.C,OR3*%
D11*
X171920000Y-108952000D02*
X176492000Y-108952000D01*
X177000000Y-105904000D02*
X177000000Y-107936000D01*
X177000000Y-112000000D02*
X177000000Y-109968000D01*
X184620000Y-105904000D02*
X177000000Y-105904000D01*
X184620000Y-112000000D02*
X177000000Y-112000000D01*
X187160000Y-105904000D02*
X185509000Y-105904000D01*
X187160000Y-105904000D02*
X187160000Y-107936000D01*
X187160000Y-112000000D02*
X185509000Y-112000000D01*
X187160000Y-112000000D02*
X187160000Y-109968000D01*
X187668000Y-108952000D02*
X192240000Y-108952000D01*
X184620000Y-105904000D02*
X185382000Y-105904000D01*
X185382000Y-112000000D01*
X184620000Y-112000000D01*
X184620000Y-105904000D01*
X184620000Y-105904000D02*
X185509000Y-105904000D01*
X185509000Y-112000000D01*
X184620000Y-112000000D01*
X184620000Y-105904000D01*
G36*
X184620000Y-105904000D02*
G01*
X185509000Y-105904000D01*
X185509000Y-112000000D01*
X184620000Y-112000000D01*
X184620000Y-105904000D01*
G37*
X171920000Y-108952000D02*
G75*
G02*
X169888000Y-108952000I-1016000J0D01*
G01*
X169888000Y-108952000D02*
G75*
G02*
X171920000Y-108952000I1016000J0D01*
G01*
X194272000Y-108952000D02*
G75*
G02*
X192240000Y-108952000I-1016000J0D01*
G01*
X192240000Y-108952000D02*
G75*
G02*
X194272000Y-108952000I1016000J0D01*
G01*
%TO.C,U1*%
X151000000Y-96410000D02*
X172590000Y-96410000D01*
X172590000Y-118000000D01*
X151000000Y-118000000D01*
X151000000Y-96410000D01*
%TO.C,R8*%
D12*
X121477500Y-131237258D02*
X121477500Y-130762742D01*
X122522500Y-131237258D02*
X122522500Y-130762742D01*
%TO.C,C5*%
X130490000Y-131140580D02*
X130490000Y-130859420D01*
X131510000Y-131140580D02*
X131510000Y-130859420D01*
%TO.C,OR4*%
D11*
X171920000Y-129952000D02*
X176492000Y-129952000D01*
X177000000Y-126904000D02*
X177000000Y-128936000D01*
X177000000Y-133000000D02*
X177000000Y-130968000D01*
X184620000Y-126904000D02*
X177000000Y-126904000D01*
X184620000Y-133000000D02*
X177000000Y-133000000D01*
X187160000Y-126904000D02*
X185509000Y-126904000D01*
X187160000Y-126904000D02*
X187160000Y-128936000D01*
X187160000Y-133000000D02*
X185509000Y-133000000D01*
X187160000Y-133000000D02*
X187160000Y-130968000D01*
X187668000Y-129952000D02*
X192240000Y-129952000D01*
X184620000Y-126904000D02*
X185382000Y-126904000D01*
X185382000Y-133000000D01*
X184620000Y-133000000D01*
X184620000Y-126904000D01*
X184620000Y-126904000D02*
X185509000Y-126904000D01*
X185509000Y-133000000D01*
X184620000Y-133000000D01*
X184620000Y-126904000D01*
G36*
X184620000Y-126904000D02*
G01*
X185509000Y-126904000D01*
X185509000Y-133000000D01*
X184620000Y-133000000D01*
X184620000Y-126904000D01*
G37*
X171920000Y-129952000D02*
G75*
G02*
X169888000Y-129952000I-1016000J0D01*
G01*
X169888000Y-129952000D02*
G75*
G02*
X171920000Y-129952000I1016000J0D01*
G01*
X194272000Y-129952000D02*
G75*
G02*
X192240000Y-129952000I-1016000J0D01*
G01*
X192240000Y-129952000D02*
G75*
G02*
X194272000Y-129952000I1016000J0D01*
G01*
%TO.C,R10*%
D12*
X126477500Y-135237258D02*
X126477500Y-134762742D01*
X127522500Y-135237258D02*
X127522500Y-134762742D01*
%TO.C,R14*%
X144477500Y-107237258D02*
X144477500Y-106762742D01*
X145522500Y-107237258D02*
X145522500Y-106762742D01*
%TO.C,R1*%
D14*
X193750000Y-94200000D02*
X193750000Y-111800000D01*
X193750000Y-111800000D02*
X196250000Y-111800000D01*
X196250000Y-94200000D02*
X193750000Y-94200000D01*
X196250000Y-111800000D02*
X196250000Y-94200000D01*
%TO.C,R25*%
X196750000Y-94200000D02*
X196750000Y-111800000D01*
X196750000Y-111800000D02*
X199250000Y-111800000D01*
X199250000Y-94200000D02*
X196750000Y-94200000D01*
X199250000Y-111800000D02*
X199250000Y-94200000D01*
%TO.C,R6*%
D12*
X144477500Y-97237258D02*
X144477500Y-96762742D01*
X145522500Y-97237258D02*
X145522500Y-96762742D01*
%TO.C,R17*%
X132477500Y-98237258D02*
X132477500Y-97762742D01*
X133522500Y-98237258D02*
X133522500Y-97762742D01*
%TO.C,R21*%
X144477500Y-117237258D02*
X144477500Y-116762742D01*
X145522500Y-117237258D02*
X145522500Y-116762742D01*
%TO.C,OR2*%
D11*
X171920000Y-119952000D02*
X176492000Y-119952000D01*
X177000000Y-116904000D02*
X177000000Y-118936000D01*
X177000000Y-123000000D02*
X177000000Y-120968000D01*
X184620000Y-116904000D02*
X177000000Y-116904000D01*
X184620000Y-123000000D02*
X177000000Y-123000000D01*
X187160000Y-116904000D02*
X185509000Y-116904000D01*
X187160000Y-116904000D02*
X187160000Y-118936000D01*
X187160000Y-123000000D02*
X185509000Y-123000000D01*
X187160000Y-123000000D02*
X187160000Y-120968000D01*
X187668000Y-119952000D02*
X192240000Y-119952000D01*
X184620000Y-116904000D02*
X185382000Y-116904000D01*
X185382000Y-123000000D01*
X184620000Y-123000000D01*
X184620000Y-116904000D01*
X184620000Y-116904000D02*
X185509000Y-116904000D01*
X185509000Y-123000000D01*
X184620000Y-123000000D01*
X184620000Y-116904000D01*
G36*
X184620000Y-116904000D02*
G01*
X185509000Y-116904000D01*
X185509000Y-123000000D01*
X184620000Y-123000000D01*
X184620000Y-116904000D01*
G37*
X171920000Y-119952000D02*
G75*
G02*
X169888000Y-119952000I-1016000J0D01*
G01*
X169888000Y-119952000D02*
G75*
G02*
X171920000Y-119952000I1016000J0D01*
G01*
X194272000Y-119952000D02*
G75*
G02*
X192240000Y-119952000I-1016000J0D01*
G01*
X192240000Y-119952000D02*
G75*
G02*
X194272000Y-119952000I1016000J0D01*
G01*
%TO.C,Q2*%
D13*
X138206494Y-120079500D02*
X142333506Y-120079500D01*
X138105833Y-120029936D02*
G75*
G02*
X143000500Y-118365000I2164167J1664936D01*
G01*
X143000500Y-118365001D02*
G75*
G02*
X142434164Y-120029940I-2730500J1D01*
G01*
X135888500Y-119000000D02*
G75*
G02*
X135634500Y-119000000I-127000J0D01*
G01*
X135634500Y-119000000D02*
G75*
G02*
X135888500Y-119000000I127000J0D01*
G01*
%TO.C,R11*%
D12*
X144477500Y-100237258D02*
X144477500Y-99762742D01*
X145522500Y-100237258D02*
X145522500Y-99762742D01*
%TO.C,C2*%
X120288748Y-119090000D02*
X121711252Y-119090000D01*
X120288748Y-120910000D02*
X121711252Y-120910000D01*
%TO.C,J3*%
X157340000Y-134130000D02*
X172820000Y-134130000D01*
X157340000Y-135750000D02*
X172820000Y-135750000D01*
X157340000Y-141350000D02*
X172820000Y-141350000D01*
X157340000Y-141950000D02*
X172820000Y-141950000D01*
X157340000Y-142670000D02*
X157340000Y-134130000D01*
X158750000Y-134250000D02*
X161250000Y-134250000D01*
X158750000Y-135250000D02*
X158750000Y-134250000D01*
X159700000Y-142670000D02*
X157340000Y-142670000D01*
X161250000Y-134250000D02*
X161250000Y-135250000D01*
X161250000Y-135250000D02*
X158750000Y-135250000D01*
X163830000Y-134250000D02*
X166330000Y-134250000D01*
X163830000Y-135250000D02*
X163830000Y-134250000D01*
X166330000Y-134250000D02*
X166330000Y-135250000D01*
X166330000Y-135250000D02*
X163830000Y-135250000D01*
X168910000Y-134250000D02*
X171410000Y-134250000D01*
X168910000Y-135250000D02*
X168910000Y-134250000D01*
X171410000Y-134250000D02*
X171410000Y-135250000D01*
X171410000Y-135250000D02*
X168910000Y-135250000D01*
X172820000Y-134130000D02*
X172820000Y-142670000D01*
X172820000Y-142670000D02*
X160300000Y-142670000D01*
X166580000Y-138000000D02*
G75*
G02*
X163580000Y-138000000I-1500000J0D01*
G01*
X163580000Y-138000000D02*
G75*
G02*
X166580000Y-138000000I1500000J0D01*
G01*
X160440000Y-143280000D02*
X159560000Y-143280000D01*
X160000000Y-142670000D01*
X160440000Y-143280000D01*
G36*
X160440000Y-143280000D02*
G01*
X159560000Y-143280000D01*
X160000000Y-142670000D01*
X160440000Y-143280000D01*
G37*
%TO.C,R2*%
D14*
X193750000Y-114200000D02*
X193750000Y-131800000D01*
X193750000Y-131800000D02*
X196250000Y-131800000D01*
X196250000Y-114200000D02*
X193750000Y-114200000D01*
X196250000Y-131800000D02*
X196250000Y-114200000D01*
%TO.C,R20*%
D12*
X132477500Y-111237258D02*
X132477500Y-110762742D01*
X133522500Y-111237258D02*
X133522500Y-110762742D01*
%TO.C,OR1*%
D11*
X171920000Y-97952000D02*
X176492000Y-97952000D01*
X177000000Y-94904000D02*
X177000000Y-96936000D01*
X177000000Y-101000000D02*
X177000000Y-98968000D01*
X184620000Y-94904000D02*
X177000000Y-94904000D01*
X184620000Y-101000000D02*
X177000000Y-101000000D01*
X187160000Y-94904000D02*
X185509000Y-94904000D01*
X187160000Y-94904000D02*
X187160000Y-96936000D01*
X187160000Y-101000000D02*
X185509000Y-101000000D01*
X187160000Y-101000000D02*
X187160000Y-98968000D01*
X187668000Y-97952000D02*
X192240000Y-97952000D01*
X184620000Y-94904000D02*
X185382000Y-94904000D01*
X185382000Y-101000000D01*
X184620000Y-101000000D01*
X184620000Y-94904000D01*
X184620000Y-94904000D02*
X185509000Y-94904000D01*
X185509000Y-101000000D01*
X184620000Y-101000000D01*
X184620000Y-94904000D01*
G36*
X184620000Y-94904000D02*
G01*
X185509000Y-94904000D01*
X185509000Y-101000000D01*
X184620000Y-101000000D01*
X184620000Y-94904000D01*
G37*
X171920000Y-97952000D02*
G75*
G02*
X169888000Y-97952000I-1016000J0D01*
G01*
X169888000Y-97952000D02*
G75*
G02*
X171920000Y-97952000I1016000J0D01*
G01*
X194272000Y-97952000D02*
G75*
G02*
X192240000Y-97952000I-1016000J0D01*
G01*
X192240000Y-97952000D02*
G75*
G02*
X194272000Y-97952000I1016000J0D01*
G01*
%TO.C,D1*%
D12*
X148265000Y-97200000D02*
X148265000Y-99485000D01*
X148265000Y-99485000D02*
X149735000Y-99485000D01*
X149735000Y-99485000D02*
X149735000Y-97200000D01*
%TO.C,U2*%
X126090000Y-129440000D02*
X127910000Y-129440000D01*
X126090000Y-129490000D02*
X126090000Y-129440000D01*
X126090000Y-132560000D02*
X126090000Y-132510000D01*
X127910000Y-129440000D02*
X127910000Y-129490000D01*
X127910000Y-130610000D02*
X127910000Y-131390000D01*
X127910000Y-132510000D02*
X127910000Y-132560000D01*
X127910000Y-132560000D02*
X126090000Y-132560000D01*
X125550000Y-129490000D02*
X125310000Y-129160000D01*
X125790000Y-129160000D01*
X125550000Y-129490000D01*
G36*
X125550000Y-129490000D02*
G01*
X125310000Y-129160000D01*
X125790000Y-129160000D01*
X125550000Y-129490000D01*
G37*
%TO.C,Q4*%
D13*
X138206494Y-130079500D02*
X142333506Y-130079500D01*
X138105833Y-130029936D02*
G75*
G02*
X143000500Y-128365000I2164167J1664936D01*
G01*
X143000500Y-128365001D02*
G75*
G02*
X142434164Y-130029940I-2730500J1D01*
G01*
X135888500Y-129000000D02*
G75*
G02*
X135634500Y-129000000I-127000J0D01*
G01*
X135634500Y-129000000D02*
G75*
G02*
X135888500Y-129000000I127000J0D01*
G01*
%TO.C,J4*%
D12*
X183340000Y-134130000D02*
X198820000Y-134130000D01*
X183340000Y-135750000D02*
X198820000Y-135750000D01*
X183340000Y-141350000D02*
X198820000Y-141350000D01*
X183340000Y-141950000D02*
X198820000Y-141950000D01*
X183340000Y-142670000D02*
X183340000Y-134130000D01*
X184750000Y-134250000D02*
X187250000Y-134250000D01*
X184750000Y-135250000D02*
X184750000Y-134250000D01*
X185700000Y-142670000D02*
X183340000Y-142670000D01*
X187250000Y-134250000D02*
X187250000Y-135250000D01*
X187250000Y-135250000D02*
X184750000Y-135250000D01*
X189830000Y-134250000D02*
X192330000Y-134250000D01*
X189830000Y-135250000D02*
X189830000Y-134250000D01*
X192330000Y-134250000D02*
X192330000Y-135250000D01*
X192330000Y-135250000D02*
X189830000Y-135250000D01*
X194910000Y-134250000D02*
X197410000Y-134250000D01*
X194910000Y-135250000D02*
X194910000Y-134250000D01*
X197410000Y-134250000D02*
X197410000Y-135250000D01*
X197410000Y-135250000D02*
X194910000Y-135250000D01*
X198820000Y-134130000D02*
X198820000Y-142670000D01*
X198820000Y-142670000D02*
X186300000Y-142670000D01*
X192580000Y-138000000D02*
G75*
G02*
X189580000Y-138000000I-1500000J0D01*
G01*
X189580000Y-138000000D02*
G75*
G02*
X192580000Y-138000000I1500000J0D01*
G01*
X186440000Y-143280000D02*
X185560000Y-143280000D01*
X186000000Y-142670000D01*
X186440000Y-143280000D01*
G36*
X186440000Y-143280000D02*
G01*
X185560000Y-143280000D01*
X186000000Y-142670000D01*
X186440000Y-143280000D01*
G37*
%TO.C,R18*%
X132477500Y-108237258D02*
X132477500Y-107762742D01*
X133522500Y-108237258D02*
X133522500Y-107762742D01*
%TO.C,R19*%
X132477500Y-101237258D02*
X132477500Y-100762742D01*
X133522500Y-101237258D02*
X133522500Y-100762742D01*
%TO.C,Q3*%
D13*
X138206494Y-100079500D02*
X142333506Y-100079500D01*
X138105833Y-100029936D02*
G75*
G02*
X143000500Y-98365000I2164167J1664936D01*
G01*
X143000500Y-98365001D02*
G75*
G02*
X142434164Y-100029940I-2730500J1D01*
G01*
X135888500Y-99000000D02*
G75*
G02*
X135634500Y-99000000I-127000J0D01*
G01*
X135634500Y-99000000D02*
G75*
G02*
X135888500Y-99000000I127000J0D01*
G01*
%TO.C,R24*%
D12*
X132477500Y-131237258D02*
X132477500Y-130762742D01*
X133522500Y-131237258D02*
X133522500Y-130762742D01*
%TO.C,R23*%
X132477500Y-128237258D02*
X132477500Y-127762742D01*
X133522500Y-128237258D02*
X133522500Y-127762742D01*
%TO.C,R13*%
X132477500Y-121237258D02*
X132477500Y-120762742D01*
X133522500Y-121237258D02*
X133522500Y-120762742D01*
%TO.C,C1*%
X130490000Y-127140580D02*
X130490000Y-126859420D01*
X131510000Y-127140580D02*
X131510000Y-126859420D01*
%TO.C,R9*%
X121477500Y-133237258D02*
X121477500Y-132762742D01*
X122522500Y-133237258D02*
X122522500Y-132762742D01*
%TO.C,FB1*%
X125440000Y-116399622D02*
X125440000Y-115600378D01*
X126560000Y-116399622D02*
X126560000Y-115600378D01*
%TO.C,R22*%
X144477500Y-127237258D02*
X144477500Y-126762742D01*
X145522500Y-127237258D02*
X145522500Y-126762742D01*
%TO.C,R16*%
X132477500Y-118237258D02*
X132477500Y-117762742D01*
X133522500Y-118237258D02*
X133522500Y-117762742D01*
%TO.C,C3*%
X125859420Y-119490000D02*
X126140580Y-119490000D01*
X125859420Y-120510000D02*
X126140580Y-120510000D01*
%TO.C,R15*%
X144477500Y-110237258D02*
X144477500Y-109762742D01*
X145522500Y-110237258D02*
X145522500Y-109762742D01*
%TO.C,R7*%
X121477500Y-127237258D02*
X121477500Y-126762742D01*
X122522500Y-127237258D02*
X122522500Y-126762742D01*
%TD*%
M02*
