%TF.GenerationSoftware,KiCad,Pcbnew,10.0.1*%
%TF.CreationDate,2026-06-07T15:52:36-04:00*%
%TF.ProjectId,HV Pi Hat,48562050-6920-4486-9174-2e6b69636164,rev?*%
%TF.SameCoordinates,Original*%
%TF.FileFunction,Other,User*%
%FSLAX46Y46*%
G04 Gerber Fmt 4.6, Leading zero omitted, Abs format (unit mm)*
G04 Created by KiCad (PCBNEW 10.0.1) date 2026-06-07 15:52:36*
%MOMM*%
%LPD*%
G01*
G04 APERTURE LIST*
%ADD10C,0.050000*%
%ADD11C,0.152400*%
G04 APERTURE END LIST*
%TO.C,GPIO1*%
D10*
X124095000Y-86455000D02*
X175905000Y-86455000D01*
X175905000Y-92545000D01*
X124095000Y-92545000D01*
X124095000Y-86455000D01*
%TO.C,D2*%
X148270000Y-106520000D02*
X149730000Y-106520000D01*
X149730000Y-109480000D01*
X148270000Y-109480000D01*
X148270000Y-106520000D01*
%TO.C,Q1*%
D11*
X137412500Y-105507500D02*
X143127500Y-105507500D01*
X137412500Y-110206500D02*
X137412500Y-105507500D01*
X143127500Y-105507500D02*
X143127500Y-110206500D01*
X143127500Y-110206500D02*
X137412500Y-110206500D01*
%TO.C,C4*%
D10*
X128520000Y-115270000D02*
X131480000Y-115270000D01*
X131480000Y-116730000D01*
X128520000Y-116730000D01*
X128520000Y-115270000D01*
%TO.C,H1*%
X181950000Y-89500000D02*
G75*
G02*
X176050000Y-89500000I-2950000J0D01*
G01*
X176050000Y-89500000D02*
G75*
G02*
X181950000Y-89500000I2950000J0D01*
G01*
%TO.C,R26*%
X196500000Y-113950000D02*
X196500000Y-132050000D01*
X196500000Y-132050000D02*
X199500000Y-132050000D01*
X199500000Y-113950000D02*
X196500000Y-113950000D01*
X199500000Y-132050000D02*
X199500000Y-113950000D01*
%TO.C,H2*%
X123950000Y-89500000D02*
G75*
G02*
X118050000Y-89500000I-2950000J0D01*
G01*
X118050000Y-89500000D02*
G75*
G02*
X123950000Y-89500000I2950000J0D01*
G01*
%TO.C,OR3*%
X169380000Y-105650000D02*
X194780000Y-105650000D01*
X194780000Y-112254000D01*
X169380000Y-112254000D01*
X169380000Y-105650000D01*
%TO.C,U1*%
X150746000Y-96156000D02*
X172844000Y-96156000D01*
X172844000Y-118254000D01*
X150746000Y-118254000D01*
X150746000Y-96156000D01*
%TO.C,H3*%
X123950000Y-138500000D02*
G75*
G02*
X118050000Y-138500000I-2950000J0D01*
G01*
X118050000Y-138500000D02*
G75*
G02*
X123950000Y-138500000I2950000J0D01*
G01*
%TO.C,R8*%
X121270000Y-129520000D02*
X122730000Y-129520000D01*
X122730000Y-132480000D01*
X121270000Y-132480000D01*
X121270000Y-129520000D01*
%TO.C,C5*%
X130270000Y-129520000D02*
X131730000Y-129520000D01*
X131730000Y-132480000D01*
X130270000Y-132480000D01*
X130270000Y-129520000D01*
%TO.C,OR4*%
X169380000Y-126650000D02*
X194780000Y-126650000D01*
X194780000Y-133254000D01*
X169380000Y-133254000D01*
X169380000Y-126650000D01*
%TO.C,R10*%
X126270000Y-133520000D02*
X127730000Y-133520000D01*
X127730000Y-136480000D01*
X126270000Y-136480000D01*
X126270000Y-133520000D01*
%TO.C,R14*%
X144270000Y-105520000D02*
X145730000Y-105520000D01*
X145730000Y-108480000D01*
X144270000Y-108480000D01*
X144270000Y-105520000D01*
%TO.C,R1*%
X193500000Y-93950000D02*
X193500000Y-112050000D01*
X193500000Y-112050000D02*
X196500000Y-112050000D01*
X196500000Y-93950000D02*
X193500000Y-93950000D01*
X196500000Y-112050000D02*
X196500000Y-93950000D01*
%TO.C,R25*%
X196500000Y-93950000D02*
X196500000Y-112050000D01*
X196500000Y-112050000D02*
X199500000Y-112050000D01*
X199500000Y-93950000D02*
X196500000Y-93950000D01*
X199500000Y-112050000D02*
X199500000Y-93950000D01*
%TO.C,R6*%
X144270000Y-95520000D02*
X145730000Y-95520000D01*
X145730000Y-98480000D01*
X144270000Y-98480000D01*
X144270000Y-95520000D01*
%TO.C,R17*%
X132270000Y-96520000D02*
X133730000Y-96520000D01*
X133730000Y-99480000D01*
X132270000Y-99480000D01*
X132270000Y-96520000D01*
%TO.C,R21*%
X144270000Y-115520000D02*
X145730000Y-115520000D01*
X145730000Y-118480000D01*
X144270000Y-118480000D01*
X144270000Y-115520000D01*
%TO.C,OR2*%
X169380000Y-116650000D02*
X194780000Y-116650000D01*
X194780000Y-123254000D01*
X169380000Y-123254000D01*
X169380000Y-116650000D01*
%TO.C,Q2*%
D11*
X137412500Y-115507500D02*
X143127500Y-115507500D01*
X137412500Y-120206500D02*
X137412500Y-115507500D01*
X143127500Y-115507500D02*
X143127500Y-120206500D01*
X143127500Y-120206500D02*
X137412500Y-120206500D01*
%TO.C,R11*%
D10*
X144270000Y-98520000D02*
X145730000Y-98520000D01*
X145730000Y-101480000D01*
X144270000Y-101480000D01*
X144270000Y-98520000D01*
%TO.C,C2*%
X118700000Y-118850000D02*
X123300000Y-118850000D01*
X123300000Y-121150000D01*
X118700000Y-121150000D01*
X118700000Y-118850000D01*
%TO.C,J3*%
X156960000Y-133740000D02*
X173210000Y-133740000D01*
X173210000Y-143050000D01*
X156960000Y-143050000D01*
X156960000Y-133740000D01*
%TO.C,R2*%
X193500000Y-113950000D02*
X193500000Y-132050000D01*
X193500000Y-132050000D02*
X196500000Y-132050000D01*
X196500000Y-113950000D02*
X193500000Y-113950000D01*
X196500000Y-132050000D02*
X196500000Y-113950000D01*
%TO.C,R20*%
X132270000Y-109520000D02*
X133730000Y-109520000D01*
X133730000Y-112480000D01*
X132270000Y-112480000D01*
X132270000Y-109520000D01*
%TO.C,OR1*%
X169380000Y-94650000D02*
X194780000Y-94650000D01*
X194780000Y-101254000D01*
X169380000Y-101254000D01*
X169380000Y-94650000D01*
%TO.C,D1*%
X148270000Y-96520000D02*
X149730000Y-96520000D01*
X149730000Y-99480000D01*
X148270000Y-99480000D01*
X148270000Y-96520000D01*
%TO.C,U2*%
X124950000Y-129500000D02*
X125950000Y-129500000D01*
X124950000Y-132500000D02*
X124950000Y-129500000D01*
X125950000Y-129300000D02*
X128050000Y-129300000D01*
X125950000Y-129500000D02*
X125950000Y-129300000D01*
X125950000Y-132500000D02*
X124950000Y-132500000D01*
X125950000Y-132700000D02*
X125950000Y-132500000D01*
X128050000Y-129300000D02*
X128050000Y-129500000D01*
X128050000Y-129500000D02*
X129050000Y-129500000D01*
X128050000Y-130610000D02*
X128050000Y-131390000D01*
X128050000Y-131390000D02*
X129050000Y-131390000D01*
X128050000Y-132500000D02*
X128050000Y-132700000D01*
X128050000Y-132700000D02*
X125950000Y-132700000D01*
X129050000Y-129500000D02*
X129050000Y-130610000D01*
X129050000Y-130610000D02*
X128050000Y-130610000D01*
X129050000Y-131390000D02*
X129050000Y-132500000D01*
X129050000Y-132500000D02*
X128050000Y-132500000D01*
%TO.C,Q4*%
D11*
X137412500Y-125507500D02*
X143127500Y-125507500D01*
X137412500Y-130206500D02*
X137412500Y-125507500D01*
X143127500Y-125507500D02*
X143127500Y-130206500D01*
X143127500Y-130206500D02*
X137412500Y-130206500D01*
%TO.C,J4*%
D10*
X182960000Y-133740000D02*
X199210000Y-133740000D01*
X199210000Y-143050000D01*
X182960000Y-143050000D01*
X182960000Y-133740000D01*
%TO.C,R18*%
X132270000Y-106520000D02*
X133730000Y-106520000D01*
X133730000Y-109480000D01*
X132270000Y-109480000D01*
X132270000Y-106520000D01*
%TO.C,R19*%
X132270000Y-99520000D02*
X133730000Y-99520000D01*
X133730000Y-102480000D01*
X132270000Y-102480000D01*
X132270000Y-99520000D01*
%TO.C,Q3*%
D11*
X137412500Y-95507500D02*
X143127500Y-95507500D01*
X137412500Y-100206500D02*
X137412500Y-95507500D01*
X143127500Y-95507500D02*
X143127500Y-100206500D01*
X143127500Y-100206500D02*
X137412500Y-100206500D01*
%TO.C,R24*%
D10*
X132270000Y-129520000D02*
X133730000Y-129520000D01*
X133730000Y-132480000D01*
X132270000Y-132480000D01*
X132270000Y-129520000D01*
%TO.C,R23*%
X132270000Y-126520000D02*
X133730000Y-126520000D01*
X133730000Y-129480000D01*
X132270000Y-129480000D01*
X132270000Y-126520000D01*
%TO.C,R13*%
X132270000Y-119520000D02*
X133730000Y-119520000D01*
X133730000Y-122480000D01*
X132270000Y-122480000D01*
X132270000Y-119520000D01*
%TO.C,C1*%
X130270000Y-125520000D02*
X131730000Y-125520000D01*
X131730000Y-128480000D01*
X130270000Y-128480000D01*
X130270000Y-125520000D01*
%TO.C,R9*%
X121270000Y-131520000D02*
X122730000Y-131520000D01*
X122730000Y-134480000D01*
X121270000Y-134480000D01*
X121270000Y-131520000D01*
%TO.C,FB1*%
X125150000Y-114250000D02*
X126850000Y-114250000D01*
X126850000Y-117750000D01*
X125150000Y-117750000D01*
X125150000Y-114250000D01*
%TO.C,R22*%
X144270000Y-125520000D02*
X145730000Y-125520000D01*
X145730000Y-128480000D01*
X144270000Y-128480000D01*
X144270000Y-125520000D01*
%TO.C,H4*%
X181950000Y-138500000D02*
G75*
G02*
X176050000Y-138500000I-2950000J0D01*
G01*
X176050000Y-138500000D02*
G75*
G02*
X181950000Y-138500000I2950000J0D01*
G01*
%TO.C,R16*%
X132270000Y-116520000D02*
X133730000Y-116520000D01*
X133730000Y-119480000D01*
X132270000Y-119480000D01*
X132270000Y-116520000D01*
%TO.C,C3*%
X124520000Y-119270000D02*
X127480000Y-119270000D01*
X127480000Y-120730000D01*
X124520000Y-120730000D01*
X124520000Y-119270000D01*
%TO.C,R15*%
X144270000Y-108520000D02*
X145730000Y-108520000D01*
X145730000Y-111480000D01*
X144270000Y-111480000D01*
X144270000Y-108520000D01*
%TO.C,R7*%
X121270000Y-125520000D02*
X122730000Y-125520000D01*
X122730000Y-128480000D01*
X121270000Y-128480000D01*
X121270000Y-125520000D01*
%TD*%
M02*
