M48
; DRILL file KiCad 10.0.1 date 2026-06-07T15:52:36
; FORMAT={-:-/ absolute / metric / decimal}
; #@! TF.CreationDate,2026-06-07T15:52:36-04:00
; #@! TF.GenerationSoftware,Kicad,Pcbnew,10.0.1
; #@! TF.FileFunction,MixedPlating,1,4
FMAT,2
METRIC
; #@! TA.AperFunction,Plated,PTH,ViaDrill
T1C0.300
; #@! TA.AperFunction,Plated,PTH,ComponentDrill
T2C0.700
; #@! TA.AperFunction,Plated,PTH,ComponentDrill
T3C0.762
; #@! TA.AperFunction,Plated,PTH,ComponentDrill
T4C0.813
; #@! TA.AperFunction,Plated,PTH,ComponentDrill
T5C0.889
; #@! TA.AperFunction,Plated,PTH,ComponentDrill
T6C1.000
; #@! TA.AperFunction,Plated,PTH,ComponentDrill
T7C1.300
; #@! TA.AperFunction,Plated,PTH,ComponentDrill
T8C2.700
%
G90
G05
T1
X121.807Y-125.063
X124.745Y-128.53
X127.029Y-113.555
X127.683Y-105.126
X129.838Y-131.951
X130.621Y-99.21
X130.621Y-114.567
X131.733Y-129.05
X134.252Y-116.958
X134.461Y-96.485
X134.485Y-108.704
X142.861Y-107.942
X146.128Y-96.07
X146.128Y-116.008
X148.249Y-110.231
X151.187Y-113.016
X151.746Y-105.726
X151.971Y-102.906
X157.063Y-116.958
X162.939Y-122.874
X162.939Y-125.66
X174.691Y-105.073
T2
X195.0Y-95.38
X195.0Y-110.62
X195.0Y-115.38
X195.0Y-130.62
X198.0Y-95.38
X198.0Y-110.62
X198.0Y-115.38
X198.0Y-130.62
T3
X170.904Y-97.952
X170.904Y-108.952
X170.904Y-119.952
X170.904Y-129.952
X177.635Y-97.952
X177.635Y-108.952
X177.635Y-119.952
X177.635Y-129.952
X186.525Y-97.952
X186.525Y-108.952
X186.525Y-119.952
X186.525Y-129.952
X193.256Y-97.952
X193.256Y-108.952
X193.256Y-119.952
X193.256Y-129.952
T4
X139.0Y-99.0
X139.0Y-109.0
X139.0Y-119.0
X139.0Y-129.0
X140.27Y-97.73
X140.27Y-107.73
X140.27Y-117.73
X140.27Y-127.73
X141.54Y-99.0
X141.54Y-109.0
X141.54Y-119.0
X141.54Y-129.0
T5
X153.54Y-99.712
X153.54Y-102.252
X153.54Y-104.792
X153.54Y-107.332
X153.54Y-109.872
X153.54Y-112.412
X153.54Y-114.952
X170.05Y-99.712
X170.05Y-114.952
T6
X125.875Y-88.235
X125.875Y-90.775
X128.415Y-88.235
X128.415Y-90.775
X130.955Y-88.235
X130.955Y-90.775
X133.495Y-88.235
X133.495Y-90.775
X136.035Y-88.235
X136.035Y-90.775
X138.575Y-88.235
X138.575Y-90.775
X141.115Y-88.235
X141.115Y-90.775
X143.655Y-88.235
X143.655Y-90.775
X146.195Y-88.235
X146.195Y-90.775
X148.735Y-88.235
X148.735Y-90.775
X151.275Y-88.235
X151.275Y-90.775
X153.815Y-88.235
X153.815Y-90.775
X156.355Y-88.235
X156.355Y-90.775
X158.895Y-88.235
X158.895Y-90.775
X161.435Y-88.235
X161.435Y-90.775
X163.975Y-88.235
X163.975Y-90.775
X166.515Y-88.235
X166.515Y-90.775
X169.055Y-88.235
X169.055Y-90.775
X171.595Y-88.235
X171.595Y-90.775
X174.135Y-88.235
X174.135Y-90.775
T7
X160.0Y-138.0
X170.16Y-138.0
X186.0Y-138.0
X196.16Y-138.0
T8
X121.0Y-89.5
X121.0Y-138.5
X179.0Y-89.5
X179.0Y-138.5
M30
