%TF.GenerationSoftware,KiCad,Pcbnew,9.0.6*%
%TF.CreationDate,2025-12-18T18:13:00-05:00*%
%TF.ProjectId,HV Pi Hat,48562050-6920-4486-9174-2e6b69636164,rev?*%
%TF.SameCoordinates,Original*%
%TF.FileFunction,Legend,Top*%
%TF.FilePolarity,Positive*%
%FSLAX46Y46*%
G04 Gerber Fmt 4.6, Leading zero omitted, Abs format (unit mm)*
G04 Created by KiCad (PCBNEW 9.0.6) date 2025-12-18 18:13:00*
%MOMM*%
%LPD*%
G01*
G04 APERTURE LIST*
%ADD10C,0.100000*%
%ADD11C,0.150000*%
%ADD12C,0.127000*%
%ADD13C,0.152400*%
%ADD14C,0.120000*%
G04 APERTURE END LIST*
D10*
X157042580Y-115428571D02*
X157042580Y-115619047D01*
X157042580Y-115619047D02*
X156994961Y-115714285D01*
X156994961Y-115714285D02*
X156899723Y-115809523D01*
X156899723Y-115809523D02*
X156709247Y-115857142D01*
X156709247Y-115857142D02*
X156375914Y-115857142D01*
X156375914Y-115857142D02*
X156185438Y-115809523D01*
X156185438Y-115809523D02*
X156090200Y-115714285D01*
X156090200Y-115714285D02*
X156042580Y-115619047D01*
X156042580Y-115619047D02*
X156042580Y-115428571D01*
X156042580Y-115428571D02*
X156090200Y-115333333D01*
X156090200Y-115333333D02*
X156185438Y-115238095D01*
X156185438Y-115238095D02*
X156375914Y-115190476D01*
X156375914Y-115190476D02*
X156709247Y-115190476D01*
X156709247Y-115190476D02*
X156899723Y-115238095D01*
X156899723Y-115238095D02*
X156994961Y-115333333D01*
X156994961Y-115333333D02*
X157042580Y-115428571D01*
X156042580Y-116857142D02*
X156518771Y-116523809D01*
X156042580Y-116285714D02*
X157042580Y-116285714D01*
X157042580Y-116285714D02*
X157042580Y-116666666D01*
X157042580Y-116666666D02*
X156994961Y-116761904D01*
X156994961Y-116761904D02*
X156947342Y-116809523D01*
X156947342Y-116809523D02*
X156852104Y-116857142D01*
X156852104Y-116857142D02*
X156709247Y-116857142D01*
X156709247Y-116857142D02*
X156614009Y-116809523D01*
X156614009Y-116809523D02*
X156566390Y-116761904D01*
X156566390Y-116761904D02*
X156518771Y-116666666D01*
X156518771Y-116666666D02*
X156518771Y-116285714D01*
X156042580Y-117809523D02*
X156042580Y-117238095D01*
X156042580Y-117523809D02*
X157042580Y-117523809D01*
X157042580Y-117523809D02*
X156899723Y-117428571D01*
X156899723Y-117428571D02*
X156804485Y-117333333D01*
X156804485Y-117333333D02*
X156756866Y-117238095D01*
X165055961Y-115428571D02*
X165055961Y-115619047D01*
X165055961Y-115619047D02*
X165008342Y-115714285D01*
X165008342Y-115714285D02*
X164913104Y-115809523D01*
X164913104Y-115809523D02*
X164722628Y-115857142D01*
X164722628Y-115857142D02*
X164389295Y-115857142D01*
X164389295Y-115857142D02*
X164198819Y-115809523D01*
X164198819Y-115809523D02*
X164103581Y-115714285D01*
X164103581Y-115714285D02*
X164055961Y-115619047D01*
X164055961Y-115619047D02*
X164055961Y-115428571D01*
X164055961Y-115428571D02*
X164103581Y-115333333D01*
X164103581Y-115333333D02*
X164198819Y-115238095D01*
X164198819Y-115238095D02*
X164389295Y-115190476D01*
X164389295Y-115190476D02*
X164722628Y-115190476D01*
X164722628Y-115190476D02*
X164913104Y-115238095D01*
X164913104Y-115238095D02*
X165008342Y-115333333D01*
X165008342Y-115333333D02*
X165055961Y-115428571D01*
X164055961Y-116857142D02*
X164532152Y-116523809D01*
X164055961Y-116285714D02*
X165055961Y-116285714D01*
X165055961Y-116285714D02*
X165055961Y-116666666D01*
X165055961Y-116666666D02*
X165008342Y-116761904D01*
X165008342Y-116761904D02*
X164960723Y-116809523D01*
X164960723Y-116809523D02*
X164865485Y-116857142D01*
X164865485Y-116857142D02*
X164722628Y-116857142D01*
X164722628Y-116857142D02*
X164627390Y-116809523D01*
X164627390Y-116809523D02*
X164579771Y-116761904D01*
X164579771Y-116761904D02*
X164532152Y-116666666D01*
X164532152Y-116666666D02*
X164532152Y-116285714D01*
X164960723Y-117238095D02*
X165008342Y-117285714D01*
X165008342Y-117285714D02*
X165055961Y-117380952D01*
X165055961Y-117380952D02*
X165055961Y-117619047D01*
X165055961Y-117619047D02*
X165008342Y-117714285D01*
X165008342Y-117714285D02*
X164960723Y-117761904D01*
X164960723Y-117761904D02*
X164865485Y-117809523D01*
X164865485Y-117809523D02*
X164770247Y-117809523D01*
X164770247Y-117809523D02*
X164627390Y-117761904D01*
X164627390Y-117761904D02*
X164055961Y-117190476D01*
X164055961Y-117190476D02*
X164055961Y-117809523D01*
D11*
X160666666Y-140454819D02*
X160666666Y-141169104D01*
X160666666Y-141169104D02*
X160619047Y-141311961D01*
X160619047Y-141311961D02*
X160523809Y-141407200D01*
X160523809Y-141407200D02*
X160380952Y-141454819D01*
X160380952Y-141454819D02*
X160285714Y-141454819D01*
X161095238Y-140550057D02*
X161142857Y-140502438D01*
X161142857Y-140502438D02*
X161238095Y-140454819D01*
X161238095Y-140454819D02*
X161476190Y-140454819D01*
X161476190Y-140454819D02*
X161571428Y-140502438D01*
X161571428Y-140502438D02*
X161619047Y-140550057D01*
X161619047Y-140550057D02*
X161666666Y-140645295D01*
X161666666Y-140645295D02*
X161666666Y-140740533D01*
X161666666Y-140740533D02*
X161619047Y-140883390D01*
X161619047Y-140883390D02*
X161047619Y-141454819D01*
X161047619Y-141454819D02*
X161666666Y-141454819D01*
X156954819Y-122666666D02*
X156478628Y-122999999D01*
X156954819Y-123238094D02*
X155954819Y-123238094D01*
X155954819Y-123238094D02*
X155954819Y-122857142D01*
X155954819Y-122857142D02*
X156002438Y-122761904D01*
X156002438Y-122761904D02*
X156050057Y-122714285D01*
X156050057Y-122714285D02*
X156145295Y-122666666D01*
X156145295Y-122666666D02*
X156288152Y-122666666D01*
X156288152Y-122666666D02*
X156383390Y-122714285D01*
X156383390Y-122714285D02*
X156431009Y-122761904D01*
X156431009Y-122761904D02*
X156478628Y-122857142D01*
X156478628Y-122857142D02*
X156478628Y-123238094D01*
X156050057Y-122285713D02*
X156002438Y-122238094D01*
X156002438Y-122238094D02*
X155954819Y-122142856D01*
X155954819Y-122142856D02*
X155954819Y-121904761D01*
X155954819Y-121904761D02*
X156002438Y-121809523D01*
X156002438Y-121809523D02*
X156050057Y-121761904D01*
X156050057Y-121761904D02*
X156145295Y-121714285D01*
X156145295Y-121714285D02*
X156240533Y-121714285D01*
X156240533Y-121714285D02*
X156383390Y-121761904D01*
X156383390Y-121761904D02*
X156954819Y-122333332D01*
X156954819Y-122333332D02*
X156954819Y-121714285D01*
X134904761Y-102050057D02*
X134809523Y-102002438D01*
X134809523Y-102002438D02*
X134714285Y-101907200D01*
X134714285Y-101907200D02*
X134571428Y-101764342D01*
X134571428Y-101764342D02*
X134476190Y-101716723D01*
X134476190Y-101716723D02*
X134380952Y-101716723D01*
X134428571Y-101954819D02*
X134333333Y-101907200D01*
X134333333Y-101907200D02*
X134238095Y-101811961D01*
X134238095Y-101811961D02*
X134190476Y-101621485D01*
X134190476Y-101621485D02*
X134190476Y-101288152D01*
X134190476Y-101288152D02*
X134238095Y-101097676D01*
X134238095Y-101097676D02*
X134333333Y-101002438D01*
X134333333Y-101002438D02*
X134428571Y-100954819D01*
X134428571Y-100954819D02*
X134619047Y-100954819D01*
X134619047Y-100954819D02*
X134714285Y-101002438D01*
X134714285Y-101002438D02*
X134809523Y-101097676D01*
X134809523Y-101097676D02*
X134857142Y-101288152D01*
X134857142Y-101288152D02*
X134857142Y-101621485D01*
X134857142Y-101621485D02*
X134809523Y-101811961D01*
X134809523Y-101811961D02*
X134714285Y-101907200D01*
X134714285Y-101907200D02*
X134619047Y-101954819D01*
X134619047Y-101954819D02*
X134428571Y-101954819D01*
X135238095Y-101050057D02*
X135285714Y-101002438D01*
X135285714Y-101002438D02*
X135380952Y-100954819D01*
X135380952Y-100954819D02*
X135619047Y-100954819D01*
X135619047Y-100954819D02*
X135714285Y-101002438D01*
X135714285Y-101002438D02*
X135761904Y-101050057D01*
X135761904Y-101050057D02*
X135809523Y-101145295D01*
X135809523Y-101145295D02*
X135809523Y-101240533D01*
X135809523Y-101240533D02*
X135761904Y-101383390D01*
X135761904Y-101383390D02*
X135190476Y-101954819D01*
X135190476Y-101954819D02*
X135809523Y-101954819D01*
X148666666Y-140449819D02*
X148666666Y-141164104D01*
X148666666Y-141164104D02*
X148619047Y-141306961D01*
X148619047Y-141306961D02*
X148523809Y-141402200D01*
X148523809Y-141402200D02*
X148380952Y-141449819D01*
X148380952Y-141449819D02*
X148285714Y-141449819D01*
X149666666Y-141449819D02*
X149095238Y-141449819D01*
X149380952Y-141449819D02*
X149380952Y-140449819D01*
X149380952Y-140449819D02*
X149285714Y-140592676D01*
X149285714Y-140592676D02*
X149190476Y-140687914D01*
X149190476Y-140687914D02*
X149095238Y-140735533D01*
D10*
X124238095Y-129457419D02*
X124238095Y-130266942D01*
X124238095Y-130266942D02*
X124285714Y-130362180D01*
X124285714Y-130362180D02*
X124333333Y-130409800D01*
X124333333Y-130409800D02*
X124428571Y-130457419D01*
X124428571Y-130457419D02*
X124619047Y-130457419D01*
X124619047Y-130457419D02*
X124714285Y-130409800D01*
X124714285Y-130409800D02*
X124761904Y-130362180D01*
X124761904Y-130362180D02*
X124809523Y-130266942D01*
X124809523Y-130266942D02*
X124809523Y-129457419D01*
X125809523Y-130457419D02*
X125238095Y-130457419D01*
X125523809Y-130457419D02*
X125523809Y-129457419D01*
X125523809Y-129457419D02*
X125428571Y-129600276D01*
X125428571Y-129600276D02*
X125333333Y-129695514D01*
X125333333Y-129695514D02*
X125238095Y-129743133D01*
D11*
X126904761Y-102050057D02*
X126809523Y-102002438D01*
X126809523Y-102002438D02*
X126714285Y-101907200D01*
X126714285Y-101907200D02*
X126571428Y-101764342D01*
X126571428Y-101764342D02*
X126476190Y-101716723D01*
X126476190Y-101716723D02*
X126380952Y-101716723D01*
X126428571Y-101954819D02*
X126333333Y-101907200D01*
X126333333Y-101907200D02*
X126238095Y-101811961D01*
X126238095Y-101811961D02*
X126190476Y-101621485D01*
X126190476Y-101621485D02*
X126190476Y-101288152D01*
X126190476Y-101288152D02*
X126238095Y-101097676D01*
X126238095Y-101097676D02*
X126333333Y-101002438D01*
X126333333Y-101002438D02*
X126428571Y-100954819D01*
X126428571Y-100954819D02*
X126619047Y-100954819D01*
X126619047Y-100954819D02*
X126714285Y-101002438D01*
X126714285Y-101002438D02*
X126809523Y-101097676D01*
X126809523Y-101097676D02*
X126857142Y-101288152D01*
X126857142Y-101288152D02*
X126857142Y-101621485D01*
X126857142Y-101621485D02*
X126809523Y-101811961D01*
X126809523Y-101811961D02*
X126714285Y-101907200D01*
X126714285Y-101907200D02*
X126619047Y-101954819D01*
X126619047Y-101954819D02*
X126428571Y-101954819D01*
X127809523Y-101954819D02*
X127238095Y-101954819D01*
X127523809Y-101954819D02*
X127523809Y-100954819D01*
X127523809Y-100954819D02*
X127428571Y-101097676D01*
X127428571Y-101097676D02*
X127333333Y-101192914D01*
X127333333Y-101192914D02*
X127238095Y-101240533D01*
X151954819Y-126166666D02*
X151478628Y-126499999D01*
X151954819Y-126738094D02*
X150954819Y-126738094D01*
X150954819Y-126738094D02*
X150954819Y-126357142D01*
X150954819Y-126357142D02*
X151002438Y-126261904D01*
X151002438Y-126261904D02*
X151050057Y-126214285D01*
X151050057Y-126214285D02*
X151145295Y-126166666D01*
X151145295Y-126166666D02*
X151288152Y-126166666D01*
X151288152Y-126166666D02*
X151383390Y-126214285D01*
X151383390Y-126214285D02*
X151431009Y-126261904D01*
X151431009Y-126261904D02*
X151478628Y-126357142D01*
X151478628Y-126357142D02*
X151478628Y-126738094D01*
X151954819Y-125214285D02*
X151954819Y-125785713D01*
X151954819Y-125499999D02*
X150954819Y-125499999D01*
X150954819Y-125499999D02*
X151097676Y-125595237D01*
X151097676Y-125595237D02*
X151192914Y-125690475D01*
X151192914Y-125690475D02*
X151240533Y-125785713D01*
X125023809Y-93502438D02*
X124928571Y-93454819D01*
X124928571Y-93454819D02*
X124785714Y-93454819D01*
X124785714Y-93454819D02*
X124642857Y-93502438D01*
X124642857Y-93502438D02*
X124547619Y-93597676D01*
X124547619Y-93597676D02*
X124500000Y-93692914D01*
X124500000Y-93692914D02*
X124452381Y-93883390D01*
X124452381Y-93883390D02*
X124452381Y-94026247D01*
X124452381Y-94026247D02*
X124500000Y-94216723D01*
X124500000Y-94216723D02*
X124547619Y-94311961D01*
X124547619Y-94311961D02*
X124642857Y-94407200D01*
X124642857Y-94407200D02*
X124785714Y-94454819D01*
X124785714Y-94454819D02*
X124880952Y-94454819D01*
X124880952Y-94454819D02*
X125023809Y-94407200D01*
X125023809Y-94407200D02*
X125071428Y-94359580D01*
X125071428Y-94359580D02*
X125071428Y-94026247D01*
X125071428Y-94026247D02*
X124880952Y-94026247D01*
X125500000Y-94454819D02*
X125500000Y-93454819D01*
X125500000Y-93454819D02*
X125880952Y-93454819D01*
X125880952Y-93454819D02*
X125976190Y-93502438D01*
X125976190Y-93502438D02*
X126023809Y-93550057D01*
X126023809Y-93550057D02*
X126071428Y-93645295D01*
X126071428Y-93645295D02*
X126071428Y-93788152D01*
X126071428Y-93788152D02*
X126023809Y-93883390D01*
X126023809Y-93883390D02*
X125976190Y-93931009D01*
X125976190Y-93931009D02*
X125880952Y-93978628D01*
X125880952Y-93978628D02*
X125500000Y-93978628D01*
X126500000Y-94454819D02*
X126500000Y-93454819D01*
X127166666Y-93454819D02*
X127357142Y-93454819D01*
X127357142Y-93454819D02*
X127452380Y-93502438D01*
X127452380Y-93502438D02*
X127547618Y-93597676D01*
X127547618Y-93597676D02*
X127595237Y-93788152D01*
X127595237Y-93788152D02*
X127595237Y-94121485D01*
X127595237Y-94121485D02*
X127547618Y-94311961D01*
X127547618Y-94311961D02*
X127452380Y-94407200D01*
X127452380Y-94407200D02*
X127357142Y-94454819D01*
X127357142Y-94454819D02*
X127166666Y-94454819D01*
X127166666Y-94454819D02*
X127071428Y-94407200D01*
X127071428Y-94407200D02*
X126976190Y-94311961D01*
X126976190Y-94311961D02*
X126928571Y-94121485D01*
X126928571Y-94121485D02*
X126928571Y-93788152D01*
X126928571Y-93788152D02*
X126976190Y-93597676D01*
X126976190Y-93597676D02*
X127071428Y-93502438D01*
X127071428Y-93502438D02*
X127166666Y-93454819D01*
X128547618Y-94454819D02*
X127976190Y-94454819D01*
X128261904Y-94454819D02*
X128261904Y-93454819D01*
X128261904Y-93454819D02*
X128166666Y-93597676D01*
X128166666Y-93597676D02*
X128071428Y-93692914D01*
X128071428Y-93692914D02*
X127976190Y-93740533D01*
D10*
%TO.C,OR1*%
X160500000Y-108340000D02*
X160500000Y-112912000D01*
X163548000Y-113420000D02*
X161516000Y-113420000D01*
X157452000Y-113420000D02*
X159484000Y-113420000D01*
X163548000Y-121040000D02*
X163548000Y-113420000D01*
X157452000Y-121040000D02*
X157452000Y-113420000D01*
X163548000Y-123580000D02*
X163548000Y-121929000D01*
X163548000Y-123580000D02*
X161516000Y-123580000D01*
X157452000Y-123580000D02*
X157452000Y-121929000D01*
X157452000Y-123580000D02*
X159484000Y-123580000D01*
X160500000Y-124088000D02*
X160500000Y-128660000D01*
X163548000Y-121040000D02*
X157452000Y-121040000D01*
X157452000Y-121802000D01*
X163548000Y-121802000D01*
X163548000Y-121040000D01*
X163548000Y-121040000D02*
X157452000Y-121040000D01*
X157452000Y-121929000D01*
X163548000Y-121929000D01*
X163548000Y-121040000D01*
G36*
X163548000Y-121040000D02*
G01*
X157452000Y-121040000D01*
X157452000Y-121929000D01*
X163548000Y-121929000D01*
X163548000Y-121040000D01*
G37*
X161516000Y-107324000D02*
G75*
G02*
X159484000Y-107324000I-1016000J0D01*
G01*
X159484000Y-107324000D02*
G75*
G02*
X161516000Y-107324000I1016000J0D01*
G01*
X161516000Y-129676000D02*
G75*
G02*
X159484000Y-129676000I-1016000J0D01*
G01*
X159484000Y-129676000D02*
G75*
G02*
X161516000Y-129676000I1016000J0D01*
G01*
%TO.C,OR2*%
X168548000Y-108340000D02*
X168548000Y-112912000D01*
X171596000Y-113420000D02*
X169564000Y-113420000D01*
X165500000Y-113420000D02*
X167532000Y-113420000D01*
X171596000Y-121040000D02*
X171596000Y-113420000D01*
X165500000Y-121040000D02*
X165500000Y-113420000D01*
X171596000Y-123580000D02*
X171596000Y-121929000D01*
X171596000Y-123580000D02*
X169564000Y-123580000D01*
X165500000Y-123580000D02*
X165500000Y-121929000D01*
X165500000Y-123580000D02*
X167532000Y-123580000D01*
X168548000Y-124088000D02*
X168548000Y-128660000D01*
X171596000Y-121040000D02*
X165500000Y-121040000D01*
X165500000Y-121802000D01*
X171596000Y-121802000D01*
X171596000Y-121040000D01*
X171596000Y-121040000D02*
X165500000Y-121040000D01*
X165500000Y-121929000D01*
X171596000Y-121929000D01*
X171596000Y-121040000D01*
G36*
X171596000Y-121040000D02*
G01*
X165500000Y-121040000D01*
X165500000Y-121929000D01*
X171596000Y-121929000D01*
X171596000Y-121040000D01*
G37*
X169564000Y-107324000D02*
G75*
G02*
X167532000Y-107324000I-1016000J0D01*
G01*
X167532000Y-107324000D02*
G75*
G02*
X169564000Y-107324000I1016000J0D01*
G01*
X169564000Y-129676000D02*
G75*
G02*
X167532000Y-129676000I-1016000J0D01*
G01*
X167532000Y-129676000D02*
G75*
G02*
X169564000Y-129676000I1016000J0D01*
G01*
%TO.C,J2*%
X168600000Y-134000000D02*
X168100000Y-134000000D01*
X168600000Y-134000000D02*
X168600000Y-134500000D01*
X168600000Y-140000000D02*
X168100000Y-140000000D01*
X168600000Y-140000000D02*
X168600000Y-139500000D01*
X160400000Y-134000000D02*
X160900000Y-134000000D01*
X160400000Y-134000000D02*
X160400000Y-134500000D01*
X160400000Y-140000000D02*
X160900000Y-140000000D01*
X160400000Y-140000000D02*
X160400000Y-139500000D01*
D12*
%TO.C,R2*%
X152750000Y-123300000D02*
X155250000Y-123300000D01*
X155250000Y-123300000D02*
X155250000Y-105700000D01*
X155250000Y-105700000D02*
X152750000Y-105700000D01*
X152750000Y-105700000D02*
X152750000Y-123300000D01*
D13*
%TO.C,Q2*%
X132618500Y-99270000D02*
G75*
G02*
X132364500Y-99270000I-127000J0D01*
G01*
X132364500Y-99270000D02*
G75*
G02*
X132618500Y-99270000I127000J0D01*
G01*
X134936494Y-100349500D02*
X139063506Y-100349500D01*
X139730500Y-98635001D02*
G75*
G02*
X139164164Y-100299940I-2730500J1D01*
G01*
X134835833Y-100299936D02*
G75*
G02*
X139730500Y-98635000I2164167J1664936D01*
G01*
D10*
%TO.C,J1*%
X148400000Y-139995000D02*
X148400000Y-139495000D01*
X148400000Y-139995000D02*
X148900000Y-139995000D01*
X148400000Y-133995000D02*
X148400000Y-134495000D01*
X148400000Y-133995000D02*
X148900000Y-133995000D01*
X156600000Y-139995000D02*
X156600000Y-139495000D01*
X156600000Y-139995000D02*
X156100000Y-139995000D01*
X156600000Y-133995000D02*
X156600000Y-134495000D01*
X156600000Y-133995000D02*
X156100000Y-133995000D01*
%TO.C,U1*%
X123450000Y-106958000D02*
X145040000Y-106958000D01*
X145040000Y-128548000D01*
X123450000Y-128548000D01*
X123450000Y-106958000D01*
D13*
%TO.C,Q1*%
X127166494Y-100222500D02*
X131293506Y-100222500D01*
X127065833Y-100172936D02*
G75*
G02*
X131960500Y-98508000I2164167J1664936D01*
G01*
X131960500Y-98508001D02*
G75*
G02*
X131394164Y-100172940I-2730500J1D01*
G01*
X124848500Y-99143000D02*
G75*
G02*
X124594500Y-99143000I-127000J0D01*
G01*
X124594500Y-99143000D02*
G75*
G02*
X124848500Y-99143000I127000J0D01*
G01*
D12*
%TO.C,R1*%
X147750000Y-126800000D02*
X150250000Y-126800000D01*
X150250000Y-126800000D02*
X150250000Y-109200000D01*
X147750000Y-109200000D02*
X147750000Y-126800000D01*
X150250000Y-109200000D02*
X147750000Y-109200000D01*
D14*
%TO.C,GPIO1*%
X124495000Y-86855000D02*
X175515000Y-86855000D01*
X124495000Y-89505000D02*
X124495000Y-86855000D01*
X124495000Y-92155000D02*
X124495000Y-90775000D01*
X125875000Y-92155000D02*
X124495000Y-92155000D01*
X127145000Y-89505000D02*
X124495000Y-89505000D01*
X127145000Y-92155000D02*
X127145000Y-89505000D01*
X127145000Y-92155000D02*
X175515000Y-92155000D01*
X175515000Y-92155000D02*
X175515000Y-86855000D01*
%TD*%
M02*
