M48
; DRILL file {KiCad 9.0.6} date 2025-12-18T18:13:39-0500
; FORMAT={-:-/ absolute / metric / decimal}
; #@! TF.CreationDate,2025-12-18T18:13:39-05:00
; #@! TF.GenerationSoftware,Kicad,Pcbnew,9.0.6
; #@! TF.FileFunction,Plated,1,4,PTH
FMAT,2
METRIC
; #@! TA.AperFunction,Plated,PTH,ComponentDrill
T1C0.700
; #@! TA.AperFunction,Plated,PTH,ComponentDrill
T2C0.762
; #@! TA.AperFunction,Plated,PTH,ComponentDrill
T3C0.813
; #@! TA.AperFunction,Plated,PTH,ComponentDrill
T4C0.889
; #@! TA.AperFunction,Plated,PTH,ComponentDrill
T5C1.000
; #@! TA.AperFunction,Plated,PTH,ComponentDrill
T6C1.100
; #@! TA.AperFunction,Plated,PTH,ComponentDrill
T7C2.700
%
G90
G05
T1
X149.0Y-110.38
X149.0Y-125.62
X154.0Y-106.88
X154.0Y-122.12
T2
X160.5Y-107.324
X160.5Y-114.055
X160.5Y-122.945
X160.5Y-129.676
X168.548Y-107.324
X168.548Y-114.055
X168.548Y-122.945
X168.548Y-129.676
T3
X127.96Y-99.143
X129.23Y-97.873
X130.5Y-99.143
X135.73Y-99.27
X137.0Y-98.0
X138.27Y-99.27
T4
X125.99Y-110.26
X125.99Y-112.8
X125.99Y-115.34
X125.99Y-117.88
X125.99Y-120.42
X125.99Y-122.96
X125.99Y-125.5
X142.5Y-110.26
X142.5Y-125.5
T5
X125.875Y-88.235
X125.875Y-90.775
X128.415Y-88.235
X128.415Y-90.775
X130.955Y-88.235
X130.955Y-90.775
X133.495Y-88.235
X133.495Y-90.775
X136.035Y-88.235
X136.035Y-90.775
X138.575Y-88.235
X138.575Y-90.775
X141.115Y-88.235
X141.115Y-90.775
X143.655Y-88.235
X143.655Y-90.775
X146.195Y-88.235
X146.195Y-90.775
X148.735Y-88.235
X148.735Y-90.775
X151.275Y-88.235
X151.275Y-90.775
X153.815Y-88.235
X153.815Y-90.775
X156.355Y-88.235
X156.355Y-90.775
X158.895Y-88.235
X158.895Y-90.775
X161.435Y-88.235
X161.435Y-90.775
X163.975Y-88.235
X163.975Y-90.775
X166.515Y-88.235
X166.515Y-90.775
X169.055Y-88.235
X169.055Y-90.775
X171.595Y-88.235
X171.595Y-90.775
X174.135Y-88.235
X174.135Y-90.775
T6
X151.5Y-136.995
X154.0Y-136.995
X163.5Y-137.0
X166.0Y-137.0
T7
X121.0Y-89.5
X121.0Y-138.5
X179.0Y-89.5
X179.0Y-138.5
M30
