%TF.GenerationSoftware,KiCad,Pcbnew,9.0.6*%
%TF.CreationDate,2025-12-18T18:12:59-05:00*%
%TF.ProjectId,HV Pi Hat,48562050-6920-4486-9174-2e6b69636164,rev?*%
%TF.SameCoordinates,Original*%
%TF.FileFunction,Copper,L3,Inr*%
%TF.FilePolarity,Positive*%
%FSLAX46Y46*%
G04 Gerber Fmt 4.6, Leading zero omitted, Abs format (unit mm)*
G04 Created by KiCad (PCBNEW 9.0.6) date 2025-12-18 18:12:59*
%MOMM*%
%LPD*%
G01*
G04 APERTURE LIST*
%TA.AperFunction,ComponentPad*%
%ADD10C,1.524000*%
%TD*%
%TA.AperFunction,ComponentPad*%
%ADD11C,2.100000*%
%TD*%
%TA.AperFunction,ComponentPad*%
%ADD12C,1.208000*%
%TD*%
%TA.AperFunction,ComponentPad*%
%ADD13C,1.320800*%
%TD*%
%TA.AperFunction,ComponentPad*%
%ADD14C,1.651000*%
%TD*%
%TA.AperFunction,ComponentPad*%
%ADD15C,3.100000*%
%TD*%
%TA.AperFunction,ComponentPad*%
%ADD16R,1.700000X1.700000*%
%TD*%
%TA.AperFunction,ComponentPad*%
%ADD17C,1.700000*%
%TD*%
%TA.AperFunction,Conductor*%
%ADD18C,0.200000*%
%TD*%
G04 APERTURE END LIST*
D10*
%TO.N,Net-(OR1-GND)*%
%TO.C,OR1*%
X160500000Y-122945000D03*
%TO.N,+5V*%
X160500000Y-114055000D03*
%TO.N,Net-(OR1-HVIN)*%
X160500000Y-107324000D03*
%TO.N,/<NO NET>*%
X160500000Y-129676000D03*
%TD*%
%TO.N,Net-(OR2-GND)*%
%TO.C,OR2*%
X168548000Y-122945000D03*
%TO.N,+5V*%
X168548000Y-114055000D03*
%TO.N,Net-(OR1-HVIN)*%
X168548000Y-107324000D03*
%TO.N,Net-(OR2-HVOUT)*%
X168548000Y-129676000D03*
%TD*%
D11*
%TO.N,Net-(J2-Pad2)*%
%TO.C,J2*%
X163500000Y-137000000D03*
%TO.N,Net-(OR2-HVOUT)*%
X166000000Y-137000000D03*
%TD*%
D12*
%TO.N,Net-(J2-Pad2)*%
%TO.C,R2*%
X154000000Y-122120000D03*
%TO.N,GND*%
X154000000Y-106880000D03*
%TD*%
D13*
%TO.N,GND*%
%TO.C,Q2*%
X135730000Y-99270000D03*
%TO.N,Net-(GPIO1-GPIO_26)*%
X137000000Y-98000000D03*
%TO.N,Net-(OR2-GND)*%
X138270000Y-99270000D03*
%TD*%
D11*
%TO.N,/<NO NET>*%
%TO.C,J1*%
X154000000Y-136995000D03*
%TO.N,Net-(J1-Pad2)*%
X151500000Y-136995000D03*
%TD*%
D14*
%TO.N,+5V*%
%TO.C,U1*%
X125990000Y-110260000D03*
%TO.N,GND*%
X125990000Y-112800000D03*
%TO.N,Net-(GPIO1-GPIO_12)*%
X125990000Y-115340000D03*
%TO.N,unconnected-(U1-Free-Pad4)*%
X125990000Y-117880000D03*
%TO.N,unconnected-(U1-VMON-Pad5)*%
X125990000Y-120420000D03*
%TO.N,unconnected-(U1-IMON-Pad6)*%
X125990000Y-122960000D03*
%TO.N,unconnected-(U1-ILIMIT-Pad7)*%
X125990000Y-125500000D03*
%TO.N,Net-(OR1-HVIN)*%
X142500000Y-125500000D03*
%TO.N,GND*%
X142500000Y-110260000D03*
%TD*%
D15*
%TO.N,N/C*%
%TO.C,REF\u002A\u002A*%
X179000000Y-89500000D03*
%TD*%
%TO.N,N/C*%
%TO.C,REF\u002A\u002A*%
X121000000Y-89500000D03*
%TD*%
D13*
%TO.N,GND*%
%TO.C,Q1*%
X127960000Y-99143000D03*
%TO.N,Net-(GPIO1-GPIO_1)*%
X129230000Y-97873000D03*
%TO.N,Net-(OR1-GND)*%
X130500000Y-99143000D03*
%TD*%
D15*
%TO.N,N/C*%
%TO.C,REF\u002A\u002A*%
X121000000Y-138500000D03*
%TD*%
D12*
%TO.N,Net-(J1-Pad2)*%
%TO.C,R1*%
X149000000Y-125620000D03*
%TO.N,GND*%
X149000000Y-110380000D03*
%TD*%
D16*
%TO.N,unconnected-(GPIO1-3.3V-Pad1)*%
%TO.C,GPIO1*%
X125875000Y-90775000D03*
D17*
%TO.N,+5V*%
X125875000Y-88235000D03*
%TO.N,unconnected-(GPIO1-GPIO_2-Pad3)*%
X128415000Y-90775000D03*
%TO.N,unconnected-(GPIO1-5V-Pad4)*%
X128415000Y-88235000D03*
%TO.N,unconnected-(GPIO1-GPIO_3-Pad5)*%
X130955000Y-90775000D03*
%TO.N,GND*%
X130955000Y-88235000D03*
%TO.N,unconnected-(GPIO1-GPIO_4-Pad7)*%
X133495000Y-90775000D03*
%TO.N,unconnected-(GPIO1-GPIO_14-Pad8)*%
X133495000Y-88235000D03*
%TO.N,unconnected-(GPIO1-GND-Pad9)*%
X136035000Y-90775000D03*
%TO.N,unconnected-(GPIO1-GPIO_15-Pad10)*%
X136035000Y-88235000D03*
%TO.N,unconnected-(GPIO1-GPIO_17-Pad11)*%
X138575000Y-90775000D03*
%TO.N,unconnected-(GPIO1-GPIO_18-Pad12)*%
X138575000Y-88235000D03*
%TO.N,unconnected-(GPIO1-GPIO_27-Pad13)*%
X141115000Y-90775000D03*
%TO.N,unconnected-(GPIO1-GND-Pad14)*%
X141115000Y-88235000D03*
%TO.N,unconnected-(GPIO1-GPIO_22-Pad15)*%
X143655000Y-90775000D03*
%TO.N,unconnected-(GPIO1-GPIO_23-Pad16)*%
X143655000Y-88235000D03*
%TO.N,unconnected-(GPIO1-3.3V-Pad17)*%
X146195000Y-90775000D03*
%TO.N,unconnected-(GPIO1-GPIO_24-Pad18)*%
X146195000Y-88235000D03*
%TO.N,unconnected-(GPIO1-GPIO_10-Pad19)*%
X148735000Y-90775000D03*
%TO.N,unconnected-(GPIO1-GND-Pad20)*%
X148735000Y-88235000D03*
%TO.N,unconnected-(GPIO1-GPIO_9-Pad21)*%
X151275000Y-90775000D03*
%TO.N,unconnected-(GPIO1-GPIO_25-Pad22)*%
X151275000Y-88235000D03*
%TO.N,unconnected-(GPIO1-GPIO_11-Pad23)*%
X153815000Y-90775000D03*
%TO.N,unconnected-(GPIO1-GPIO_8-Pad24)*%
X153815000Y-88235000D03*
%TO.N,unconnected-(GPIO1-GND-Pad25)*%
X156355000Y-90775000D03*
%TO.N,unconnected-(GPIO1-GPIO_7-Pad26)*%
X156355000Y-88235000D03*
%TO.N,unconnected-(GPIO1-GPIO_0-Pad27)*%
X158895000Y-90775000D03*
%TO.N,Net-(GPIO1-GPIO_1)*%
X158895000Y-88235000D03*
%TO.N,unconnected-(GPIO1-GPIO_5-Pad29)*%
X161435000Y-90775000D03*
%TO.N,unconnected-(GPIO1-GND-Pad30)*%
X161435000Y-88235000D03*
%TO.N,unconnected-(GPIO1-GPIO_6-Pad31)*%
X163975000Y-90775000D03*
%TO.N,Net-(GPIO1-GPIO_12)*%
X163975000Y-88235000D03*
%TO.N,unconnected-(GPIO1-GPIO_13-Pad33)*%
X166515000Y-90775000D03*
%TO.N,unconnected-(GPIO1-GND-Pad34)*%
X166515000Y-88235000D03*
%TO.N,unconnected-(GPIO1-GPIO_19-Pad35)*%
X169055000Y-90775000D03*
%TO.N,unconnected-(GPIO1-GPIO_16-Pad36)*%
X169055000Y-88235000D03*
%TO.N,Net-(GPIO1-GPIO_26)*%
X171595000Y-90775000D03*
%TO.N,unconnected-(GPIO1-GPIO_20-Pad38)*%
X171595000Y-88235000D03*
%TO.N,unconnected-(GPIO1-GND-Pad39)*%
X174135000Y-90775000D03*
%TO.N,unconnected-(GPIO1-GPIO_21-Pad40)*%
X174135000Y-88235000D03*
%TD*%
D15*
%TO.N,N/C*%
%TO.C,REF\u002A\u002A*%
X179000000Y-138500000D03*
%TD*%
D18*
%TO.N,GND*%
X129707466Y-89482534D02*
X130955000Y-88235000D01*
X129707466Y-91348294D02*
X129707466Y-89482534D01*
X127960000Y-93095760D02*
X129707466Y-91348294D01*
X127960000Y-99143000D02*
X127960000Y-93095760D01*
X142500000Y-110260000D02*
X139960000Y-112800000D01*
X139960000Y-112800000D02*
X125990000Y-112800000D01*
X148620000Y-110380000D02*
X148500000Y-110260000D01*
X149000000Y-110380000D02*
X148620000Y-110380000D01*
X148500000Y-110260000D02*
X142500000Y-110260000D01*
X150500000Y-110380000D02*
X149000000Y-110380000D01*
X154000000Y-106880000D02*
X150500000Y-110380000D01*
X130000000Y-105000000D02*
X127960000Y-105000000D01*
X135730000Y-99270000D02*
X130000000Y-105000000D01*
X127960000Y-110830000D02*
X127960000Y-105000000D01*
X127960000Y-105000000D02*
X127960000Y-99143000D01*
X125990000Y-112800000D02*
X127960000Y-110830000D01*
%TD*%
%TA.AperFunction,Conductor*%
%TO.N,GND*%
G36*
X124797412Y-86520185D02*
G01*
X124843167Y-86572989D01*
X124853111Y-86642147D01*
X124824086Y-86705703D01*
X124805859Y-86722876D01*
X124652263Y-86840733D01*
X124652256Y-86840739D01*
X124480739Y-87012256D01*
X124480733Y-87012263D01*
X124333067Y-87204706D01*
X124333064Y-87204710D01*
X124333064Y-87204711D01*
X124328350Y-87212876D01*
X124211777Y-87414785D01*
X124211773Y-87414794D01*
X124118947Y-87638895D01*
X124056161Y-87873214D01*
X124024500Y-88113711D01*
X124024500Y-88356288D01*
X124056161Y-88596785D01*
X124118947Y-88831104D01*
X124211773Y-89055205D01*
X124211777Y-89055215D01*
X124264976Y-89147358D01*
X124281449Y-89215259D01*
X124258596Y-89281285D01*
X124253692Y-89287718D01*
X124185303Y-89371591D01*
X124091089Y-89551954D01*
X124046332Y-89708376D01*
X124035936Y-89744711D01*
X124035114Y-89747583D01*
X124035113Y-89747586D01*
X124024500Y-89866966D01*
X124024500Y-91683028D01*
X124024501Y-91683034D01*
X124035113Y-91802415D01*
X124091089Y-91998045D01*
X124091090Y-91998048D01*
X124091091Y-91998049D01*
X124185302Y-92178407D01*
X124185304Y-92178409D01*
X124313890Y-92336109D01*
X124373879Y-92385023D01*
X124471593Y-92464698D01*
X124651951Y-92558909D01*
X124847582Y-92614886D01*
X124966963Y-92625500D01*
X126783036Y-92625499D01*
X126902418Y-92614886D01*
X127098049Y-92558909D01*
X127278407Y-92464698D01*
X127362279Y-92396308D01*
X127426674Y-92369199D01*
X127495504Y-92381208D01*
X127502639Y-92385023D01*
X127594777Y-92438218D01*
X127594780Y-92438219D01*
X127594788Y-92438224D01*
X127818900Y-92531054D01*
X128053211Y-92593838D01*
X128233586Y-92617584D01*
X128293711Y-92625500D01*
X128293712Y-92625500D01*
X128536289Y-92625500D01*
X128584388Y-92619167D01*
X128776789Y-92593838D01*
X129011100Y-92531054D01*
X129235212Y-92438224D01*
X129445289Y-92316936D01*
X129609514Y-92190922D01*
X129674683Y-92165728D01*
X129743128Y-92179766D01*
X129760486Y-92190922D01*
X129924711Y-92316936D01*
X130134788Y-92438224D01*
X130358900Y-92531054D01*
X130593211Y-92593838D01*
X130773586Y-92617584D01*
X130833711Y-92625500D01*
X130833712Y-92625500D01*
X131076289Y-92625500D01*
X131124388Y-92619167D01*
X131316789Y-92593838D01*
X131551100Y-92531054D01*
X131775212Y-92438224D01*
X131985289Y-92316936D01*
X132149514Y-92190922D01*
X132214683Y-92165728D01*
X132283128Y-92179766D01*
X132300486Y-92190922D01*
X132464711Y-92316936D01*
X132674788Y-92438224D01*
X132898900Y-92531054D01*
X133133211Y-92593838D01*
X133313586Y-92617584D01*
X133373711Y-92625500D01*
X133373712Y-92625500D01*
X133616289Y-92625500D01*
X133664388Y-92619167D01*
X133856789Y-92593838D01*
X134091100Y-92531054D01*
X134315212Y-92438224D01*
X134525289Y-92316936D01*
X134689514Y-92190922D01*
X134754683Y-92165728D01*
X134823128Y-92179766D01*
X134840486Y-92190922D01*
X135004711Y-92316936D01*
X135214788Y-92438224D01*
X135438900Y-92531054D01*
X135673211Y-92593838D01*
X135853586Y-92617584D01*
X135913711Y-92625500D01*
X135913712Y-92625500D01*
X136156289Y-92625500D01*
X136204388Y-92619167D01*
X136396789Y-92593838D01*
X136631100Y-92531054D01*
X136855212Y-92438224D01*
X137065289Y-92316936D01*
X137229514Y-92190922D01*
X137294683Y-92165728D01*
X137363128Y-92179766D01*
X137380486Y-92190922D01*
X137544711Y-92316936D01*
X137754788Y-92438224D01*
X137978900Y-92531054D01*
X138213211Y-92593838D01*
X138393586Y-92617584D01*
X138453711Y-92625500D01*
X138453712Y-92625500D01*
X138696289Y-92625500D01*
X138744388Y-92619167D01*
X138936789Y-92593838D01*
X139171100Y-92531054D01*
X139395212Y-92438224D01*
X139605289Y-92316936D01*
X139769514Y-92190922D01*
X139834683Y-92165728D01*
X139903128Y-92179766D01*
X139920486Y-92190922D01*
X140084711Y-92316936D01*
X140294788Y-92438224D01*
X140518900Y-92531054D01*
X140753211Y-92593838D01*
X140933586Y-92617584D01*
X140993711Y-92625500D01*
X140993712Y-92625500D01*
X141236289Y-92625500D01*
X141284388Y-92619167D01*
X141476789Y-92593838D01*
X141711100Y-92531054D01*
X141935212Y-92438224D01*
X142145289Y-92316936D01*
X142309514Y-92190922D01*
X142374683Y-92165728D01*
X142443128Y-92179766D01*
X142460486Y-92190922D01*
X142624711Y-92316936D01*
X142834788Y-92438224D01*
X143058900Y-92531054D01*
X143293211Y-92593838D01*
X143473586Y-92617584D01*
X143533711Y-92625500D01*
X143533712Y-92625500D01*
X143776289Y-92625500D01*
X143824388Y-92619167D01*
X144016789Y-92593838D01*
X144251100Y-92531054D01*
X144475212Y-92438224D01*
X144685289Y-92316936D01*
X144849514Y-92190922D01*
X144914683Y-92165728D01*
X144983128Y-92179766D01*
X145000486Y-92190922D01*
X145164711Y-92316936D01*
X145374788Y-92438224D01*
X145598900Y-92531054D01*
X145833211Y-92593838D01*
X146013586Y-92617584D01*
X146073711Y-92625500D01*
X146073712Y-92625500D01*
X146316289Y-92625500D01*
X146364388Y-92619167D01*
X146556789Y-92593838D01*
X146791100Y-92531054D01*
X147015212Y-92438224D01*
X147225289Y-92316936D01*
X147389514Y-92190922D01*
X147454683Y-92165728D01*
X147523128Y-92179766D01*
X147540486Y-92190922D01*
X147704711Y-92316936D01*
X147914788Y-92438224D01*
X148138900Y-92531054D01*
X148373211Y-92593838D01*
X148553586Y-92617584D01*
X148613711Y-92625500D01*
X148613712Y-92625500D01*
X148856289Y-92625500D01*
X148904388Y-92619167D01*
X149096789Y-92593838D01*
X149331100Y-92531054D01*
X149555212Y-92438224D01*
X149765289Y-92316936D01*
X149929514Y-92190922D01*
X149994683Y-92165728D01*
X150063128Y-92179766D01*
X150080486Y-92190922D01*
X150244711Y-92316936D01*
X150454788Y-92438224D01*
X150678900Y-92531054D01*
X150913211Y-92593838D01*
X151093586Y-92617584D01*
X151153711Y-92625500D01*
X151153712Y-92625500D01*
X151396289Y-92625500D01*
X151444388Y-92619167D01*
X151636789Y-92593838D01*
X151871100Y-92531054D01*
X152095212Y-92438224D01*
X152305289Y-92316936D01*
X152469514Y-92190922D01*
X152534683Y-92165728D01*
X152603128Y-92179766D01*
X152620486Y-92190922D01*
X152784711Y-92316936D01*
X152994788Y-92438224D01*
X153218900Y-92531054D01*
X153453211Y-92593838D01*
X153633586Y-92617584D01*
X153693711Y-92625500D01*
X153693712Y-92625500D01*
X153936289Y-92625500D01*
X153984388Y-92619167D01*
X154176789Y-92593838D01*
X154411100Y-92531054D01*
X154635212Y-92438224D01*
X154845289Y-92316936D01*
X155009514Y-92190922D01*
X155074683Y-92165728D01*
X155143128Y-92179766D01*
X155160486Y-92190922D01*
X155324711Y-92316936D01*
X155534788Y-92438224D01*
X155758900Y-92531054D01*
X155993211Y-92593838D01*
X156173586Y-92617584D01*
X156233711Y-92625500D01*
X156233712Y-92625500D01*
X156476289Y-92625500D01*
X156524388Y-92619167D01*
X156716789Y-92593838D01*
X156951100Y-92531054D01*
X157175212Y-92438224D01*
X157385289Y-92316936D01*
X157549514Y-92190922D01*
X157614683Y-92165728D01*
X157683128Y-92179766D01*
X157700486Y-92190922D01*
X157864711Y-92316936D01*
X158074788Y-92438224D01*
X158298900Y-92531054D01*
X158533211Y-92593838D01*
X158713586Y-92617584D01*
X158773711Y-92625500D01*
X158773712Y-92625500D01*
X159016289Y-92625500D01*
X159064388Y-92619167D01*
X159256789Y-92593838D01*
X159491100Y-92531054D01*
X159715212Y-92438224D01*
X159925289Y-92316936D01*
X160089514Y-92190922D01*
X160154683Y-92165728D01*
X160223128Y-92179766D01*
X160240486Y-92190922D01*
X160404711Y-92316936D01*
X160614788Y-92438224D01*
X160838900Y-92531054D01*
X161073211Y-92593838D01*
X161253586Y-92617584D01*
X161313711Y-92625500D01*
X161313712Y-92625500D01*
X161556289Y-92625500D01*
X161604388Y-92619167D01*
X161796789Y-92593838D01*
X162031100Y-92531054D01*
X162255212Y-92438224D01*
X162465289Y-92316936D01*
X162629514Y-92190922D01*
X162694683Y-92165728D01*
X162763128Y-92179766D01*
X162780486Y-92190922D01*
X162944711Y-92316936D01*
X163154788Y-92438224D01*
X163378900Y-92531054D01*
X163613211Y-92593838D01*
X163793586Y-92617584D01*
X163853711Y-92625500D01*
X163853712Y-92625500D01*
X164096289Y-92625500D01*
X164144388Y-92619167D01*
X164336789Y-92593838D01*
X164571100Y-92531054D01*
X164795212Y-92438224D01*
X165005289Y-92316936D01*
X165169514Y-92190922D01*
X165234683Y-92165728D01*
X165303128Y-92179766D01*
X165320486Y-92190922D01*
X165484711Y-92316936D01*
X165694788Y-92438224D01*
X165918900Y-92531054D01*
X166153211Y-92593838D01*
X166333586Y-92617584D01*
X166393711Y-92625500D01*
X166393712Y-92625500D01*
X166636289Y-92625500D01*
X166684388Y-92619167D01*
X166876789Y-92593838D01*
X167111100Y-92531054D01*
X167335212Y-92438224D01*
X167545289Y-92316936D01*
X167709514Y-92190922D01*
X167774683Y-92165728D01*
X167843128Y-92179766D01*
X167860486Y-92190922D01*
X168024711Y-92316936D01*
X168234788Y-92438224D01*
X168458900Y-92531054D01*
X168693211Y-92593838D01*
X168873586Y-92617584D01*
X168933711Y-92625500D01*
X168933712Y-92625500D01*
X169176289Y-92625500D01*
X169224388Y-92619167D01*
X169416789Y-92593838D01*
X169651100Y-92531054D01*
X169875212Y-92438224D01*
X170085289Y-92316936D01*
X170249514Y-92190922D01*
X170314683Y-92165728D01*
X170383128Y-92179766D01*
X170400486Y-92190922D01*
X170564711Y-92316936D01*
X170774788Y-92438224D01*
X170998900Y-92531054D01*
X171233211Y-92593838D01*
X171413586Y-92617584D01*
X171473711Y-92625500D01*
X171473712Y-92625500D01*
X171716289Y-92625500D01*
X171764388Y-92619167D01*
X171956789Y-92593838D01*
X172191100Y-92531054D01*
X172415212Y-92438224D01*
X172625289Y-92316936D01*
X172789514Y-92190922D01*
X172854683Y-92165728D01*
X172923128Y-92179766D01*
X172940486Y-92190922D01*
X173104711Y-92316936D01*
X173314788Y-92438224D01*
X173538900Y-92531054D01*
X173773211Y-92593838D01*
X173953586Y-92617584D01*
X174013711Y-92625500D01*
X174013712Y-92625500D01*
X174256289Y-92625500D01*
X174304388Y-92619167D01*
X174496789Y-92593838D01*
X174731100Y-92531054D01*
X174955212Y-92438224D01*
X175165289Y-92316936D01*
X175357738Y-92169265D01*
X175529265Y-91997738D01*
X175676936Y-91805289D01*
X175798224Y-91595212D01*
X175891054Y-91371100D01*
X175953838Y-91136789D01*
X175985500Y-90896288D01*
X175985500Y-90653712D01*
X175953838Y-90413211D01*
X175891054Y-90178900D01*
X175798224Y-89954788D01*
X175676936Y-89744711D01*
X175550922Y-89580486D01*
X175540880Y-89554512D01*
X175527827Y-89529914D01*
X175528456Y-89522374D01*
X175525728Y-89515317D01*
X175531323Y-89488036D01*
X175533640Y-89460287D01*
X175538956Y-89450820D01*
X175539766Y-89446872D01*
X175550918Y-89429519D01*
X175606746Y-89356762D01*
X176449500Y-89356762D01*
X176449500Y-89643237D01*
X176481572Y-89927891D01*
X176545317Y-90207181D01*
X176545321Y-90207193D01*
X176639929Y-90477565D01*
X176639935Y-90477579D01*
X176764223Y-90735666D01*
X176764225Y-90735669D01*
X176916634Y-90978227D01*
X177095243Y-91202195D01*
X177297805Y-91404757D01*
X177521773Y-91583366D01*
X177764331Y-91735775D01*
X178022428Y-91860068D01*
X178022434Y-91860070D01*
X178292806Y-91954678D01*
X178292818Y-91954682D01*
X178572102Y-92018426D01*
X178572105Y-92018426D01*
X178572108Y-92018427D01*
X178572107Y-92018427D01*
X178714434Y-92034463D01*
X178856763Y-92050499D01*
X178856764Y-92050500D01*
X178856767Y-92050500D01*
X179143236Y-92050500D01*
X179143236Y-92050499D01*
X179348815Y-92027336D01*
X179427891Y-92018427D01*
X179427892Y-92018426D01*
X179427898Y-92018426D01*
X179707182Y-91954682D01*
X179977572Y-91860068D01*
X180235669Y-91735775D01*
X180478227Y-91583366D01*
X180702195Y-91404757D01*
X180904757Y-91202195D01*
X181083366Y-90978227D01*
X181235775Y-90735669D01*
X181360068Y-90477572D01*
X181454682Y-90207182D01*
X181518426Y-89927898D01*
X181550500Y-89643233D01*
X181550500Y-89356767D01*
X181518426Y-89072102D01*
X181454682Y-88792818D01*
X181360068Y-88522428D01*
X181235775Y-88264331D01*
X181083366Y-88021773D01*
X180904757Y-87797805D01*
X180702195Y-87595243D01*
X180478227Y-87416634D01*
X180235669Y-87264225D01*
X180235666Y-87264223D01*
X179977579Y-87139935D01*
X179977565Y-87139929D01*
X179707193Y-87045321D01*
X179707181Y-87045317D01*
X179427891Y-86981572D01*
X179427892Y-86981572D01*
X179143237Y-86949500D01*
X179143233Y-86949500D01*
X178856767Y-86949500D01*
X178856762Y-86949500D01*
X178572108Y-86981572D01*
X178292818Y-87045317D01*
X178292806Y-87045321D01*
X178022434Y-87139929D01*
X178022420Y-87139935D01*
X177764333Y-87264223D01*
X177521774Y-87416633D01*
X177297805Y-87595242D01*
X177095242Y-87797805D01*
X176916633Y-88021774D01*
X176764223Y-88264333D01*
X176639935Y-88522420D01*
X176639929Y-88522434D01*
X176545321Y-88792806D01*
X176545317Y-88792818D01*
X176481572Y-89072108D01*
X176449500Y-89356762D01*
X175606746Y-89356762D01*
X175676936Y-89265289D01*
X175798224Y-89055212D01*
X175891054Y-88831100D01*
X175953838Y-88596789D01*
X175985500Y-88356288D01*
X175985500Y-88113712D01*
X175953838Y-87873211D01*
X175891054Y-87638900D01*
X175798224Y-87414788D01*
X175676936Y-87204711D01*
X175579279Y-87077441D01*
X175529266Y-87012263D01*
X175529260Y-87012256D01*
X175357743Y-86840739D01*
X175357736Y-86840733D01*
X175204141Y-86722876D01*
X175162938Y-86666448D01*
X175158783Y-86596702D01*
X175192995Y-86535782D01*
X175254712Y-86503029D01*
X175279627Y-86500500D01*
X198934108Y-86500500D01*
X198996754Y-86500500D01*
X199003244Y-86500670D01*
X199307046Y-86516592D01*
X199319953Y-86517949D01*
X199432549Y-86535782D01*
X199617209Y-86565028D01*
X199629896Y-86567724D01*
X199920625Y-86645625D01*
X199932965Y-86649635D01*
X200213938Y-86757490D01*
X200225790Y-86762767D01*
X200493968Y-86899411D01*
X200505199Y-86905896D01*
X200719895Y-87045321D01*
X200757608Y-87069812D01*
X200768109Y-87077441D01*
X201002010Y-87266850D01*
X201011655Y-87275535D01*
X201224464Y-87488344D01*
X201233149Y-87497989D01*
X201422558Y-87731890D01*
X201430187Y-87742391D01*
X201594101Y-87994796D01*
X201600591Y-88006036D01*
X201737231Y-88274206D01*
X201742510Y-88286064D01*
X201850363Y-88567033D01*
X201854374Y-88579376D01*
X201932273Y-88870097D01*
X201934971Y-88882794D01*
X201982050Y-89180046D01*
X201983407Y-89192953D01*
X201999330Y-89496756D01*
X201999500Y-89503246D01*
X201999500Y-138496753D01*
X201999330Y-138503243D01*
X201983407Y-138807046D01*
X201982050Y-138819953D01*
X201934971Y-139117205D01*
X201932273Y-139129902D01*
X201854374Y-139420623D01*
X201850363Y-139432966D01*
X201742510Y-139713935D01*
X201737231Y-139725793D01*
X201600591Y-139993963D01*
X201594101Y-140005203D01*
X201430187Y-140257608D01*
X201422558Y-140268109D01*
X201233149Y-140502010D01*
X201224464Y-140511655D01*
X201011655Y-140724464D01*
X201002010Y-140733149D01*
X200768109Y-140922558D01*
X200757608Y-140930187D01*
X200505203Y-141094101D01*
X200493963Y-141100591D01*
X200225793Y-141237231D01*
X200213935Y-141242510D01*
X199932966Y-141350363D01*
X199920623Y-141354374D01*
X199629902Y-141432273D01*
X199617205Y-141434971D01*
X199319953Y-141482050D01*
X199307046Y-141483407D01*
X199003244Y-141499330D01*
X198996754Y-141499500D01*
X176624000Y-141499500D01*
X176556961Y-141479815D01*
X176511206Y-141427011D01*
X176500000Y-141375500D01*
X176500000Y-139730280D01*
X176519685Y-139663241D01*
X176572489Y-139617486D01*
X176641647Y-139607542D01*
X176705203Y-139636567D01*
X176735720Y-139676479D01*
X176764221Y-139735663D01*
X176764225Y-139735669D01*
X176916634Y-139978227D01*
X177095243Y-140202195D01*
X177297805Y-140404757D01*
X177521773Y-140583366D01*
X177764331Y-140735775D01*
X178022428Y-140860068D01*
X178022434Y-140860070D01*
X178292806Y-140954678D01*
X178292818Y-140954682D01*
X178572102Y-141018426D01*
X178572105Y-141018426D01*
X178572108Y-141018427D01*
X178572107Y-141018427D01*
X178714434Y-141034463D01*
X178856763Y-141050499D01*
X178856764Y-141050500D01*
X178856767Y-141050500D01*
X179143236Y-141050500D01*
X179143236Y-141050499D01*
X179348815Y-141027336D01*
X179427891Y-141018427D01*
X179427892Y-141018426D01*
X179427898Y-141018426D01*
X179707182Y-140954682D01*
X179977572Y-140860068D01*
X180235669Y-140735775D01*
X180478227Y-140583366D01*
X180702195Y-140404757D01*
X180904757Y-140202195D01*
X181083366Y-139978227D01*
X181235775Y-139735669D01*
X181360068Y-139477572D01*
X181454682Y-139207182D01*
X181518426Y-138927898D01*
X181550500Y-138643233D01*
X181550500Y-138356767D01*
X181532087Y-138193351D01*
X181518427Y-138072108D01*
X181454682Y-137792818D01*
X181454678Y-137792806D01*
X181360070Y-137522434D01*
X181360068Y-137522428D01*
X181235775Y-137264331D01*
X181083366Y-137021773D01*
X180904757Y-136797805D01*
X180702195Y-136595243D01*
X180478227Y-136416634D01*
X180235669Y-136264225D01*
X180235666Y-136264223D01*
X179977579Y-136139935D01*
X179977565Y-136139929D01*
X179707193Y-136045321D01*
X179707181Y-136045317D01*
X179427891Y-135981572D01*
X179427892Y-135981572D01*
X179143237Y-135949500D01*
X179143233Y-135949500D01*
X178856767Y-135949500D01*
X178856762Y-135949500D01*
X178572108Y-135981572D01*
X178292818Y-136045317D01*
X178292806Y-136045321D01*
X178022434Y-136139929D01*
X178022420Y-136139935D01*
X177764333Y-136264223D01*
X177521774Y-136416633D01*
X177297805Y-136595242D01*
X177095242Y-136797805D01*
X176916633Y-137021774D01*
X176764223Y-137264333D01*
X176735720Y-137323521D01*
X176688897Y-137375381D01*
X176621470Y-137393693D01*
X176554846Y-137372645D01*
X176510178Y-137318918D01*
X176500000Y-137269719D01*
X176500000Y-100500000D01*
X155000000Y-100500000D01*
X155000000Y-106206893D01*
X154973387Y-106260053D01*
X154970318Y-106263232D01*
X154353553Y-106879999D01*
X154353553Y-106880000D01*
X154970319Y-107496766D01*
X155000000Y-107551122D01*
X155000000Y-107611280D01*
X155000000Y-114876000D01*
X154980315Y-114943039D01*
X154927511Y-114988794D01*
X154876000Y-115000000D01*
X131500000Y-115000000D01*
X131500000Y-141375500D01*
X131480315Y-141442539D01*
X131427511Y-141488294D01*
X131376000Y-141499500D01*
X121003246Y-141499500D01*
X120996756Y-141499330D01*
X120692953Y-141483407D01*
X120680046Y-141482050D01*
X120382794Y-141434971D01*
X120370097Y-141432273D01*
X120079376Y-141354374D01*
X120067033Y-141350363D01*
X119786064Y-141242510D01*
X119774206Y-141237231D01*
X119506036Y-141100591D01*
X119494796Y-141094101D01*
X119242391Y-140930187D01*
X119231890Y-140922558D01*
X118997989Y-140733149D01*
X118988344Y-140724464D01*
X118775535Y-140511655D01*
X118766850Y-140502010D01*
X118577441Y-140268109D01*
X118569812Y-140257608D01*
X118533826Y-140202194D01*
X118405896Y-140005199D01*
X118399408Y-139993963D01*
X118262768Y-139725793D01*
X118257489Y-139713935D01*
X118227790Y-139636567D01*
X118149635Y-139432965D01*
X118145625Y-139420623D01*
X118122490Y-139334283D01*
X118067724Y-139129896D01*
X118065028Y-139117205D01*
X118017949Y-138819953D01*
X118016592Y-138807046D01*
X118000670Y-138503243D01*
X118000500Y-138496753D01*
X118000500Y-138356762D01*
X118449500Y-138356762D01*
X118449500Y-138643237D01*
X118481572Y-138927891D01*
X118545317Y-139207181D01*
X118545321Y-139207193D01*
X118639929Y-139477565D01*
X118639935Y-139477579D01*
X118764223Y-139735666D01*
X118764225Y-139735669D01*
X118916634Y-139978227D01*
X119095243Y-140202195D01*
X119297805Y-140404757D01*
X119521773Y-140583366D01*
X119764331Y-140735775D01*
X120022428Y-140860068D01*
X120022434Y-140860070D01*
X120292806Y-140954678D01*
X120292818Y-140954682D01*
X120572102Y-141018426D01*
X120572105Y-141018426D01*
X120572108Y-141018427D01*
X120572107Y-141018427D01*
X120714434Y-141034463D01*
X120856763Y-141050499D01*
X120856764Y-141050500D01*
X120856767Y-141050500D01*
X121143236Y-141050500D01*
X121143236Y-141050499D01*
X121348815Y-141027336D01*
X121427891Y-141018427D01*
X121427892Y-141018426D01*
X121427898Y-141018426D01*
X121707182Y-140954682D01*
X121977572Y-140860068D01*
X122235669Y-140735775D01*
X122478227Y-140583366D01*
X122702195Y-140404757D01*
X122904757Y-140202195D01*
X123083366Y-139978227D01*
X123235775Y-139735669D01*
X123360068Y-139477572D01*
X123454682Y-139207182D01*
X123518426Y-138927898D01*
X123550500Y-138643233D01*
X123550500Y-138356767D01*
X123532087Y-138193351D01*
X123518427Y-138072108D01*
X123454682Y-137792818D01*
X123454678Y-137792806D01*
X123360070Y-137522434D01*
X123360068Y-137522428D01*
X123235775Y-137264331D01*
X123083366Y-137021773D01*
X122904757Y-136797805D01*
X122702195Y-136595243D01*
X122478227Y-136416634D01*
X122235669Y-136264225D01*
X122235666Y-136264223D01*
X121977579Y-136139935D01*
X121977565Y-136139929D01*
X121707193Y-136045321D01*
X121707181Y-136045317D01*
X121427891Y-135981572D01*
X121427892Y-135981572D01*
X121143237Y-135949500D01*
X121143233Y-135949500D01*
X120856767Y-135949500D01*
X120856762Y-135949500D01*
X120572108Y-135981572D01*
X120292818Y-136045317D01*
X120292806Y-136045321D01*
X120022434Y-136139929D01*
X120022420Y-136139935D01*
X119764333Y-136264223D01*
X119521774Y-136416633D01*
X119297805Y-136595242D01*
X119095242Y-136797805D01*
X118916633Y-137021774D01*
X118764223Y-137264333D01*
X118639935Y-137522420D01*
X118639929Y-137522434D01*
X118545321Y-137792806D01*
X118545317Y-137792818D01*
X118481572Y-138072108D01*
X118449500Y-138356762D01*
X118000500Y-138356762D01*
X118000500Y-110140317D01*
X124164000Y-110140317D01*
X124164000Y-110379682D01*
X124195242Y-110616995D01*
X124257198Y-110848215D01*
X124348791Y-111069343D01*
X124348799Y-111069359D01*
X124468474Y-111276640D01*
X124468485Y-111276656D01*
X124614193Y-111466547D01*
X124614199Y-111466554D01*
X124783445Y-111635800D01*
X124783452Y-111635806D01*
X124953414Y-111766222D01*
X124994617Y-111822650D01*
X124998772Y-111892396D01*
X124978246Y-111937484D01*
X124856330Y-112105285D01*
X124761612Y-112291179D01*
X124697137Y-112489610D01*
X124664500Y-112695675D01*
X124664500Y-112904324D01*
X124697137Y-113110389D01*
X124761612Y-113308820D01*
X124856330Y-113494714D01*
X124978246Y-113662515D01*
X125001726Y-113728321D01*
X124985901Y-113796375D01*
X124953415Y-113833777D01*
X124783445Y-113964199D01*
X124614199Y-114133445D01*
X124614193Y-114133452D01*
X124468485Y-114323343D01*
X124468474Y-114323359D01*
X124348799Y-114530640D01*
X124348791Y-114530656D01*
X124257198Y-114751784D01*
X124195242Y-114983004D01*
X124164000Y-115220317D01*
X124164000Y-115459682D01*
X124195242Y-115696995D01*
X124257198Y-115928215D01*
X124348791Y-116149343D01*
X124348799Y-116149359D01*
X124468474Y-116356640D01*
X124468485Y-116356656D01*
X124604959Y-116534514D01*
X124630153Y-116599683D01*
X124616114Y-116668128D01*
X124604959Y-116685486D01*
X124468485Y-116863343D01*
X124468474Y-116863359D01*
X124348799Y-117070640D01*
X124348791Y-117070656D01*
X124257198Y-117291784D01*
X124195242Y-117523004D01*
X124164000Y-117760317D01*
X124164000Y-117999682D01*
X124195242Y-118236995D01*
X124257198Y-118468215D01*
X124348791Y-118689343D01*
X124348799Y-118689359D01*
X124468474Y-118896640D01*
X124468485Y-118896656D01*
X124604959Y-119074514D01*
X124630153Y-119139683D01*
X124616114Y-119208128D01*
X124604959Y-119225486D01*
X124468485Y-119403343D01*
X124468474Y-119403359D01*
X124348799Y-119610640D01*
X124348791Y-119610656D01*
X124257198Y-119831784D01*
X124195242Y-120063004D01*
X124164000Y-120300317D01*
X124164000Y-120539682D01*
X124195242Y-120776995D01*
X124257198Y-121008215D01*
X124348791Y-121229343D01*
X124348799Y-121229359D01*
X124468474Y-121436640D01*
X124468485Y-121436656D01*
X124604959Y-121614514D01*
X124630153Y-121679683D01*
X124616114Y-121748128D01*
X124604959Y-121765486D01*
X124468485Y-121943343D01*
X124468474Y-121943359D01*
X124348799Y-122150640D01*
X124348791Y-122150656D01*
X124257198Y-122371784D01*
X124195242Y-122603004D01*
X124164000Y-122840317D01*
X124164000Y-123079682D01*
X124195242Y-123316995D01*
X124257198Y-123548215D01*
X124348791Y-123769343D01*
X124348799Y-123769359D01*
X124468474Y-123976640D01*
X124468485Y-123976656D01*
X124604959Y-124154514D01*
X124630153Y-124219683D01*
X124616114Y-124288128D01*
X124604959Y-124305486D01*
X124468485Y-124483343D01*
X124468474Y-124483359D01*
X124348799Y-124690640D01*
X124348791Y-124690656D01*
X124257198Y-124911784D01*
X124195242Y-125143004D01*
X124164000Y-125380317D01*
X124164000Y-125619682D01*
X124195242Y-125856995D01*
X124257198Y-126088215D01*
X124348791Y-126309343D01*
X124348799Y-126309359D01*
X124468474Y-126516640D01*
X124468485Y-126516656D01*
X124614193Y-126706547D01*
X124614199Y-126706554D01*
X124783445Y-126875800D01*
X124783451Y-126875805D01*
X124973352Y-127021521D01*
X124973359Y-127021525D01*
X125180640Y-127141200D01*
X125180656Y-127141208D01*
X125401784Y-127232801D01*
X125401786Y-127232801D01*
X125401792Y-127232804D01*
X125633001Y-127294757D01*
X125810988Y-127318189D01*
X125870317Y-127326000D01*
X125870318Y-127326000D01*
X126109683Y-127326000D01*
X126157145Y-127319751D01*
X126346999Y-127294757D01*
X126578208Y-127232804D01*
X126637870Y-127208091D01*
X126799343Y-127141208D01*
X126799346Y-127141206D01*
X126799352Y-127141204D01*
X127006648Y-127021521D01*
X127196549Y-126875805D01*
X127365805Y-126706549D01*
X127511521Y-126516648D01*
X127631204Y-126309352D01*
X127722804Y-126088208D01*
X127784757Y-125856999D01*
X127816000Y-125619682D01*
X127816000Y-125380318D01*
X127784757Y-125143001D01*
X127722804Y-124911792D01*
X127705278Y-124869480D01*
X127631208Y-124690656D01*
X127631200Y-124690640D01*
X127511525Y-124483359D01*
X127511521Y-124483352D01*
X127375040Y-124305486D01*
X127349846Y-124240317D01*
X127363884Y-124171872D01*
X127375040Y-124154514D01*
X127409510Y-124109591D01*
X127511521Y-123976648D01*
X127631204Y-123769352D01*
X127722804Y-123548208D01*
X127784757Y-123316999D01*
X127816000Y-123079682D01*
X127816000Y-122840318D01*
X127784757Y-122603001D01*
X127722804Y-122371792D01*
X127636649Y-122163793D01*
X127631208Y-122150656D01*
X127631200Y-122150640D01*
X127511525Y-121943359D01*
X127511521Y-121943352D01*
X127375040Y-121765486D01*
X127349846Y-121700317D01*
X127363884Y-121631872D01*
X127375040Y-121614514D01*
X127448775Y-121518420D01*
X127511521Y-121436648D01*
X127631204Y-121229352D01*
X127633245Y-121224426D01*
X127710833Y-121037109D01*
X127722804Y-121008208D01*
X127784757Y-120776999D01*
X127816000Y-120539682D01*
X127816000Y-120300318D01*
X127784757Y-120063001D01*
X127722804Y-119831792D01*
X127644873Y-119643647D01*
X127631208Y-119610656D01*
X127631200Y-119610640D01*
X127511525Y-119403359D01*
X127511521Y-119403352D01*
X127375040Y-119225486D01*
X127349846Y-119160317D01*
X127363884Y-119091872D01*
X127375040Y-119074514D01*
X127427397Y-119006281D01*
X127511521Y-118896648D01*
X127631204Y-118689352D01*
X127722804Y-118468208D01*
X127784757Y-118236999D01*
X127816000Y-117999682D01*
X127816000Y-117760318D01*
X127784757Y-117523001D01*
X127722804Y-117291792D01*
X127722801Y-117291784D01*
X127631208Y-117070656D01*
X127631200Y-117070640D01*
X127511525Y-116863359D01*
X127511521Y-116863352D01*
X127375040Y-116685486D01*
X127349846Y-116620317D01*
X127363884Y-116551872D01*
X127375040Y-116534514D01*
X127403799Y-116497033D01*
X127511521Y-116356648D01*
X127631204Y-116149352D01*
X127722804Y-115928208D01*
X127784757Y-115696999D01*
X127816000Y-115459682D01*
X127816000Y-115220318D01*
X127784757Y-114983001D01*
X127722804Y-114751792D01*
X127669355Y-114622753D01*
X127631208Y-114530656D01*
X127631200Y-114530640D01*
X127511525Y-114323359D01*
X127511521Y-114323352D01*
X127365805Y-114133451D01*
X127365800Y-114133445D01*
X127196554Y-113964199D01*
X127196547Y-113964193D01*
X127026585Y-113833777D01*
X126985382Y-113777349D01*
X126981227Y-113707603D01*
X127001754Y-113662515D01*
X127123667Y-113494718D01*
X127218387Y-113308820D01*
X127282862Y-113110389D01*
X127315500Y-112904324D01*
X127315500Y-112695675D01*
X127282862Y-112489610D01*
X127218387Y-112291179D01*
X127123669Y-112105285D01*
X127001753Y-111937484D01*
X126978273Y-111871678D01*
X126994098Y-111803624D01*
X127026582Y-111766224D01*
X127196549Y-111635805D01*
X127365805Y-111466549D01*
X127511521Y-111276648D01*
X127631204Y-111069352D01*
X127722804Y-110848208D01*
X127784757Y-110616999D01*
X127816000Y-110379682D01*
X127816000Y-110155675D01*
X141174500Y-110155675D01*
X141174500Y-110364324D01*
X141207137Y-110570389D01*
X141271612Y-110768820D01*
X141366330Y-110954714D01*
X141402268Y-111004176D01*
X142062352Y-110344093D01*
X142085792Y-110431571D01*
X142144311Y-110532930D01*
X142227070Y-110615689D01*
X142328429Y-110674208D01*
X142415906Y-110697647D01*
X141755822Y-111357730D01*
X141755822Y-111357731D01*
X141805285Y-111393669D01*
X141991179Y-111488387D01*
X142189610Y-111552862D01*
X142395676Y-111585500D01*
X142604324Y-111585500D01*
X142810389Y-111552862D01*
X143008820Y-111488387D01*
X143194709Y-111393672D01*
X143244176Y-111357730D01*
X143205599Y-111319153D01*
X148414398Y-111319153D01*
X148421382Y-111324228D01*
X148576206Y-111403115D01*
X148741478Y-111456816D01*
X148913108Y-111484000D01*
X149086892Y-111484000D01*
X149258521Y-111456816D01*
X149423793Y-111403115D01*
X149578624Y-111324224D01*
X149585600Y-111319153D01*
X149000001Y-110733553D01*
X149000000Y-110733553D01*
X148414398Y-111319153D01*
X143205599Y-111319153D01*
X142584093Y-110697647D01*
X142671571Y-110674208D01*
X142772930Y-110615689D01*
X142855689Y-110532930D01*
X142914208Y-110431571D01*
X142937647Y-110344093D01*
X143597730Y-111004176D01*
X143633672Y-110954709D01*
X143728387Y-110768820D01*
X143792862Y-110570389D01*
X143825500Y-110364324D01*
X143825500Y-110293107D01*
X147896000Y-110293107D01*
X147896000Y-110466892D01*
X147923183Y-110638521D01*
X147976884Y-110803793D01*
X148055776Y-110958624D01*
X148055777Y-110958626D01*
X148060844Y-110965600D01*
X148060846Y-110965601D01*
X148646446Y-110380001D01*
X148646446Y-110379999D01*
X148600369Y-110333922D01*
X148650000Y-110333922D01*
X148650000Y-110426078D01*
X148673852Y-110515095D01*
X148719930Y-110594905D01*
X148785095Y-110660070D01*
X148864905Y-110706148D01*
X148953922Y-110730000D01*
X149046078Y-110730000D01*
X149135095Y-110706148D01*
X149214905Y-110660070D01*
X149280070Y-110594905D01*
X149326148Y-110515095D01*
X149350000Y-110426078D01*
X149350000Y-110379999D01*
X149353553Y-110379999D01*
X149353553Y-110380000D01*
X149939153Y-110965600D01*
X149944224Y-110958624D01*
X150023115Y-110803793D01*
X150076816Y-110638521D01*
X150104000Y-110466892D01*
X150104000Y-110293107D01*
X150076816Y-110121478D01*
X150023115Y-109956206D01*
X149944228Y-109801382D01*
X149939153Y-109794398D01*
X149353553Y-110379999D01*
X149350000Y-110379999D01*
X149350000Y-110333922D01*
X149326148Y-110244905D01*
X149280070Y-110165095D01*
X149214905Y-110099930D01*
X149135095Y-110053852D01*
X149046078Y-110030000D01*
X148953922Y-110030000D01*
X148864905Y-110053852D01*
X148785095Y-110099930D01*
X148719930Y-110165095D01*
X148673852Y-110244905D01*
X148650000Y-110333922D01*
X148600369Y-110333922D01*
X148060845Y-109794398D01*
X148060844Y-109794398D01*
X148055775Y-109801375D01*
X147976884Y-109956206D01*
X147923183Y-110121478D01*
X147896000Y-110293107D01*
X143825500Y-110293107D01*
X143825500Y-110155675D01*
X143792862Y-109949610D01*
X143728387Y-109751179D01*
X143633668Y-109565283D01*
X143630551Y-109560993D01*
X143630549Y-109560991D01*
X143597730Y-109515822D01*
X142937647Y-110175905D01*
X142914208Y-110088429D01*
X142855689Y-109987070D01*
X142772930Y-109904311D01*
X142671571Y-109845792D01*
X142584094Y-109822352D01*
X142965601Y-109440844D01*
X148414398Y-109440844D01*
X148414398Y-109440845D01*
X149000000Y-110026446D01*
X149000001Y-110026446D01*
X149585601Y-109440846D01*
X149585600Y-109440844D01*
X149578626Y-109435777D01*
X149578624Y-109435776D01*
X149423793Y-109356884D01*
X149258521Y-109303183D01*
X149086892Y-109276000D01*
X148913108Y-109276000D01*
X148741478Y-109303183D01*
X148576206Y-109356884D01*
X148421375Y-109435775D01*
X148414398Y-109440844D01*
X142965601Y-109440844D01*
X143244176Y-109162268D01*
X143244176Y-109162267D01*
X143194714Y-109126330D01*
X143008820Y-109031612D01*
X142810389Y-108967137D01*
X142604324Y-108934500D01*
X142395676Y-108934500D01*
X142189610Y-108967137D01*
X141991179Y-109031612D01*
X141805285Y-109126330D01*
X141755822Y-109162268D01*
X141755821Y-109162268D01*
X142415906Y-109822352D01*
X142328429Y-109845792D01*
X142227070Y-109904311D01*
X142144311Y-109987070D01*
X142085792Y-110088429D01*
X142062352Y-110175905D01*
X141402268Y-109515821D01*
X141402268Y-109515822D01*
X141366330Y-109565285D01*
X141271612Y-109751179D01*
X141207137Y-109949610D01*
X141174500Y-110155675D01*
X127816000Y-110155675D01*
X127816000Y-110140318D01*
X127784757Y-109903001D01*
X127722804Y-109671792D01*
X127676910Y-109560993D01*
X127631208Y-109450656D01*
X127631200Y-109450640D01*
X127527789Y-109271528D01*
X127511524Y-109243357D01*
X127511523Y-109243356D01*
X127511521Y-109243352D01*
X127365805Y-109053451D01*
X127365800Y-109053445D01*
X127196554Y-108884199D01*
X127196547Y-108884193D01*
X127006656Y-108738485D01*
X127006654Y-108738483D01*
X127006648Y-108738479D01*
X127006643Y-108738476D01*
X127006640Y-108738474D01*
X126799359Y-108618799D01*
X126799343Y-108618791D01*
X126578215Y-108527198D01*
X126346995Y-108465242D01*
X126109683Y-108434000D01*
X126109682Y-108434000D01*
X125870318Y-108434000D01*
X125870317Y-108434000D01*
X125633004Y-108465242D01*
X125401784Y-108527198D01*
X125180656Y-108618791D01*
X125180640Y-108618799D01*
X124973359Y-108738474D01*
X124973343Y-108738485D01*
X124783452Y-108884193D01*
X124783445Y-108884199D01*
X124614199Y-109053445D01*
X124614193Y-109053452D01*
X124468485Y-109243343D01*
X124468474Y-109243359D01*
X124348799Y-109450640D01*
X124348791Y-109450656D01*
X124257198Y-109671784D01*
X124195242Y-109903004D01*
X124164000Y-110140317D01*
X118000500Y-110140317D01*
X118000500Y-107819153D01*
X153414398Y-107819153D01*
X153421382Y-107824228D01*
X153576206Y-107903115D01*
X153741478Y-107956816D01*
X153913108Y-107984000D01*
X154086892Y-107984000D01*
X154258521Y-107956816D01*
X154423793Y-107903115D01*
X154578624Y-107824224D01*
X154585600Y-107819153D01*
X154000001Y-107233553D01*
X154000000Y-107233553D01*
X153414398Y-107819153D01*
X118000500Y-107819153D01*
X118000500Y-106793107D01*
X152896000Y-106793107D01*
X152896000Y-106966892D01*
X152923183Y-107138521D01*
X152976884Y-107303793D01*
X153055776Y-107458624D01*
X153055777Y-107458626D01*
X153060844Y-107465600D01*
X153060846Y-107465601D01*
X153646446Y-106880001D01*
X153646446Y-106879999D01*
X153600369Y-106833922D01*
X153650000Y-106833922D01*
X153650000Y-106926078D01*
X153673852Y-107015095D01*
X153719930Y-107094905D01*
X153785095Y-107160070D01*
X153864905Y-107206148D01*
X153953922Y-107230000D01*
X154046078Y-107230000D01*
X154135095Y-107206148D01*
X154214905Y-107160070D01*
X154280070Y-107094905D01*
X154326148Y-107015095D01*
X154350000Y-106926078D01*
X154350000Y-106833922D01*
X154326148Y-106744905D01*
X154280070Y-106665095D01*
X154214905Y-106599930D01*
X154135095Y-106553852D01*
X154046078Y-106530000D01*
X153953922Y-106530000D01*
X153864905Y-106553852D01*
X153785095Y-106599930D01*
X153719930Y-106665095D01*
X153673852Y-106744905D01*
X153650000Y-106833922D01*
X153600369Y-106833922D01*
X153060845Y-106294398D01*
X153060844Y-106294398D01*
X153055775Y-106301375D01*
X152976884Y-106456206D01*
X152923183Y-106621478D01*
X152896000Y-106793107D01*
X118000500Y-106793107D01*
X118000500Y-105940844D01*
X153414398Y-105940844D01*
X153414398Y-105940845D01*
X154000000Y-106526446D01*
X154000001Y-106526446D01*
X154585601Y-105940846D01*
X154585600Y-105940844D01*
X154578626Y-105935777D01*
X154578624Y-105935776D01*
X154423793Y-105856884D01*
X154258521Y-105803183D01*
X154086892Y-105776000D01*
X153913108Y-105776000D01*
X153741478Y-105803183D01*
X153576206Y-105856884D01*
X153421375Y-105935775D01*
X153414398Y-105940844D01*
X118000500Y-105940844D01*
X118000500Y-99051669D01*
X126799600Y-99051669D01*
X126799600Y-99234330D01*
X126828172Y-99414728D01*
X126884616Y-99588443D01*
X126967535Y-99751178D01*
X126980467Y-99768978D01*
X127553600Y-99195845D01*
X127553600Y-99196504D01*
X127581295Y-99299865D01*
X127634799Y-99392536D01*
X127710464Y-99468201D01*
X127803135Y-99521705D01*
X127906496Y-99549400D01*
X127907153Y-99549400D01*
X127334019Y-100122531D01*
X127351817Y-100135462D01*
X127514556Y-100218383D01*
X127688271Y-100274827D01*
X127868670Y-100303400D01*
X128051330Y-100303400D01*
X128231728Y-100274827D01*
X128405443Y-100218383D01*
X128568178Y-100135465D01*
X128585979Y-100122531D01*
X128012848Y-99549400D01*
X128013504Y-99549400D01*
X128116865Y-99521705D01*
X128209536Y-99468201D01*
X128285201Y-99392536D01*
X128338705Y-99299865D01*
X128343514Y-99281916D01*
X128359494Y-99293526D01*
X128359496Y-99293527D01*
X128359499Y-99293529D01*
X128555235Y-99393262D01*
X128586617Y-99416063D01*
X128956936Y-99786384D01*
X128979740Y-99817770D01*
X129079473Y-100013504D01*
X129233130Y-100224997D01*
X129233134Y-100225002D01*
X129417997Y-100409865D01*
X129418002Y-100409869D01*
X129542058Y-100500000D01*
X129629499Y-100563529D01*
X129781771Y-100641116D01*
X129862435Y-100682217D01*
X129862438Y-100682218D01*
X129986754Y-100722610D01*
X130111072Y-100763003D01*
X130369284Y-100803900D01*
X130369285Y-100803900D01*
X130630715Y-100803900D01*
X130630716Y-100803900D01*
X130888928Y-100763003D01*
X131137564Y-100682217D01*
X131370501Y-100563529D01*
X131582004Y-100409864D01*
X131766864Y-100225004D01*
X131920529Y-100013501D01*
X132039217Y-99780564D01*
X132120003Y-99531928D01*
X132160900Y-99273716D01*
X132160900Y-99178669D01*
X134569600Y-99178669D01*
X134569600Y-99361330D01*
X134598172Y-99541728D01*
X134654616Y-99715443D01*
X134737535Y-99878178D01*
X134750467Y-99895978D01*
X135323600Y-99322845D01*
X135323600Y-99323504D01*
X135351295Y-99426865D01*
X135404799Y-99519536D01*
X135480464Y-99595201D01*
X135573135Y-99648705D01*
X135676496Y-99676400D01*
X135677153Y-99676400D01*
X135104019Y-100249531D01*
X135121817Y-100262462D01*
X135284556Y-100345383D01*
X135458271Y-100401827D01*
X135638670Y-100430400D01*
X135821330Y-100430400D01*
X136001728Y-100401827D01*
X136175443Y-100345383D01*
X136338178Y-100262465D01*
X136355979Y-100249531D01*
X135782848Y-99676400D01*
X135783504Y-99676400D01*
X135886865Y-99648705D01*
X135979536Y-99595201D01*
X136055201Y-99519536D01*
X136108705Y-99426865D01*
X136113514Y-99408916D01*
X136129494Y-99420526D01*
X136129496Y-99420527D01*
X136129499Y-99420529D01*
X136325235Y-99520262D01*
X136356617Y-99543063D01*
X136726936Y-99913384D01*
X136749740Y-99944770D01*
X136784761Y-100013501D01*
X136846903Y-100135462D01*
X136849473Y-100140504D01*
X137003130Y-100351997D01*
X137003134Y-100352002D01*
X137187997Y-100536865D01*
X137188002Y-100536869D01*
X137224693Y-100563526D01*
X137399499Y-100690529D01*
X137551771Y-100768116D01*
X137632435Y-100809217D01*
X137632438Y-100809218D01*
X137756754Y-100849610D01*
X137881072Y-100890003D01*
X138139284Y-100930900D01*
X138139285Y-100930900D01*
X138400715Y-100930900D01*
X138400716Y-100930900D01*
X138658928Y-100890003D01*
X138907564Y-100809217D01*
X139140501Y-100690529D01*
X139352004Y-100536864D01*
X139536864Y-100352004D01*
X139690529Y-100140501D01*
X139809217Y-99907564D01*
X139890003Y-99658928D01*
X139930900Y-99400716D01*
X139930900Y-99139284D01*
X139890003Y-98881072D01*
X139818762Y-98661813D01*
X139809218Y-98632438D01*
X139809217Y-98632435D01*
X139750409Y-98517020D01*
X139690529Y-98399499D01*
X139611312Y-98290465D01*
X139536869Y-98188002D01*
X139536865Y-98187997D01*
X139352002Y-98003134D01*
X139351997Y-98003130D01*
X139140504Y-97849473D01*
X139140503Y-97849472D01*
X139140501Y-97849471D01*
X139065874Y-97811446D01*
X138907564Y-97730782D01*
X138907561Y-97730781D01*
X138689638Y-97659975D01*
X138631963Y-97620538D01*
X138610025Y-97580362D01*
X138539218Y-97362438D01*
X138539217Y-97362435D01*
X138474506Y-97235435D01*
X138420529Y-97129499D01*
X138328256Y-97002495D01*
X138266869Y-96918002D01*
X138266865Y-96917997D01*
X138082002Y-96733134D01*
X138081997Y-96733130D01*
X137870504Y-96579473D01*
X137870503Y-96579472D01*
X137870501Y-96579471D01*
X137795874Y-96541446D01*
X137637564Y-96460782D01*
X137637561Y-96460781D01*
X137388929Y-96379997D01*
X137259822Y-96359548D01*
X137130716Y-96339100D01*
X136869284Y-96339100D01*
X136783213Y-96352732D01*
X136611070Y-96379997D01*
X136362438Y-96460781D01*
X136362435Y-96460782D01*
X136129495Y-96579473D01*
X135918002Y-96733130D01*
X135917997Y-96733134D01*
X135733134Y-96917997D01*
X135733130Y-96918002D01*
X135579473Y-97129495D01*
X135460782Y-97362435D01*
X135460781Y-97362438D01*
X135379997Y-97611070D01*
X135339100Y-97869284D01*
X135339100Y-98090838D01*
X135319415Y-98157877D01*
X135271396Y-98201322D01*
X135121818Y-98277536D01*
X135121808Y-98277543D01*
X135104020Y-98290465D01*
X135104020Y-98290468D01*
X135456935Y-98643381D01*
X135479738Y-98674766D01*
X135514762Y-98743504D01*
X135579473Y-98870504D01*
X135591084Y-98886485D01*
X135573135Y-98891295D01*
X135480464Y-98944799D01*
X135404799Y-99020464D01*
X135351295Y-99113135D01*
X135323600Y-99216496D01*
X135323600Y-99217152D01*
X134750468Y-98644020D01*
X134750465Y-98644020D01*
X134737543Y-98661808D01*
X134737539Y-98661813D01*
X134654616Y-98824556D01*
X134598172Y-98998271D01*
X134569600Y-99178669D01*
X132160900Y-99178669D01*
X132160900Y-99012284D01*
X132120003Y-98754072D01*
X132048762Y-98534813D01*
X132039218Y-98505438D01*
X132039217Y-98505435D01*
X131982448Y-98394021D01*
X131976690Y-98382722D01*
X131920529Y-98272499D01*
X131859135Y-98187997D01*
X131766869Y-98061002D01*
X131766865Y-98060997D01*
X131582002Y-97876134D01*
X131581997Y-97876130D01*
X131370504Y-97722473D01*
X131370503Y-97722472D01*
X131370501Y-97722471D01*
X131295874Y-97684446D01*
X131137564Y-97603782D01*
X131137561Y-97603781D01*
X130919638Y-97532975D01*
X130861963Y-97493538D01*
X130840025Y-97453362D01*
X130769218Y-97235438D01*
X130769217Y-97235435D01*
X130715237Y-97129495D01*
X130650529Y-97002499D01*
X130589135Y-96917997D01*
X130496869Y-96791002D01*
X130496865Y-96790997D01*
X130312002Y-96606134D01*
X130311997Y-96606130D01*
X130100504Y-96452473D01*
X130100503Y-96452472D01*
X130100501Y-96452471D01*
X129958264Y-96379997D01*
X129867564Y-96333782D01*
X129867561Y-96333781D01*
X129618929Y-96252997D01*
X129489822Y-96232548D01*
X129360716Y-96212100D01*
X129099284Y-96212100D01*
X129013213Y-96225732D01*
X128841070Y-96252997D01*
X128592438Y-96333781D01*
X128592435Y-96333782D01*
X128359495Y-96452473D01*
X128148002Y-96606130D01*
X128147997Y-96606134D01*
X127963134Y-96790997D01*
X127963130Y-96791002D01*
X127809473Y-97002495D01*
X127690782Y-97235435D01*
X127690781Y-97235438D01*
X127609997Y-97484070D01*
X127569100Y-97742284D01*
X127569100Y-97963838D01*
X127549415Y-98030877D01*
X127501396Y-98074322D01*
X127351818Y-98150536D01*
X127351808Y-98150543D01*
X127334020Y-98163465D01*
X127334020Y-98163468D01*
X127686935Y-98516381D01*
X127709739Y-98547767D01*
X127809473Y-98743504D01*
X127821084Y-98759485D01*
X127803135Y-98764295D01*
X127710464Y-98817799D01*
X127634799Y-98893464D01*
X127581295Y-98986135D01*
X127553600Y-99089496D01*
X127553600Y-99090152D01*
X126980468Y-98517020D01*
X126980465Y-98517020D01*
X126967543Y-98534808D01*
X126967539Y-98534813D01*
X126884616Y-98697556D01*
X126828172Y-98871271D01*
X126799600Y-99051669D01*
X118000500Y-99051669D01*
X118000500Y-89503246D01*
X118000670Y-89496756D01*
X118008007Y-89356762D01*
X118449500Y-89356762D01*
X118449500Y-89643237D01*
X118481572Y-89927891D01*
X118545317Y-90207181D01*
X118545321Y-90207193D01*
X118639929Y-90477565D01*
X118639935Y-90477579D01*
X118764223Y-90735666D01*
X118764225Y-90735669D01*
X118916634Y-90978227D01*
X119095243Y-91202195D01*
X119297805Y-91404757D01*
X119521773Y-91583366D01*
X119764331Y-91735775D01*
X120022428Y-91860068D01*
X120022434Y-91860070D01*
X120292806Y-91954678D01*
X120292818Y-91954682D01*
X120572102Y-92018426D01*
X120572105Y-92018426D01*
X120572108Y-92018427D01*
X120572107Y-92018427D01*
X120714434Y-92034463D01*
X120856763Y-92050499D01*
X120856764Y-92050500D01*
X120856767Y-92050500D01*
X121143236Y-92050500D01*
X121143236Y-92050499D01*
X121348815Y-92027336D01*
X121427891Y-92018427D01*
X121427892Y-92018426D01*
X121427898Y-92018426D01*
X121707182Y-91954682D01*
X121977572Y-91860068D01*
X122235669Y-91735775D01*
X122478227Y-91583366D01*
X122702195Y-91404757D01*
X122904757Y-91202195D01*
X123083366Y-90978227D01*
X123235775Y-90735669D01*
X123360068Y-90477572D01*
X123454682Y-90207182D01*
X123518426Y-89927898D01*
X123550500Y-89643233D01*
X123550500Y-89356767D01*
X123518426Y-89072102D01*
X123454682Y-88792818D01*
X123360068Y-88522428D01*
X123235775Y-88264331D01*
X123083366Y-88021773D01*
X122904757Y-87797805D01*
X122702195Y-87595243D01*
X122478227Y-87416634D01*
X122235669Y-87264225D01*
X122235666Y-87264223D01*
X121977579Y-87139935D01*
X121977565Y-87139929D01*
X121707193Y-87045321D01*
X121707181Y-87045317D01*
X121427891Y-86981572D01*
X121427892Y-86981572D01*
X121143237Y-86949500D01*
X121143233Y-86949500D01*
X120856767Y-86949500D01*
X120856762Y-86949500D01*
X120572108Y-86981572D01*
X120292818Y-87045317D01*
X120292806Y-87045321D01*
X120022434Y-87139929D01*
X120022420Y-87139935D01*
X119764333Y-87264223D01*
X119521774Y-87416633D01*
X119297805Y-87595242D01*
X119095242Y-87797805D01*
X118916633Y-88021774D01*
X118764223Y-88264333D01*
X118639935Y-88522420D01*
X118639929Y-88522434D01*
X118545321Y-88792806D01*
X118545317Y-88792818D01*
X118481572Y-89072108D01*
X118449500Y-89356762D01*
X118008007Y-89356762D01*
X118008529Y-89346798D01*
X118011626Y-89287718D01*
X118016592Y-89192951D01*
X118017949Y-89180046D01*
X118037720Y-89055212D01*
X118065029Y-88882786D01*
X118067723Y-88870107D01*
X118145627Y-88579368D01*
X118149636Y-88567033D01*
X118166756Y-88522434D01*
X118257493Y-88286054D01*
X118262763Y-88274215D01*
X118399415Y-88006023D01*
X118405891Y-87994808D01*
X118569819Y-87742380D01*
X118577434Y-87731899D01*
X118766858Y-87497979D01*
X118775525Y-87488354D01*
X118988354Y-87275525D01*
X118997979Y-87266858D01*
X119231899Y-87077434D01*
X119242380Y-87069819D01*
X119494808Y-86905891D01*
X119506023Y-86899415D01*
X119774215Y-86762763D01*
X119786054Y-86757493D01*
X120067040Y-86649633D01*
X120079368Y-86645627D01*
X120370107Y-86567723D01*
X120382786Y-86565029D01*
X120680046Y-86517949D01*
X120692951Y-86516592D01*
X120996756Y-86500669D01*
X121003246Y-86500500D01*
X121065892Y-86500500D01*
X124730373Y-86500500D01*
X124797412Y-86520185D01*
G37*
%TD.AperFunction*%
%TD*%
M02*
