%TF.GenerationSoftware,KiCad,Pcbnew,9.0.6*%
%TF.CreationDate,2025-12-18T18:13:00-05:00*%
%TF.ProjectId,HV Pi Hat,48562050-6920-4486-9174-2e6b69636164,rev?*%
%TF.SameCoordinates,Original*%
%TF.FileFunction,Soldermask,Top*%
%TF.FilePolarity,Negative*%
%FSLAX46Y46*%
G04 Gerber Fmt 4.6, Leading zero omitted, Abs format (unit mm)*
G04 Created by KiCad (PCBNEW 9.0.6) date 2025-12-18 18:13:00*
%MOMM*%
%LPD*%
G01*
G04 APERTURE LIST*
%ADD10C,1.524000*%
%ADD11C,2.100000*%
%ADD12C,1.412000*%
%ADD13C,1.320800*%
%ADD14C,1.651000*%
%ADD15C,3.100000*%
%ADD16C,5.400000*%
%ADD17R,1.700000X1.700000*%
%ADD18C,1.700000*%
G04 APERTURE END LIST*
D10*
%TO.C,OR1*%
X160500000Y-122945000D03*
X160500000Y-114055000D03*
X160500000Y-107324000D03*
X160500000Y-129676000D03*
%TD*%
%TO.C,OR2*%
X168548000Y-122945000D03*
X168548000Y-114055000D03*
X168548000Y-107324000D03*
X168548000Y-129676000D03*
%TD*%
D11*
%TO.C,J2*%
X163500000Y-137000000D03*
X166000000Y-137000000D03*
%TD*%
D12*
%TO.C,R2*%
X154000000Y-122120000D03*
X154000000Y-106880000D03*
%TD*%
D13*
%TO.C,Q2*%
X135730000Y-99270000D03*
X137000000Y-98000000D03*
X138270000Y-99270000D03*
%TD*%
D11*
%TO.C,J1*%
X154000000Y-136995000D03*
X151500000Y-136995000D03*
%TD*%
D14*
%TO.C,U1*%
X125990000Y-110260000D03*
X125990000Y-112800000D03*
X125990000Y-115340000D03*
X125990000Y-117880000D03*
X125990000Y-120420000D03*
X125990000Y-122960000D03*
X125990000Y-125500000D03*
X142500000Y-125500000D03*
X142500000Y-110260000D03*
%TD*%
D15*
%TO.C,REF\u002A\u002A*%
X179000000Y-89500000D03*
D16*
X179000000Y-89500000D03*
%TD*%
D15*
%TO.C,REF\u002A\u002A*%
X121000000Y-89500000D03*
D16*
X121000000Y-89500000D03*
%TD*%
D13*
%TO.C,Q1*%
X127960000Y-99143000D03*
X129230000Y-97873000D03*
X130500000Y-99143000D03*
%TD*%
D15*
%TO.C,REF\u002A\u002A*%
X121000000Y-138500000D03*
D16*
X121000000Y-138500000D03*
%TD*%
D12*
%TO.C,R1*%
X149000000Y-125620000D03*
X149000000Y-110380000D03*
%TD*%
D17*
%TO.C,GPIO1*%
X125875000Y-90775000D03*
D18*
X125875000Y-88235000D03*
X128415000Y-90775000D03*
X128415000Y-88235000D03*
X130955000Y-90775000D03*
X130955000Y-88235000D03*
X133495000Y-90775000D03*
X133495000Y-88235000D03*
X136035000Y-90775000D03*
X136035000Y-88235000D03*
X138575000Y-90775000D03*
X138575000Y-88235000D03*
X141115000Y-90775000D03*
X141115000Y-88235000D03*
X143655000Y-90775000D03*
X143655000Y-88235000D03*
X146195000Y-90775000D03*
X146195000Y-88235000D03*
X148735000Y-90775000D03*
X148735000Y-88235000D03*
X151275000Y-90775000D03*
X151275000Y-88235000D03*
X153815000Y-90775000D03*
X153815000Y-88235000D03*
X156355000Y-90775000D03*
X156355000Y-88235000D03*
X158895000Y-90775000D03*
X158895000Y-88235000D03*
X161435000Y-90775000D03*
X161435000Y-88235000D03*
X163975000Y-90775000D03*
X163975000Y-88235000D03*
X166515000Y-90775000D03*
X166515000Y-88235000D03*
X169055000Y-90775000D03*
X169055000Y-88235000D03*
X171595000Y-90775000D03*
X171595000Y-88235000D03*
X174135000Y-90775000D03*
X174135000Y-88235000D03*
%TD*%
D15*
%TO.C,REF\u002A\u002A*%
X179000000Y-138500000D03*
D16*
X179000000Y-138500000D03*
%TD*%
M02*
